<svg xmlns="http://www.w3.org/2000/svg" viewBox="0 0 137.89 106.19"><defs><style>.cls-1{fill:#333;}</style></defs><g id="Layer_2" data-name="Layer 2"><g id="Layer_1-2" data-name="Layer 1"><path class="cls-1" d="M5.35,34.22l65.94,17c37-22.33,60.77-36.56,61.43-36.78a1.07,1.07,0,0,0,.63-.46c.09-.18.07-.31.06-.79s0-.81,0-1.21V11L65,0Z"/><path class="cls-1" d="M137.77,30.73a12.69,12.69,0,0,1-2.29,2.9A12,12,0,0,1,134,34.86c-4.74,3.24-45.56,27.53-52.8,32.47-2.91,2-3.72,2.91-6,3.94a12.69,12.69,0,0,1-2.69.9,14.78,14.78,0,0,1-3.73.25c-5-.35-30.06-7.09-30.94-7.3l-23-5.36a20.22,20.22,0,0,1-11.06-4.7A15,15,0,0,1,.15,43.29a14.74,14.74,0,0,1,5.2-9.07L11,35.67c33.5,8.65,58.81,15.19,58.73,15.52,0,.1-2.27-.42-11.85-2.47-18.2-3.89-18.4-3.77-28.48-6-9.77-2.18-20.69-4.77-20.69-4.77L7.47,40.6c-1.14,2.57-1.76,8.53,1.22,11.3a6.75,6.75,0,0,0,3.83,1.62c6.75,1,15,2.82,31.54,6.52,6.1,1.36,9.14,2,12.21,3s6.41,1.5,9.55,2.48a11.29,11.29,0,0,0,5.83.53A12.7,12.7,0,0,0,74.53,65a19.94,19.94,0,0,0,1.89-1.27c.1-.07,1-.63,2.79-1.86,3.5-2.42,9-5.74,13.59-8.58,6.24-3.85,5-3.2,11.68-7.37C118,37.47,127,32.5,130,30.33a13,13,0,0,1,1.62-1,13.64,13.64,0,0,1,4.33-1.38,2.14,2.14,0,0,1,1.44.65A2.12,2.12,0,0,1,137.77,30.73Z"/><path class="cls-1" d="M137.77,48a12.69,12.69,0,0,1-2.29,2.9A12,12,0,0,1,134,52.15c-4.74,3.24-45.56,27.53-52.8,32.47-2.91,2-3.72,2.91-6,3.94a12.69,12.69,0,0,1-2.69.9,14.78,14.78,0,0,1-3.73.25c-5-.35-30.06-7.09-30.94-7.3l-23-5.36a20.22,20.22,0,0,1-11.06-4.7A15,15,0,0,1,.15,60.58a14.74,14.74,0,0,1,5.2-9.07L11,53c33.5,8.65,58.81,15.19,58.73,15.52,0,.1-2.27-.42-11.85-2.47-18.2-3.89-18.4-3.77-28.48-6-9.77-2.18-20.69-4.77-20.69-4.77L7.47,57.89c-1.14,2.57-1.76,8.53,1.22,11.3a6.75,6.75,0,0,0,3.83,1.62c6.75,1,15,2.82,31.54,6.52,6.1,1.36,9.14,2,12.21,3s6.41,1.5,9.55,2.48a11.29,11.29,0,0,0,5.83.53,12.7,12.7,0,0,0,2.88-1.08A19.94,19.94,0,0,0,76.42,81c.1-.07,1-.63,2.79-1.85,3.5-2.43,9-5.75,13.59-8.59,6.24-3.85,5-3.2,11.68-7.37C118,54.76,127,49.79,130,47.62a13,13,0,0,1,1.62-1,13.64,13.64,0,0,1,4.33-1.38,2.14,2.14,0,0,1,1.44.65A2.12,2.12,0,0,1,137.77,48Z"/><path class="cls-1" d="M137.77,64.47a12.69,12.69,0,0,1-2.29,2.9A12,12,0,0,1,134,68.6c-4.74,3.25-45.56,27.53-52.8,32.47-2.91,2-3.72,2.91-6,3.94a12.69,12.69,0,0,1-2.69.9,14.78,14.78,0,0,1-3.73.25c-5-.35-30.06-7.09-30.94-7.29l-23-5.36A20.24,20.24,0,0,1,9,92.05a20.81,20.81,0,0,1-5.29-3.24A15.06,15.06,0,0,1,.15,77,14.74,14.74,0,0,1,5.35,68L11,69.41c33.5,8.66,58.81,15.2,58.73,15.53,0,.1-2.27-.43-11.85-2.48-18.2-3.89-18.4-3.76-28.48-6-9.77-2.18-20.69-4.78-20.69-4.78S7.62,74,7.47,74.35c-1.14,2.56-1.76,8.53,1.22,11.29a6.78,6.78,0,0,0,3.83,1.63c6.75,1,15,2.81,31.54,6.51,6.1,1.36,9.14,2,12.21,3s6.41,1.49,9.55,2.47a11.19,11.19,0,0,0,5.83.53,12.18,12.18,0,0,0,2.88-1.08,19.39,19.39,0,0,0,1.89-1.26c.1-.07,1-.64,2.79-1.86,3.5-2.43,9-5.75,13.59-8.59,6.24-3.85,5-3.2,11.68-7.36C118,71.22,127,66.25,130,64.07a13,13,0,0,1,1.62-1,13.34,13.34,0,0,1,4.33-1.37,2.07,2.07,0,0,1,1.44.64A2.12,2.12,0,0,1,137.77,64.47Z"/></g></g></svg>