<svg xmlns="http://www.w3.org/2000/svg" viewBox="0 0 167.2 154.82"><defs><style>.cls-1{fill:#333;}.cls-1,.cls-3,.cls-4{stroke:#333;}.cls-1,.cls-2,.cls-3,.cls-4{stroke-miterlimit:10;}.cls-1,.cls-2,.cls-3{stroke-width:4px;}.cls-2,.cls-3{fill:none;}.cls-2{stroke:#f6f6f6;}.cls-4{fill:#f6f6f6;}</style></defs><g id="Layer_2" data-name="Layer 2"><g id="Layer_1-2" data-name="Layer 1"><circle class="cls-1" cx="91.51" cy="77.15" r="63.96"/><circle class="cls-2" cx="91.51" cy="74.8" r="5.89"/><rect class="cls-3" x="2" y="2" width="163.2" height="150.82"/><line class="cls-3" x1="15.64" y1="2" x2="16.15" y2="152.82"/><path class="cls-4" d="M73.37,80.12a19.51,19.51,0,0,0,8.16,11.33,19.83,19.83,0,0,0,14.94,2.29Q86.26,116.07,76,138.4a56,56,0,0,1-36.16-24Z"/><path class="cls-4" d="M90.6,57.32a16.21,16.21,0,0,1,11.93,2.54C108,63.74,108.83,70,109,71.42l31-33.71a44.93,44.93,0,0,0-31-21.07Z"/><circle class="cls-2" cx="91.51" cy="74.8" r="12.6"/></g></g></svg>