<svg xmlns="http://www.w3.org/2000/svg" viewBox="0 0 75.46 26.6"><defs><style>.cls-1{fill:#2a2a2b;}</style></defs><g id="Layer_2" data-name="Layer 2"><g id="Layer_1-2" data-name="Layer 1"><path class="cls-1" d="M75.46,26.6H0V0H75.46ZM1,25.6H74.46V1H1Z"/><rect class="cls-1" x="51.44" y="7.35" width="1" height="11.91" transform="translate(8.55 44.79) rotate(-50.33)"/><rect class="cls-1" x="54.52" y="12.82" width="11.8" height="1" transform="translate(5.5 41.81) rotate(-39.85)"/><path class="cls-1" d="M21.06,12.26a6.29,6.29,0,0,1-.66,3,4.29,4.29,0,0,1-1.9,1.82,6.85,6.85,0,0,1-3,.61H12.56V7h3.23a6.1,6.1,0,0,1,2.81.6,4.15,4.15,0,0,1,1.82,1.77A5.87,5.87,0,0,1,21.06,12.26Zm-1.31.05a5.2,5.2,0,0,0-.48-2.38,3.11,3.11,0,0,0-1.4-1.4,5.19,5.19,0,0,0-2.27-.45H13.8v8.57h1.52a4.55,4.55,0,0,0,3.32-1.09A4.37,4.37,0,0,0,19.75,12.31Z"/><path class="cls-1" d="M31.16,17.72H29.69l-3.86-5.21-1.14,1v4.18H23.44V7h1.25v5.34l.85-.95c.3-.31.59-.63.88-1L29.54,7H31l-4.26,4.65Z"/><path class="cls-1" d="M40.35,17.72H38.88L35,12.51l-1.15,1v4.18H32.63V7h1.24v5.34l.86-.95.87-1L38.73,7h1.46l-4.27,4.65Z"/></g></g></svg>