<?xml version="1.0" encoding="UTF-8"?><svg id="Layer_2" xmlns="http://www.w3.org/2000/svg" width="26.62mm" height="9.38mm" viewBox="0 0 75.46 26.6"><defs><style>.cls-1{fill:#2a2a2b;}</style></defs><g id="Layer_1-2"><path class="cls-1" d="m75.46,26.6H0V0h75.46v26.6ZM1,25.6h73.46V1H1v24.6Z"/><rect class="cls-1" x="51.44" y="7.35" width="1" height="11.91" transform="translate(8.55 44.79) rotate(-50.33)"/><rect class="cls-1" x="54.52" y="12.82" width="11.8" height="1" transform="translate(5.5 41.81) rotate(-39.85)"/><path class="cls-1" d="m21.06,12.26c0,1.21-.22,2.21-.66,3.02-.44.81-1.08,1.42-1.91,1.82-.83.41-1.84.61-3.03.61h-2.91V7.01h3.23c1.09,0,2.03.2,2.81.6.79.4,1.39.99,1.82,1.77.43.78.64,1.74.64,2.89Zm-1.31.04c0-.96-.16-1.76-.48-2.38-.32-.62-.79-1.09-1.41-1.4-.62-.3-1.37-.46-2.27-.46h-1.79v8.58h1.52c1.47,0,2.58-.36,3.32-1.09.74-.73,1.11-1.81,1.11-3.25Z"/><path class="cls-1" d="m31.16,17.72h-1.47l-3.86-5.21-1.14,1.03v4.18h-1.25V7.01h1.25v5.34c.28-.32.56-.63.86-.95.29-.31.58-.63.87-.96l3.13-3.43h1.46l-4.26,4.64,4.42,6.06Z"/><path class="cls-1" d="m40.35,17.72h-1.47l-3.86-5.21-1.14,1.03v4.18h-1.25V7.01h1.25v5.34c.28-.32.56-.63.86-.95.29-.31.58-.63.87-.96l3.13-3.43h1.46l-4.26,4.64,4.42,6.06Z"/></g></svg>