<svg xmlns="http://www.w3.org/2000/svg" viewBox="0 0 168.75 186.36"><defs><style>.cls-1{fill:#333;}.cls-2{fill:#f6f6f6;}</style></defs><g id="Layer_2" data-name="Layer 2"><g id="Layer_1-2" data-name="Layer 1"><rect class="cls-1" x="10.72" y="86.68" width="158.03" height="99.68"/><rect class="cls-1" x="0.72" y="25.15" width="153.82" height="31.13" transform="translate(-9.21 28.73) rotate(-19.82)"/><rect class="cls-2" x="21.73" y="155.6" width="135.01" height="21.54"/><path class="cls-2" d="M46.82,60.21,31.69,49.27l13.13-4.74,15.31,10Z"/><path class="cls-2" d="M54.86,92.21,42,109.55l15.95-.12,12-16.84Z"/><path class="cls-2" d="M88.16,92.21,75.25,109.55l16-.12,12-16.84Z"/><path class="cls-2" d="M121.2,92.21l-12.91,17.34,15.95-.12,12-16.84Z"/><path class="cls-2" d="M78.54,48.56,63.41,37.62l13.13-4.74,15.31,10Z"/><path class="cls-2" d="M109.72,36.52,94.59,25.58l13.12-4.74,15.32,10Z"/><path class="cls-2" d="M27.41,66.65l-9.65,4.54a3.05,3.05,0,0,1-4.06-1.46l-4-8.51a3,3,0,0,1,1.46-4l3.66-1.72c.78.77,1.64,1.56,2.57,2.34a42.68,42.68,0,0,0,8.83,5.71l3.47,2.37Z"/><path class="cls-2" d="M127.26,14.07l9.66-4.53A3,3,0,0,1,141,11l4,8.5a3,3,0,0,1-1.46,4.06l-3.66,1.72c-.78-.78-1.64-1.56-2.57-2.35a42.34,42.34,0,0,0-8.83-5.7L125,14.86Z"/><path class="cls-2" d="M145.09,109.91H157a3.25,3.25,0,0,0,3.41-3v-9.4a3.24,3.24,0,0,0-3.41-3H152.5c-.43,1-.92,2.11-1.49,3.22a42.08,42.08,0,0,1-6.21,8.91l-2.38,3.62Z"/><path class="cls-2" d="M36.77,93.6H23.42a3.66,3.66,0,0,0-3.82,3.48v10.71a3.66,3.66,0,0,0,3.82,3.47h5.06c.47-1.18,1-2.41,1.66-3.66a47.83,47.83,0,0,1,7-10.17l2.66-4.12Z"/></g></g></svg>