<?xml version="1.0" encoding="UTF-8"?>
<svg id="Layer_1" data-name="Layer 1" xmlns="http://www.w3.org/2000/svg" viewBox="0 0 68.73 41.84">
  <defs>
    <style>
      .cls-1 {
        fill: #fff;
      }

      .cls-2 {
        fill: #026687;
      }

      .cls-3 {
        fill: #333;
      }

      .cls-4 {
        fill: #ede66a;
      }

      .cls-5 {
        fill: #ededed;
      }
    </style>
  </defs>
  <g id="Layer_2" data-name="Layer 2">
    <g id="Layer_1-2" data-name="Layer 1-2">
      <circle class="cls-3" cx="17.85" cy="17.87" r="17.22"/>
      <path class="cls-3" d="m17.89,35.59c-.97,0-1.95-.08-2.91-.24C5.31,33.76-1.24,24.64.35,14.98S11.05-1.24,20.72.35c9.65,1.57,16.19,10.67,14.62,20.32,0,.02,0,.05-.01.07-1.41,8.54-8.78,14.82-17.44,14.85Zm-.05-34.44c-9.24,0-16.73,7.5-16.72,16.74,0,9.24,7.5,16.73,16.74,16.72,8.19,0,15.18-5.94,16.5-14.03h0c1.49-9.12-4.69-17.72-13.81-19.21-.9-.15-1.8-.22-2.71-.22Z"/>
      <circle class="cls-5" cx="17.85" cy="17.87" r="5.02"/>
      <path class="cls-3" d="m17.86,23.38c-3.04.02-5.53-2.43-5.55-5.47-.01-1.8.85-3.49,2.32-4.53,2.47-1.78,5.91-1.22,7.69,1.24.86,1.19,1.21,2.68.97,4.13-.43,2.67-2.73,4.62-5.43,4.62h0Zm0-10c-2.21,0-4.11,1.59-4.48,3.77-.41,2.47,1.27,4.8,3.74,5.2,2.47.41,4.8-1.27,5.2-3.73h0c.4-2.47-1.27-4.8-3.74-5.2-.24-.04-.49-.06-.74-.06l.02.02Z"/>
      <circle class="cls-3" cx="17.85" cy="17.87" r="1.44"/>
      <path class="cls-5" d="m23.06,16c-.46-1.23-1.34-2.27-2.49-2.92-1.27-.71-2.75-.91-4.16-.57,1.69-3.82,3.37-7.65,5.06-11.48,4.06.87,7.67,3.18,10.16,6.51l-8.57,8.46Z"/>
      <path class="cls-5" d="m12.56,19.49c.41,1.24,1.23,2.3,2.33,3,1.21.75,2.66,1.03,4.06.78-1.66,3.78-3.33,7.56-5,11.35-1.97-.45-3.84-1.25-5.54-2.35-1.76-1.15-3.28-2.61-4.51-4.31l8.66-8.47Z"/>
      <path class="cls-2" d="m66.53,26.56l-11.4,12.59c-1.73,1.92-4.69,2.08-6.61.35,0,0,0,0,0,0l-16.92-16.52c-.56-2.23-1.23-4.59-2-7-.44-1.33-.9-2.62-1.38-3.87l8.91-9.88c1.66.39,3.36.78,5.07,1.15,2.09.45,4.14.88,6.17,1.28l17.87,15.28c1.91,1.74,2.04,4.7.3,6.61,0,0,0,0,0,0Z"/>
      <path class="cls-3" d="m67.92,25.6l-13.79,15.21c-1.17,1.28-3.15,1.38-4.44.22l-17.65-16c-.2-.21-.38-.43-.55-.66-.42-.59-.74-1.24-.95-1.93-.32-1-1.42-4.94-2.77-10.13l-.1-.41L36.73,1.9l.43.07c5.63,1,9.53,1.75,10.4,2,.64.15,1.26.4,1.83.74.29.17.5.33.63.42l17.68,16.02c1.29,1.17,1.39,3.16.22,4.45,0,0,0,0,0,0ZM29.38,12.3c1.34,5.14,2.37,8.8,2.64,9.64.22.72.6,1.39,1.11,1.95l17.61,16c.63.58,1.62.54,2.2-.09,0,0,0,0,0,0l13.8-15.25c.58-.64.53-1.63-.11-2.22,0,0,0,0,0,0L48.99,6.32l-.42-.28c-.45-.27-.93-.46-1.44-.58-.86-.22-4.73-1-9.87-1.87l-7.88,8.71Z"/>
      <path class="cls-3" d="m39.32,13.51c-1.31,1.43-3.53,1.51-4.96.2-1.43-1.31-1.51-3.53-.2-4.96,1.31-1.43,3.53-1.51,4.96-.2,0,0,0,0,.01,0,1.41,1.32,1.49,3.53.19,4.95Zm-4-3.65c-.72.79-.66,2.01.13,2.73.79.72,2.01.66,2.73-.13.71-.79.66-2.01-.13-2.72-.78-.73-2-.68-2.73.09-.01.01-.02.02-.03.04h.03Z"/>
      <path class="cls-4" d="m52.61,15.47c-.55-.15-1.28.82-2.77,2.47-.88,1-1.54,1.65-2,2.17l-3.09-9.2c-.26,5.87-.52,11.74-.77,17.61.06.12.17.22.3.27.52.18,1.12-.65,2.37-2l1.26-1.36c.83,3.29,1.65,6.58,2.48,9.87l2.52-19.54c-.06-.13-.17-.24-.3-.29Z"/>
      <path class="cls-3" d="m50.46,36.26l-2.64-10.48-.13.14c-.26.28-.56.59-.89,1l-.55.62c-.94,1.06-1.46,1.65-2,1.47-.17-.07-.31-.19-.4-.35h0v-.05l.82-18.61,3.3,9.84c.2-.23.44-.48.71-.77s.67-.72,1.07-1.17l.66-.73c1.1-1.38,1.72-2.02,2.24-1.88h0c.19.05.34.18.43.35v.12l-2.62,20.5Zm-3.87-9.69c.31-.35.59-.64.83-.9l.6-.64,2.32,9.25,2.39-18.51c-.04-.06-.1-.1-.17-.12-.35-.1-1,.61-1.92,1.67l-.74.83-1,1.08c-.37.4-.67.72-.91,1l-.21.24-2.88-8.56-.77,16.56c.05.06.11.12.18.15.32.1.84-.48,1.62-1.37l.66-.68Z"/>
      <circle class="cls-1" cx="36.56" cy="11.01" r="1.99"/>
    </g>
  </g>
</svg>