<?xml version="1.0" encoding="UTF-8"?>
<svg id="Layer_1" data-name="Layer 1" xmlns="http://www.w3.org/2000/svg" viewBox="0 0 72.06 38.45">
  <defs>
    <style>
      .cls-1 {
        fill: #fff;
      }

      .cls-2 {
        fill: #026687;
      }

      .cls-3 {
        fill: #f6f6f6;
      }

      .cls-4 {
        fill: #333;
      }

      .cls-5 {
        fill: #ede66a;
      }
    </style>
  </defs>
  <g id="Layer_2" data-name="Layer 2">
    <g id="Layer_1-2" data-name="Layer 1-2">
      <circle class="cls-4" cx="20.95" cy="17.7" r="14.65"/>
      <path class="cls-4" d="m21,32.8c-8.34.03-15.13-6.71-15.16-15.06-.03-8.34,6.71-15.13,15.06-15.16,8.34-.03,15.13,6.71,15.16,15.06,0,.02,0,.04,0,.06-.01,8.32-6.74,15.07-15.06,15.1Zm0-29.29c-7.84-.03-14.21,6.3-14.24,14.14-.03,7.84,6.3,14.21,14.14,14.24s14.21-6.3,14.24-14.14c0-.02,0-.03,0-.05-.01-7.81-6.33-14.15-14.14-14.19Z"/>
      <path class="cls-3" d="m21,19c-1,0-1.81-.81-1.81-1.81,0-1,.81-1.81,1.81-1.81,1,0,1.81.81,1.81,1.81,0,0,0,0,0,0,0,1-.81,1.8-1.81,1.8Zm0-2.69c-.49,0-.89.41-.88.9,0,.49.41.89.9.88.49,0,.88-.4.88-.89.02-.49-.36-.91-.85-.93-.02,0-.03,0-.05,0v.04Z"/>
      <path class="cls-4" d="m38.29,35.48H0V0h38.29v35.48Zm-37.37-.92h36.45V1H.92v33.56Z"/>
      <rect class="cls-4" x="3.18" y=".49" width=".92" height="34.54" transform="translate(-.06 .01) rotate(-.19)"/>
      <path class="cls-3" d="m16.8,18.38c.28,1.07.94,2.01,1.87,2.62,1.03.62,2.25.81,3.42.53l-4.68,10.19c-1.65-.32-3.21-.95-4.62-1.86-1.45-.95-2.7-2.19-3.66-3.64l7.67-7.84Z"/>
      <path class="cls-4" d="m17.47,31.85h-.08c-3.43-.65-6.46-2.66-8.39-5.57v-.07l7.88-8.06.05.2c.58,2.24,2.86,3.59,5.1,3.01.02,0,.03,0,.05-.01l.23-.05-4.84,10.55Zm-8.2-5.62c1.88,2.78,4.78,4.71,8.07,5.36l4.55-9.94c-2.23.5-4.47-.81-5.14-3l-7.48,7.58Z"/>
      <path class="cls-3" d="m20.75,13.15c.95-.16,1.93.05,2.73.59.85.63,1.4,1.59,1.52,2.64,2.36-2.57,4.72-5.14,7.09-7.72-1.55-2.56-4.14-4.32-7.09-4.82l-4.25,9.31Z"/>
      <path class="cls-4" d="m24.87,16.65v-.25c-.1-1.02-.61-1.95-1.43-2.57-.77-.52-1.72-.72-2.64-.56h-.22l4.33-9.59h.09c2.99.5,5.61,2.28,7.18,4.88v.07l-7.31,8.02Zm-3.47-3.65c.76-.01,1.51.21,2.14.65.79.61,1.31,1.5,1.46,2.48l6.87-7.48c-.74-1.19-1.72-2.21-2.88-3-1.2-.83-2.56-1.39-3.99-1.65l-4.08,9h.48Z"/>
      <path class="cls-3" d="m21,20.5c-1.85,0-3.35-1.5-3.35-3.35,0-1.85,1.5-3.35,3.35-3.35,1.85,0,3.35,1.5,3.35,3.35,0,0,0,0,0,0,0,1.85-1.5,3.34-3.35,3.34Zm0-5.77c-1.34,0-2.43,1.09-2.43,2.43s1.09,2.43,2.43,2.43,2.43-1.09,2.43-2.43-1.09-2.43-2.43-2.43h0Z"/>
      <path class="cls-2" d="m70.13,21.88l-10.27,13.61c-1.55,2.07-4.48,2.49-6.55.94l-18.31-14.96c-.76-2.18-1.64-4.46-2.67-6.82-.56-1.3-1.14-2.54-1.72-3.74L38.61.31c1.69.24,3.41.47,5.16.68,2.12.27,4.2.51,6.26.73l19.19,13.6c2.06,1.56,2.47,4.49.91,6.56,0,0,0,0,0,0Z"/>
      <path class="cls-4" d="m71.43,20.81l-12.43,16.39c-1.04,1.39-3.01,1.66-4.4.62,0,0,0,0,0,0l-19-14.37c-.22-.18-.42-.38-.6-.6-.47-.55-.84-1.18-1.11-1.85-.41-1-1.85-4.78-3.66-9.84l-.15-.4L38.21,0h.43c5.7.47,9.66.89,10.54,1,.66.09,1.3.28,1.9.57.23.11.45.23.66.37l19.07,14.46c1.39,1.05,1.67,3.02.62,4.41ZM31.85,11c1.8,5,3.16,8.55,3.49,9.37.27.7.71,1.33,1.28,1.83l19,14.33c.69.52,1.68.38,2.2-.31l12.35-16.36c.52-.69.38-1.68-.31-2.2h0S50.86,3.29,50.86,3.29l-.44-.24c-.46-.22-.95-.37-1.46-.44-.87-.13-4.8-.54-10-1l-7.11,9.39Z"/>
      <path class="cls-4" d="m41.85,11.34c-1.17,1.54-3.36,1.84-4.9.67-1.54-1.17-1.84-3.36-.67-4.9,1.17-1.54,3.36-1.84,4.9-.68,1.54,1.17,1.85,3.37.68,4.91Zm-4.34-3.27c-.65.85-.48,2.07.37,2.72s2.07.48,2.72-.37c.65-.85.48-2.07-.37-2.72,0,0,0,0,0,0-.85-.64-2.06-.48-2.7.37,0,0,0,0,0,0Z"/>
      <path class="cls-5" d="m55.27,12.09c-.56-.09-1.2.94-2.54,2.71-.79,1-1.39,1.79-1.78,2.34l-3.95-8.88c.27,5.87.55,11.74.82,17.61.07.12.19.21.33.24.53.13,1.05-.75,2.17-2.23.45-.6.83-1.08,1.13-1.47l3.4,9.59.75-19.68c-.08-.12-.19-.2-.33-.23Z"/>
      <path class="cls-4" d="m55,33l-3.57-10.21-.12.16-.8,1c-.18.23-.34.46-.49.66-.84,1.14-1.31,1.78-1.88,1.64-.17-.05-.33-.15-.43-.3h0v-.06l-.9-18.62,4.19,9.51c.17-.25.39-.52.63-.83l1-1.26.58-.79c1-1.39,1.55-2.09,2.13-2h0c.19.04.35.15.45.32h0v.06l-.79,20.72Zm-4.73-9.31l.75-1,.54-.69,3.14,9,.71-18.64c-.04-.06-.1-.1-.17-.11-.36-.06-.92.69-1.77,1.84l-.66.89-.9,1.17c-.33.42-.6.77-.81,1.07l-.19.26-3.64-8.24.73,16.56c.05.06.11.11.19.13.33.08.79-.55,1.49-1.5l.59-.74Z"/>
      <circle class="cls-1" cx="39.06" cy="9.24" r="2.06"/>
    </g>
  </g>
</svg>