<?xml version="1.0" encoding="UTF-8"?>
<svg id="Layer_1" data-name="Layer 1" xmlns="http://www.w3.org/2000/svg" viewBox="0 0 74.48 39.78">
  <defs>
    <style>
      .cls-1 {
        fill: #fff;
      }

      .cls-2 {
        fill: #026687;
      }

      .cls-3 {
        fill: #333;
      }

      .cls-4 {
        fill: #ede66a;
      }
    </style>
  </defs>
  <g id="Layer_1-2" data-name="Layer 1-2">
    <path class="cls-3" d="m1.71,13.74l21.3,5.5c12-7.2,19.7-11.8,19.9-11.9.1,0,.2-.1.2-.2v-.9l-22.1-3.6L1.71,13.74Z"/>
    <path class="cls-3" d="m44.51,12.64c-.2.3-.5.7-.7.9-.2.1-.3.3-.5.4-1.5,1.1-14.7,8.9-17.1,10.5-.6.5-1.2.9-1.9,1.3-.3.1-.6.2-.9.3-.4.1-.8.1-1.2.1-1.6-.1-9.7-2.3-10-2.4l-7.4-1.7c-1.3-.1-2.6-.7-3.6-1.5C.32,19.54-.08,18.14.01,16.74c.2-1.2.8-2.2,1.7-2.9l1.8.5c10.8,2.8,19,4.9,19,5s-.7-.1-3.8-.8c-5.9-1.3-6-1.2-9.2-2-3.2-.7-6.7-1.5-6.7-1.5,0,0-.3.8-.4.9-.4.8-.6,2.8.4,3.7.3.3.8.5,1.2.5,2.2.3,4.9.9,10.2,2.1,2,.4,3,.7,4,1s2.1.5,3.1.8c.6.2,1.2.3,1.9.2.3-.1.6-.2.9-.4.2-.1.4-.3.6-.4,0,0,.3-.2.9-.6,1.1-.8,2.9-1.9,4.4-2.8,2-1.2,1.6-1,3.8-2.4,4.4-2.7,7.3-4.3,8.2-5,.2-.1.3-.2.5-.3.4-.3.9-.4,1.4-.5.2,0,.3.1.5.2.2.1.3.3.1.6Z"/>
    <path class="cls-3" d="m44.51,18.24c-.3.5-.7,1-1.2,1.3-1.5,1-14.7,8.9-17.1,10.5-.6.5-1.2.9-1.9,1.3-.3.1-.6.2-.9.3-.4.1-.8.1-1.2.1-1.6-.1-9.7-2.3-10-2.4l-7.4-1.7c-1.3-.1-2.6-.7-3.6-1.5C.31,25.14-.09,23.74.01,22.34c.2-1.2.8-2.2,1.7-2.9l1.8.5c10.8,2.8,19,4.9,19,5s-.7-.1-3.8-.8c-5.9-1.3-6-1.2-9.2-2s-6.7-1.5-6.7-1.5c0,0-.3.8-.4.9-.4.6-.6,2.6.4,3.5.3.3.8.5,1.2.5,2.2.3,4.9.9,10.2,2.1,2,.4,3,.7,4,1s2.1.5,3.1.8c.6.2,1.2.3,1.9.2.3-.1.6-.2.9-.4.2-.1.4-.3.6-.4,0,0,.3-.2.9-.6,1.1-.8,2.9-1.9,4.4-2.8,2-1.2,1.6-1,3.8-2.4,4.4-2.7,7.3-4.3,8.2-5,.2-.1.3-.2.5-.3.4-.2.9-.4,1.4-.4.4,0,.7.3.6.7.1,0,.1.1,0,.2h0Z"/>
    <path class="cls-3" d="m44.51,23.54c-.3.5-.7,1-1.2,1.3-1.5,1-14.7,8.9-17.1,10.5-.6.5-1.2.9-1.9,1.3-.3.1-.6.2-.9.3-.4.1-.8.1-1.2.1-1.6-.1-9.7-2.3-10-2.4l-7.4-1.8c-1.3-.1-2.6-.7-3.6-1.5C.31,30.34-.09,28.94.01,27.54c.2-1.1.8-2.2,1.7-2.9l1.8.5c10.8,2.8,19,4.9,19,5s-.7-.1-3.8-.8c-5.9-1.3-6-1.2-9.2-2s-6.7-1.5-6.7-1.5c0,0-.3.8-.4.9-.4.8-.6,2.8.4,3.7.3.3.8.5,1.2.5,2.2.3,4.9.9,10.2,2.1,2,.4,3,.7,4,1s2.1.5,3.1.8c.6.2,1.2.3,1.9.2.3-.1.6-.2.9-.3.2-.1.4-.3.6-.4,0,0,.3-.2.9-.6,1.1-.8,2.9-1.9,4.4-2.8,2-1.2,1.6-1,3.8-2.4,4.4-2.7,7.3-4.3,8.2-5,.6-.4,1.3-.7,2-.7.2,0,.3.1.5.2.1,0,.1.3,0,.5Z"/>
    <path class="cls-2" d="m72.11,23.84l-11.1,13c-1.7,2-4.6,2.2-6.6.6h0l-17.4-16c-.6-2.2-1.4-4.6-2.2-6.9-.5-1.3-1-2.6-1.5-3.8L42.01.54c1.7.3,3.4.7,5.1,1,2.1.4,4.2.8,6.2,1.1l18.3,14.7c2,1.6,2.2,4.6.5,6.5h0Z"/>
    <path class="cls-3" d="m73.51,22.84l-13.4,15.7c-1.1,1.3-3.1,1.5-4.4.3h0l-18.1-15.4c-.2-.2-.4-.4-.6-.6-.5-.6-.8-1.2-1.1-1.9-.4-1-1.6-4.9-3.1-10l-.1-.4L41.51.14l.4.1c5.7.8,9.6,1.5,10.5,1.7.6.1,1.3.4,1.9.7.2.1.4.3.6.4l18.2,15.5c1.3,1.1,1.5,3,.4,4.3Zm-38.9-12.1c1.5,5.1,2.6,8.7,2.9,9.6.2.5.4,1,.8,1.5.1.2.2.3.4.4l18.1,15.5c.7.5,1.7.5,2.2-.2l13.3-15.6c.6-.7.5-1.6-.2-2.2h0l-18.1-15.5c-.1-.1-.3-.2-.4-.3-.4-.2-.9-.4-1.4-.5-.9-.2-4.8-.9-9.9-1.6l-7.7,8.9Z"/>
    <path class="cls-3" d="m44.51,11.64c-1.3,1.5-3.5,1.6-5,.3s-1.6-3.5-.3-5c1.3-1.4,3.4-1.6,4.9-.4,1.5,1.4,1.7,3.6.4,5.1h0Zm-4.1-3.5c-.7.8-.6,2,.2,2.7s2,.6,2.7-.2.6-2-.2-2.7h0c-.8-.7-2-.6-2.7.2h0Z"/>
    <path class="cls-4" d="m57.92,13.24c-.6-.1-1.3.9-2.7,2.6-.8,1-1.5,1.7-1.9,2.2-1.1-3-2.2-6.1-3.4-9.1l-.2,17.6c.1.1.2.2.3.3.5.2,1.1-.7,2.3-2.1.5-.6.9-1,1.2-1.4.9,3.3,1.9,6.5,2.8,9.8l1.9-19.6c-.1-.2-.2-.3-.3-.3Z"/>
    <path class="cls-3" d="m56.31,34.04l-2.9-10.4-.1.1c-.3.3-.5.6-.9,1l-.5.6c-.9,1.1-1.4,1.7-2,1.5-.2-.1-.3-.2-.4-.3h0v-.1l.3-18.6,3.5,9.7c.2-.2.4-.5.7-.8l1-1.2.6-.7c1.1-1.3,1.7-2,2.2-1.9h0c.2.1.3.2.4.3v.1h0l-1.9,20.7Zm-4.1-9.5l.8-.9.6-.7,2.6,9.2,1.8-18.7c0-.1-.1-.1-.2-.1-.4-.1-1,.6-1.9,1.7l-.7.8-1,1.2c-.4.4-.6.7-.9,1l-.2.3-3.1-8.4-.2,16.6c0,.1.1.1.2.1.3.1.8-.5,1.6-1.4l.6-.7Z"/>
    <circle class="cls-1" cx="41.81" cy="9.24" r="2.4"/>
  </g>
</svg>