<?xml version="1.0" encoding="UTF-8"?>
<svg id="Layer_1" data-name="Layer 1" xmlns="http://www.w3.org/2000/svg" viewBox="0 0 69.96 44.4">
  <defs>
    <style>
      .cls-1 {
        fill: #fff;
      }

      .cls-2 {
        fill: #026687;
      }

      .cls-3 {
        fill: #f6f6f6;
      }

      .cls-4 {
        fill: #333;
      }

      .cls-5 {
        fill: #ede66a;
      }
    </style>
  </defs>
  <g id="Layer_1-2" data-name="Layer 1-2">
    <rect class="cls-4" x="2.35" y="19.3" width="35.2" height="22.2"/>
    <rect class="cls-4" x=".15" y="5.61" width="34.3" height="6.9" transform="translate(-2.05 6.4) rotate(-19.82)"/>
    <rect class="cls-3" x="4.85" y="34.7" width="30.1" height="4.8"/>
    <path class="cls-3" d="m10.45,13.4l-3.4-2.4,2.9-1.1,3.4,2.2-2.9,1.3Z"/>
    <path class="cls-3" d="m12.25,20.5l-2.9,3.9h3.6l2.7-3.8-3.4-.1Z"/>
    <path class="cls-3" d="m19.65,20.5l-2.9,3.9h3.6l2.7-3.8-3.4-.1Z"/>
    <path class="cls-3" d="m26.95,20.5l-2.9,3.9h3.6c.9-1.3,1.8-2.5,2.7-3.8l-3.4-.1Z"/>
    <path class="cls-3" d="m17.55,10.8l-3.4-2.4,2.9-1.1,3.4,2.2-2.9,1.3Z"/>
    <path class="cls-3" d="m24.45,8.1l-3.4-2.4,2.9-1.1,3.4,2.2-2.9,1.3Z"/>
    <path class="cls-3" d="m6.15,14.8l-2.1,1c-.3.2-.7,0-.9-.3l-.9-1.9c-.2-.3,0-.7.3-.9l.8-.4c.2.2.4.4.6.5.6.5,1.3.9,2,1.3l.8.5-.6.2Z"/>
    <path class="cls-3" d="m28.35,3.1l2.2-1c.3-.2.7,0,.9.3h0l.9,1.9c.2.3,0,.7-.3.9h0l-.8.4c-.2-.2-.4-.4-.6-.5-.6-.5-1.3-.9-2-1.3l-.8-.5.5-.2Z"/>
    <path class="cls-3" d="m32.35,24.5h2.6c.4,0,.7-.3.8-.7h0v-2.1c0-.4-.4-.7-.8-.7h-1c-.1.2-.2.5-.3.7-.4.7-.8,1.4-1.4,2l-.5.8h.6Z"/>
    <path class="cls-3" d="m8.15,20.8h-3c-.4,0-.8.3-.8.8h0v2.4c0,.4.4.8.8.8h1.2c.1-.3.2-.5.4-.8.4-.8.9-1.6,1.6-2.3.2-.3.4-.6.6-.9h-.8Z"/>
    <path class="cls-2" d="m67.85,28.7l-11.1,13c-1.7,2-4.6,2.2-6.6.6h0l-17.4-16c-.6-2.2-1.4-4.6-2.2-6.9-.5-1.3-1-2.6-1.5-3.8l8.6-10.1c1.7.3,3.4.7,5.1,1,2.1.4,4.2.8,6.2,1.1l18.4,14.5c2,1.7,2.2,4.7.5,6.6h0Z"/>
    <path class="cls-4" d="m69.25,27.7l-13.3,15.6c-1.1,1.3-3.1,1.5-4.4.3h0l-18.2-15.3c-.2-.2-.4-.4-.6-.6-.5-.6-.8-1.2-1.1-1.9-.4-1-1.6-4.9-3.1-10l-.1-.4,8.7-10.3.4.1c5.7.8,9.6,1.5,10.5,1.7.6.1,1.3.4,1.9.7.2.1.4.3.6.4l18.2,15.5c1.4,1,1.6,2.9.5,4.2ZM30.35,15.6c1.5,5.1,2.6,8.7,2.9,9.6.2.5.4,1,.8,1.5.1.2.2.3.4.4l18.1,15.5c.7.5,1.7.5,2.2-.2l13.3-15.6c.6-.7.5-1.6-.2-2.2h0l-18.1-15.5c-.1-.1-.3-.2-.4-.3-.4-.2-.9-.4-1.4-.5-.9-.2-4.8-.9-9.9-1.6l-7.7,8.9Z"/>
    <path class="cls-4" d="m40.25,16.5c-1.3,1.5-3.5,1.6-5,.3s-1.6-3.5-.3-5c1.3-1.4,3.4-1.6,4.9-.4,1.5,1.4,1.7,3.6.4,5.1h0Zm-4.1-3.5c-.7.8-.6,2,.2,2.7s2,.6,2.7-.2.6-2-.2-2.7h0c-.8-.7-2-.6-2.7.2h0Z"/>
    <path class="cls-5" d="m53.65,18.1c-.6-.1-1.3.9-2.7,2.6-.8,1-1.5,1.7-1.9,2.2-1.1-3-2.2-6.1-3.4-9.1l-.3,17.6c.1.1.2.2.3.3.5.2,1.1-.7,2.3-2.1.5-.6.9-1,1.2-1.4.9,3.3,1.9,6.5,2.8,9.8l1.9-19.6c0-.2-.1-.3-.2-.3Z"/>
    <path class="cls-4" d="m52.05,38.9l-2.9-10.4-.1.1c-.3.3-.5.6-.9,1l-.5.6c-.9,1.1-1.4,1.7-2,1.5-.2-.1-.3-.2-.4-.3h0v-.1l.3-18.6,3.5,9.7c.2-.2.4-.5.7-.8l1-1.2.6-.7c1.1-1.3,1.7-2,2.2-1.9h0c.2.1.3.2.4.3v.1h0l-1.9,20.7Zm-4.1-9.5l.8-.9.6-.7,2.6,9.2,1.8-18.6c0-.1-.1-.1-.2-.1-.4-.1-1,.6-1.9,1.7l-.7.8-1,1.2c-.4.4-.6.7-.9,1l-.2.3-3.1-8.5-.2,16.6c0,.1.1.1.2.1.3.1.8-.5,1.6-1.4l.6-.7Z"/>
    <circle class="cls-1" cx="37.55" cy="14.1" r="2.4"/>
  </g>
</svg>