<?xml version="1.0" encoding="UTF-8"?><svg id="Layer_1" xmlns="http://www.w3.org/2000/svg" width="337.27" height="105.84" viewBox="0 0 337.27 105.84"><defs><style>.cls-1{fill:#fc612d;}.cls-2{fill:#141414;}</style></defs><rect class="cls-2" x="59.91" y="75.86" width="12.75" height="3.29"/><polygon class="cls-2" points="162.93 66 181.26 66 181.97 62.72 163.63 62.72 162.93 66"/><path class="cls-2" d="m113.04,69.29h-16.34c-.25,1.02-.51,2.11-.78,3.29h16.42s.7-3.29.7-3.29Z"/><polygon class="cls-2" points="146.67 69.29 128.28 69.29 127.57 72.57 145.97 72.57 146.67 69.29"/><polygon class="cls-2" points="128.98 66 147.37 66 148.07 62.72 129.69 62.72 128.98 66"/><polygon class="cls-2" points="8.22 66 26.55 66 27.24 62.72 8.91 62.72 8.22 66"/><polygon class="cls-2" points="81.79 66 95.12 66 96.63 62.72 83.3 62.72 81.79 66"/><polygon class="cls-2" points="23.77 79.15 24.46 75.86 6.14 75.86 5.44 79.15 23.77 79.15"/><polygon class="cls-2" points="25.16 72.57 25.85 69.29 7.52 69.29 6.83 72.57 25.16 72.57"/><polygon class="cls-2" points="93.61 69.29 80.27 69.29 78.76 72.57 92.1 72.57 93.61 69.29"/><rect class="cls-2" x="59.91" y="62.72" width="12.75" height="3.29"/><polygon class="cls-2" points="180.56 69.29 162.22 69.29 161.52 72.57 179.86 72.57 180.56 69.29"/><polygon class="cls-2" points="126.86 75.86 126.15 79.15 144.56 79.15 145.27 75.86 126.86 75.86"/><path class="cls-2" d="m278.4,75.86c-.06,1.1-.1,2.19-.1,3.29h18.59c-.01-.31-.03-.61-.03-.93,0-.79.03-1.58.07-2.36h-18.53Z"/><polygon class="cls-2" points="269.01 59.43 273.89 36.36 255.56 36.36 250.69 59.43 269.01 59.43"/><path class="cls-2" d="m40.03,75.86l-.69,3.29h16.28c.2-1.04.41-2.14.61-3.29h-16.2Z"/><path class="cls-1" d="m260.49,0c-.78,8.73-1.55,17.46-2.33,26.19,10.99-3.42,21.97-6.84,32.96-10.27-10.21-5.31-20.42-10.62-30.63-15.92Z"/><path class="cls-2" d="m41.42,69.29l-.69,3.29h16.08c.18-1.06.36-2.15.55-3.29h-15.94Z"/><polygon class="cls-2" points="266.93 69.29 248.6 69.29 247.91 72.57 266.24 72.57 266.93 69.29"/><path class="cls-2" d="m113.75,66l.7-3.29h-16.06c-.26.99-.55,2.08-.86,3.29h16.22Z"/><rect class="cls-2" x="59.91" y="69.29" width="12.75" height="3.29"/><path class="cls-2" d="m201.02,70.39c.62.74,1.3,1.47,2,2.18h26.44c-.43-.64-.88-1.28-1.4-1.9-.38-.46-.8-.92-1.24-1.38h-26.66c.28.37.55.74.85,1.1h0Z"/><path class="cls-2" d="m197.37,64.23c.23.61.5,1.2.78,1.78h25.06c-.44-.35-.88-.7-1.35-1.05-1.08-.81-2.01-1.55-2.83-2.24h-22.16c.15.51.31,1.02.49,1.51h.01Z"/><path class="cls-2" d="m42.11,66h15.79c.06-.37.12-.74.18-1.12.12-.71.23-1.43.35-2.17h-15.62l-.69,3.29h-.01Z"/><polygon class="cls-2" points="38.64 82.43 33.89 104.89 50.2 104.89 54.93 82.43 38.64 82.43"/><path class="cls-2" d="m58.95,59.43c.19-1.21.39-2.45.58-3.71h.38v3.71h12.75v-23.07h-24.28l-4.88,23.07s15.45,0,15.45,0Z"/><polygon class="cls-2" points="27.94 59.43 32.81 36.36 14.48 36.36 9.61 59.43 27.94 59.43"/><polygon class="cls-2" points="93.76 82.43 88.97 104.89 105.42 104.89 110.23 82.43 93.76 82.43"/><polygon class="cls-2" points="4.75 82.43 0 104.89 18.33 104.89 23.07 82.43 4.75 82.43"/><polygon class="cls-2" points="74.22 82.43 73.03 85.01 72.66 85.01 72.66 82.43 59.91 82.43 59.91 104.89 77.25 104.89 87.57 82.43 74.22 82.43"/><path class="cls-2" d="m159.19,82.43c-.37,1.1-.77,2.09-1.2,2.94-.92,1.8-2.03,3.1-3.33,3.91-1.3.81-2.87,1.22-4.71,1.22-1.97,0-3.47-.52-4.5-1.57s-1.55-2.51-1.55-4.38c0-.66.05-1.37.13-2.12h-18.37c-.01.14-.03.27-.04.4-.09,1.14-.14,2.2-.14,3.16,0,3.81.9,7.22,2.7,10.22,1.8,3,4.4,5.35,7.8,7.05,3.41,1.7,7.48,2.55,12.23,2.55,6.12,0,11.19-.99,15.19-2.98,4-1.98,7.19-4.89,9.56-8.72,2.03-3.27,3.61-7.17,4.74-11.7h-18.52v.02Z"/><path class="cls-2" d="m307.03,90.69c-3.25,0-5.76-1.04-7.52-3.12-1.11-1.3-1.87-3.02-2.28-5.14h-18.8c.31,3.97,1.18,7.54,2.63,10.69,1.84,4,4.64,7.12,8.39,9.35,3.75,2.23,8.48,3.35,14.2,3.35,3.56,0,7.05-.33,10.48-.98s6.8-1.73,10.15-3.23v-15.14c-3.41,1.44-6.44,2.5-9.09,3.19-2.66.69-5.38,1.03-8.16,1.03h0Z"/><path class="cls-2" d="m327,36.9c-3.63-1.08-7.72-1.62-12.28-1.62-5.16,0-9.72.85-13.69,2.55s-7.39,4.03-10.27,6.98c-2.88,2.95-5.23,6.31-7.08,10.08-.72,1.48-1.35,3-1.92,4.53h19.68c.67-1.15,1.39-2.22,2.19-3.2,1.45-1.78,3.11-3.17,4.97-4.17,1.86-1,3.9-1.5,6.12-1.5,2.62,0,5.16.43,7.59,1.29,2.44.86,5.11,2.15,8.02,3.87l6.94-14.3c-3.22-1.94-6.64-3.45-10.27-4.52h0Z"/><polygon class="cls-2" points="245.82 82.43 241.08 104.89 259.41 104.89 264.15 82.43 245.82 82.43"/><path class="cls-2" d="m213.46,82.43c.5.87.76,1.79.76,2.77,0,.88-.15,1.66-.45,2.37-.3.7-.74,1.29-1.34,1.76-.59.47-1.33.83-2.2,1.08-.88.25-1.89.38-3.05.38-2.88,0-6.01-.59-9.4-1.78s-6.34-2.55-8.84-4.08v16.41c2.22,1.44,4.87,2.55,7.95,3.33s6.32,1.17,9.73,1.17c4.19,0,7.9-.5,11.13-1.5s5.96-2.45,8.18-4.36,3.91-4.22,5.06-6.94c1.16-2.72,1.73-5.78,1.73-9.19,0-.48-.03-.95-.05-1.41h-19.22,0Z"/><path class="cls-2" d="m215.75,59.43c-.34-.45-.61-.89-.81-1.3-.42-.89-.63-1.82-.63-2.79,0-.56.09-1.14.26-1.73s.48-1.15.91-1.66c.44-.52,1.06-.94,1.88-1.27.81-.33,1.88-.49,3.19-.49,2.12,0,4.38.42,6.77,1.24,2.39.83,4.68,1.79,6.87,2.88l6.33-13.92c-2.84-1.59-5.99-2.83-9.45-3.7-3.45-.87-7.02-1.31-10.71-1.31s-6.93.52-9.91,1.57c-2.98,1.05-5.55,2.53-7.69,4.45-2.14,1.92-3.79,4.18-4.95,6.77s-1.73,5.44-1.73,8.53c0,.95.07,1.85.17,2.73h19.51,0Z"/><path class="cls-2" d="m231.61,76.79c-.11-.31-.25-.62-.38-.93h-24.61c1.37,1.12,2.63,2.17,3.77,3.13.06.05.11.1.17.15h21.67c-.17-.81-.37-1.6-.64-2.36h.02Z"/><polygon class="cls-2" points="265.54 75.86 247.21 75.86 246.52 79.15 264.85 79.15 265.54 75.86"/><path class="cls-2" d="m179.16,75.86h-18.34l-.5,2.36c-.07.33-.15.62-.22.93h18.36l.7-3.29Z"/><path class="cls-2" d="m98.14,59.43l1.71-3.71h.38c-.19.94-.51,2.18-.93,3.71h15.86l4.94-23.07h-24.66l-10.62,23.07h13.33-.01Z"/><path class="cls-2" d="m111.64,75.86h-16.46c-.23,1.05-.47,2.14-.72,3.29h16.48l.7-3.29Z"/><path class="cls-2" d="m278.68,72.57h18.54c.11-.88.24-1.76.41-2.63.04-.22.1-.44.14-.66h-18.63c-.19,1.1-.34,2.19-.47,3.29h0Z"/><polygon class="cls-2" points="148.78 59.43 153.7 36.36 135.38 36.36 130.4 59.43 148.78 59.43"/><polygon class="cls-2" points="182.67 59.43 187.59 36.36 169.27 36.36 164.33 59.43 182.67 59.43"/><path class="cls-2" d="m279.8,66h18.81c.35-1.13.75-2.23,1.2-3.29h-19.14c-.32,1.08-.61,2.18-.86,3.29h-.01Z"/><polygon class="cls-2" points="90.59 75.86 77.25 75.86 75.73 79.15 89.08 79.15 90.59 75.86"/><polygon class="cls-2" points="249.3 66 267.63 66 268.32 62.72 249.99 62.72 249.3 66"/></svg>