<?xml version="1.0" encoding="UTF-8"?><svg id="Layer_1" fill="#333333" xmlns="http://www.w3.org/2000/svg" width="39.2" height="39.95" viewBox="0 0 39.2 39.95"><path d="m11.79,39.95c-.99,0-1.84-.35-2.54-1.06-.7-.71-1.05-1.56-1.05-2.55s.35-1.84,1.06-2.54c.71-.7,1.56-1.05,2.55-1.05s1.84.35,2.54,1.06c.7.71,1.05,1.56,1.05,2.55s-.35,1.84-1.06,2.54c-.71.7-1.56,1.05-2.55,1.05Zm20,0c-.99,0-1.84-.35-2.54-1.06-.7-.71-1.05-1.56-1.05-2.55s.35-1.84,1.06-2.54c.71-.7,1.56-1.05,2.55-1.05s1.84.35,2.54,1.06c.7.71,1.05,1.56,1.05,2.55s-.35,1.84-1.06,2.54c-.71.7-1.56,1.05-2.55,1.05ZM9.2,6.95l5.5,11.4h14.4l6.25-11.4H9.2Zm-1.5-3h29.45c.77,0,1.35.35,1.75,1.05.4.7.4,1.4,0,2.1l-6.75,12.15c-.37.63-.84,1.14-1.43,1.53-.59.38-1.23.58-1.92.58h-15.15l-2.8,5.2h24.55v3H11.3c-1.4,0-2.41-.47-3.03-1.4s-.61-1.98.03-3.15l3.2-5.9L3.9,3H0V0h5.85l1.85,3.95Zm7,14.4h14.4-14.4Z"/></svg>