<?xml version="1.0" encoding="UTF-8"?><svg id="Layer_2" xmlns="http://www.w3.org/2000/svg" width="200px" height="180px" viewBox="0 0 332.57 99.9"><defs><style>.cls-1{fill:#fefefe;}.cls-2{fill:#b3b2b1;}.cls-3{fill:#141414;}.cls-4{fill:none;stroke:#1d1d1b;stroke-miterlimit:10;stroke-width:.5px;}</style></defs><g id="Layer_1-2"><rect class="cls-1" width="332.57" height="99.9"/><path class="cls-2" d="m36.26,64.95h-3.37v-21.56c0-.82,0-1.52.01-2.11s.02-1.13.04-1.62.05-1,.09-1.51c-.43.44-.83.82-1.21,1.13s-.84.7-1.39,1.15l-3.47,2.79-1.81-2.35,8.24-6.35h2.87v30.42Z"/><path class="cls-3" d="m80.32,65.17h-19.93v-2.89l8.14-8.26c1.51-1.53,2.78-2.89,3.82-4.08s1.82-2.37,2.36-3.53.81-2.43.81-3.82c0-1.72-.51-3.03-1.53-3.94s-2.36-1.36-4.03-1.36c-1.46,0-2.75.25-3.87.75s-2.27,1.21-3.45,2.12l-1.85-2.33c.8-.68,1.68-1.28,2.63-1.81s1.97-.94,3.06-1.25,2.25-.46,3.49-.46c1.87,0,3.49.33,4.85.98s2.41,1.58,3.15,2.79,1.11,2.64,1.11,4.31-.32,3.1-.96,4.48-1.53,2.75-2.68,4.1-2.5,2.78-4.04,4.3l-6.62,6.6v.15h15.54v3.16Z"/><path class="cls-3" d="m128.14,41.64c0,1.36-.26,2.54-.79,3.54s-1.26,1.81-2.21,2.44-2.05,1.07-3.33,1.32v.17c2.41.31,4.23,1.08,5.44,2.33s1.82,2.89,1.82,4.91c0,1.76-.41,3.32-1.24,4.68s-2.09,2.42-3.79,3.19-3.87,1.15-6.52,1.15c-1.61,0-3.1-.13-4.46-.38s-2.67-.68-3.92-1.28v-3.25c1.26.62,2.64,1.11,4.12,1.47s2.92.53,4.31.53c2.77,0,4.78-.55,6.01-1.65s1.85-2.61,1.85-4.53c0-1.32-.34-2.38-1.03-3.19s-1.67-1.41-2.95-1.79-2.83-.57-4.63-.57h-3.04v-2.95h3.06c1.65,0,3.05-.24,4.2-.73s2.03-1.17,2.63-2.05.91-1.92.91-3.13c0-1.54-.51-2.73-1.54-3.57s-2.42-1.26-4.18-1.26c-1.08,0-2.07.11-2.95.33s-1.72.53-2.5.92-1.55.84-2.33,1.35l-1.75-2.37c1.11-.86,2.46-1.6,4.06-2.23s3.41-.94,5.43-.94c3.11,0,5.44.71,6.99,2.12s2.33,3.22,2.33,5.41Z"/><path class="cls-3" d="m152.92,56.81c0-.97.24-1.66.71-2.07s1.05-.61,1.73-.61,1.3.2,1.79.61.73,1.1.73,2.07-.24,1.65-.73,2.09-1.08.66-1.79.66-1.26-.22-1.73-.66-.71-1.13-.71-2.09Z"/><path class="cls-3" d="m164.12,56.81c0-.97.24-1.66.71-2.07s1.05-.61,1.73-.61,1.3.2,1.79.61.73,1.1.73,2.07-.24,1.65-.73,2.09-1.08.66-1.79.66-1.26-.22-1.73-.66-.71-1.13-.71-2.09Z"/><path class="cls-3" d="m175.31,56.81c0-.97.24-1.66.71-2.07s1.05-.61,1.73-.61,1.3.2,1.79.61.73,1.1.73,2.07-.24,1.65-.73,2.09-1.08.66-1.79.66-1.26-.22-1.73-.66-.71-1.13-.71-2.09Z"/><path class="cls-3" d="m203.24,51.96c0-1.83.13-3.62.38-5.37s.69-3.37,1.3-4.88,1.44-2.83,2.5-3.96,2.37-2.03,3.94-2.67,3.46-.97,5.67-.97c.62,0,1.3.03,2.02.09s1.32.16,1.79.3v2.98c-.51-.18-1.1-.31-1.76-.4s-1.32-.12-1.99-.12c-2.58,0-4.61.56-6.09,1.69s-2.54,2.65-3.19,4.57-1.03,4.08-1.12,6.48h.23c.43-.69.98-1.32,1.64-1.88s1.47-1.01,2.42-1.34,2.06-.5,3.32-.5c1.78,0,3.33.36,4.65,1.08s2.35,1.77,3.08,3.14,1.09,3.04,1.09,4.99c0,2.09-.39,3.9-1.17,5.43s-1.88,2.7-3.32,3.53-3.15,1.24-5.13,1.24c-1.48,0-2.85-.28-4.1-.85s-2.33-1.41-3.26-2.54-1.64-2.52-2.15-4.19-.77-3.62-.77-5.84Zm10.24,10.51c1.89,0,3.4-.6,4.54-1.81s1.71-3.03,1.71-5.47c0-2-.51-3.58-1.52-4.74s-2.54-1.75-4.58-1.75c-1.39,0-2.59.29-3.62.86s-1.82,1.3-2.39,2.17-.85,1.76-.85,2.66.14,1.84.41,2.79.68,1.82,1.24,2.62,1.26,1.45,2.1,1.94,1.84.73,2.98.73Z"/><rect class="cls-4" x="260.83" y="29.71" width="42.76" height="42.76"/><rect class="cls-3" x="282.63" y="40.22" width="1" height="11.91" transform="translate(37.78 194.82) rotate(-40.47)"/><rect class="cls-3" x="277.37" y="54.14" width="11.8" height="1" transform="translate(62.39 240.22) rotate(-50.96)"/></g></svg>