<?xml version="1.0" encoding="UTF-8"?>
<svg id="Layer_1" data-name="Layer 1" xmlns="http://www.w3.org/2000/svg" xmlns:xlink="http://www.w3.org/1999/xlink" viewBox="0 0 700 700">
  <defs>
    <style>
      .cls-1 {
        opacity: .72;
      }

      .cls-1, .cls-2, .cls-3, .cls-4, .cls-5, .cls-6, .cls-7, .cls-8, .cls-9, .cls-10, .cls-11, .cls-12, .cls-13, .cls-14, .cls-15, .cls-16, .cls-17, .cls-18, .cls-19, .cls-20, .cls-21, .cls-22, .cls-23, .cls-24, .cls-25, .cls-26, .cls-27, .cls-28, .cls-29, .cls-30, .cls-31, .cls-32, .cls-33, .cls-34, .cls-35, .cls-36, .cls-37, .cls-38, .cls-39, .cls-40, .cls-41, .cls-42, .cls-43, .cls-44, .cls-45, .cls-46, .cls-47, .cls-48, .cls-49, .cls-50, .cls-51 {
        fill: none;
      }

      .cls-1, .cls-2, .cls-3, .cls-4, .cls-5, .cls-6, .cls-7, .cls-8, .cls-9, .cls-10, .cls-11, .cls-12, .cls-13, .cls-14, .cls-15, .cls-16, .cls-17, .cls-18, .cls-19, .cls-20, .cls-21, .cls-22, .cls-23, .cls-24, .cls-25, .cls-26, .cls-27, .cls-28, .cls-29, .cls-30, .cls-32, .cls-33, .cls-34, .cls-35, .cls-36, .cls-37, .cls-38, .cls-39, .cls-40, .cls-41, .cls-42, .cls-43, .cls-44, .cls-45, .cls-46, .cls-47, .cls-48, .cls-49, .cls-50, .cls-51 {
        stroke: #fc612d;
        stroke-miterlimit: 10;
        stroke-width: 5px;
      }

      .cls-2 {
        opacity: .71;
      }

      .cls-3 {
        opacity: .96;
      }

      .cls-4 {
        opacity: .91;
      }

      .cls-5 {
        opacity: .66;
      }

      .cls-6 {
        opacity: .54;
      }

      .cls-7 {
        opacity: .63;
      }

      .cls-8 {
        opacity: .42;
      }

      .cls-9 {
        opacity: .67;
      }

      .cls-10 {
        opacity: .64;
      }

      .cls-11 {
        opacity: .76;
      }

      .cls-12 {
        opacity: .97;
      }

      .cls-13 {
        opacity: .55;
      }

      .cls-52 {
        clip-path: url(#clippath-2);
      }

      .cls-14 {
        opacity: .95;
      }

      .cls-15 {
        opacity: .89;
      }

      .cls-16 {
        opacity: .43;
      }

      .cls-17 {
        opacity: .52;
      }

      .cls-18 {
        opacity: .75;
      }

      .cls-19 {
        opacity: .87;
      }

      .cls-20 {
        opacity: .79;
      }

      .cls-21 {
        opacity: .81;
      }

      .cls-22 {
        opacity: .5;
      }

      .cls-53 {
        opacity: .4;
      }

      .cls-23 {
        opacity: .84;
      }

      .cls-24 {
        opacity: .59;
      }

      .cls-26 {
        opacity: .35;
      }

      .cls-27 {
        opacity: .48;
      }

      .cls-54 {
        clip-path: url(#clippath);
      }

      .cls-28 {
        opacity: .8;
      }

      .cls-29 {
        opacity: .88;
      }

      .cls-30 {
        opacity: .39;
      }

      .cls-55 {
        fill: #141414;
      }

      .cls-32 {
        opacity: .92;
      }

      .cls-33 {
        opacity: .4;
      }

      .cls-34 {
        opacity: .47;
      }

      .cls-35 {
        opacity: .83;
      }

      .cls-36 {
        opacity: .69;
      }

      .cls-37 {
        opacity: .93;
      }

      .cls-38 {
        opacity: .77;
      }

      .cls-39 {
        opacity: .99;
      }

      .cls-40 {
        opacity: .56;
      }

      .cls-41 {
        opacity: .51;
      }

      .cls-42 {
        opacity: .58;
      }

      .cls-43 {
        opacity: .68;
      }

      .cls-44 {
        opacity: .85;
      }

      .cls-45 {
        opacity: .36;
      }

      .cls-46 {
        opacity: .73;
      }

      .cls-47 {
        opacity: .38;
      }

      .cls-48 {
        opacity: .46;
      }

      .cls-49 {
        opacity: .62;
      }

      .cls-50 {
        opacity: .6;
      }

      .cls-51 {
        opacity: .44;
      }
    </style>
    <clipPath id="clippath">
      <rect class="cls-31" width="700" height="700"/>
    </clipPath>
    <clipPath id="clippath-2">
      <rect class="cls-31" x="1585" y="2" width="700" height="700"/>
    </clipPath>
  </defs>
  <rect class="cls-55" width="700" height="700"/>
  <g class="cls-54">
    <g class="cls-53">
      <path class="cls-26" d="m-373.99-37.33C48.94,34.44,238.44,194.37,333.14,329.16c64.5,91.81,99.76,162.83,203.06,280.87,31.98,36.55,218.58,212.31,443.63,197.13,186.02-12.55,226.11-135.01,373.95-136.55,104.44-1.09,254.44,59.94,439.64,355.35"/>
      <path class="cls-45" d="m1793.35,1037.48c-182.71-295.82-330.95-360.56-434.55-363.27-146.51-3.44-187.36,115.1-371.23,124.3-51.48,2.58-100.99-4.61-147.09-16.8-72.54-19.24-136.29-51.66-188.32-85.19-57.84-37.28-97.51-75.61-111.71-90.76-106.21-113.29-140.85-186-207.82-277.03-42.88-58.29-101.12-121.01-189.82-178.2C99.87,122.84,51.36,96.56-3.86,72.99-76.32,42.06-161.1,17.31-257.15-4.97c-37.69-8.73-77.05-16.88-116.89-24.99"/>
      <path class="cls-47" d="m1793.28,1049.01c-180.22-296.23-326.68-364.95-429.45-371.19-145.15-8.81-186.83,106.13-368.52,112.05-51.65,1.68-101.32-6.22-147.56-18.1-72.57-18.77-135.91-48.9-189.75-81.71-58.07-35.38-98.02-73.29-113.27-88.54-108.71-108.7-143.17-182.95-212.57-273.19-44.85-58.33-102.73-120.81-192.59-176.74C95.15,123.95,46.12,98.17-8.58,75.76-82.7,45.38-168.95,24.18-262.89,2.73c-36.86-8.4-74.77-16.44-111.21-25.32"/>
      <path class="cls-30" d="m1793.22,1060.53c-177.73-296.64-322.41-369.2-424.36-379.1-143.79-13.97-186.35,97.08-365.8,99.8-51.84.79-101.65-7.82-148.03-19.41-72.59-18.3-135.47-46.14-191.19-78.24-58.23-33.54-98.5-70.95-114.84-86.33-110.84-104.29-145.52-179.88-217.33-269.36-46.85-58.37-104.38-120.57-195.37-175.27C90.42,125.06,40.86,99.82-13.29,78.52-89.11,48.7-176.8,31.06-268.63,10.42c-36.02-8.06-72.48-16-105.53-25.65"/>
      <path class="cls-33" d="m1793.15,1072.06c-175.24-297.06-318.13-373.44-419.26-387.02-142.42-19.12-185.9,87.97-363.09,87.55-52.05-.12-101.98-9.43-148.5-20.71-72.62-17.84-134.96-43.37-192.63-74.76-58.31-31.75-98.95-68.6-116.41-84.12-112.64-100.07-147.9-176.81-222.08-265.52-48.85-58.41-106.06-120.31-198.14-173.8-47.35-27.5-97.46-52.17-151.03-72.39-77.55-29.27-166.65-43.36-256.37-63.18-35.19-7.73-70.2-15.56-99.84-25.98"/>
      <path class="cls-8" d="m1793.09,1083.59c-172.75-297.47-313.84-377.68-414.17-394.94-141.04-24.26-185.49,78.78-360.37,75.3-52.27-1.04-102.31-11.03-148.97-22.01-72.65-17.37-134.41-40.59-194.07-71.29-58.33-30.01-99.36-66.24-117.98-81.9-114.16-96.03-150.3-173.74-226.84-261.68-50.87-58.45-107.76-120.02-200.91-172.34C80.93,127.3,30.26,103.24-22.71,84.06c-79.31-28.72-169.78-39.25-257.4-58.25-34.36-7.4-67.92-15.12-94.16-26.31"/>
      <path class="cls-16" d="m1793.02,1095.12c-170.26-297.88-309.54-381.91-409.08-402.86-139.64-29.39-185.12,69.51-357.66,63.05-52.51-1.96-102.66-12.54-149.45-23.32-72.71-16.75-133.8-37.81-195.51-67.82-58.29-28.34-99.75-63.87-119.55-79.69-115.41-92.18-152.72-170.65-231.59-257.84-52.9-58.48-109.49-119.7-203.69-170.87-50.34-27.34-101.58-50.78-153.92-68.95-81.1-28.16-172.92-35.14-258.43-53.32-33.53-7.07-65.64-14.68-88.47-26.64"/>
      <path class="cls-51" d="m1792.95,1106.65c-167.77-298.29-305.24-386.13-403.98-410.78-138.24-34.51-184.77,60.16-354.94,50.8-52.76-2.9-102.99-14.13-149.92-24.62-72.74-16.26-133.14-35.04-196.95-64.34-58.2-26.72-100.12-61.51-121.12-77.47-116.44-88.49-155.16-167.55-236.35-254-54.95-58.51-111.24-119.36-206.46-169.4-51.85-27.25-103.67-50.03-155.36-67.23-82.92-27.6-176.06-31.04-259.46-48.4-32.7-6.73-63.36-14.24-82.79-26.98"/>
      <path class="cls-48" d="m1792.89,1118.18c-165.28-298.71-300.93-390.34-398.89-418.7-136.83-39.61-184.45,50.73-352.23,38.55-53.02-3.85-103.32-15.72-150.39-25.92-72.77-15.77-132.43-32.28-198.39-60.87-58.05-25.16-100.46-59.15-122.69-75.26-117.27-84.98-157.62-164.45-241.1-250.17-57.01-58.54-113.02-118.99-209.24-167.94-53.36-27.15-105.78-49.24-156.81-65.51-84.77-27.03-179.19-26.93-260.49-43.47-31.87-6.4-61.08-13.8-77.11-27.31"/>
      <path class="cls-34" d="m1792.82,1129.71c-162.79-299.12-296.61-394.54-393.79-426.62-135.41-44.7-184.16,41.22-349.52,26.3-53.3-4.81-103.66-17.32-150.86-27.23-72.8-15.29-131.68-29.54-199.83-57.39-57.87-23.65-100.78-56.8-124.26-73.05-117.93-81.61-160.11-161.33-245.86-246.33-59.08-58.56-114.81-118.6-212.01-166.47-54.89-27.03-107.91-48.42-158.25-63.8-86.64-26.46-182.33-22.82-261.51-38.54-31.04-6.07-58.8-13.36-71.42-27.64"/>
      <path class="cls-27" d="m1792.76,1141.23c-160.3-299.53-292.3-398.72-388.7-434.53-133.99-49.77-183.89,31.64-346.8,14.05-53.6-5.78-103.99-18.91-151.33-28.53-72.83-14.8-130.89-26.81-201.27-53.92-57.64-22.2-101.09-54.45-125.83-70.83-118.44-78.39-162.6-158.2-250.61-242.49-61.16-58.57-116.62-118.18-214.78-165C57,133.06,3.37,112.41-46.27,97.9c-88.54-25.88-185.47-18.72-262.54-33.62-30.21-5.73-56.52-12.92-65.74-27.97"/>
      <path class="cls-22" d="m1792.69,1152.76c-157.81-299.94-287.98-402.9-383.6-442.45-132.56-54.83-183.64,21.97-344.09,1.8-53.9-6.77-104.32-20.5-151.8-29.83-72.86-14.32-130.06-24.11-202.71-50.45-57.37-20.8-101.37-52.12-127.4-68.62-118.82-75.31-165.12-155.07-255.37-238.65-63.25-58.58-118.44-117.75-217.56-163.54C52.19,134.24-2.06,114.34-50.98,100.67c-90.46-25.28-188.61-14.61-263.57-28.69-29.38-5.4-54.24-12.48-60.05-28.3"/>
      <path class="cls-41" d="m1792.63,1164.29c-155.31-300.36-283.66-407.07-378.51-450.37-131.14-59.87-183.4,12.22-341.37-10.45-54.21-7.78-104.65-22.1-152.28-31.14-72.89-13.83-129.19-21.43-204.15-46.97-57.07-19.45-101.64-49.8-128.97-66.41-119.09-72.36-167.65-151.92-260.12-234.81-65.35-58.58-120.28-117.29-220.33-162.07C47.38,135.43-7.5,116.3-55.69,103.44c-92.4-24.67-191.71-10.66-264.6-23.76-28.54-5.13-51.96-12.04-54.37-28.63"/>
      <path class="cls-17" d="m1792.56,1175.82c-152.82-300.77-279.34-411.22-373.42-458.29-129.72-64.9-183.18,2.38-338.66-22.7-54.53-8.8-104.98-23.69-152.75-32.44-72.92-13.35-128.3-18.78-205.59-43.5-56.75-18.15-101.88-47.49-130.54-64.19-119.27-69.52-170.19-148.76-264.88-230.97-67.45-58.57-122.13-116.81-223.1-160.6-61.08-26.49-116.59-44.83-164.03-56.92-94.36-24.05-194.85-6.57-265.63-18.84-27.7-4.8-49.68-11.6-48.69-28.96"/>
      <path class="cls-6" d="m1792.5,1187.35c-150.33-301.18-275.02-415.37-368.32-466.21-128.3-69.91-182.96-7.53-335.94-34.95-54.86-9.83-105.31-25.29-153.22-33.74-72.95-12.87-127.37-16.16-207.02-40.03-56.39-16.89-102.12-45.2-132.11-61.98-119.36-66.79-172.74-145.59-269.63-227.14-69.57-58.55-123.98-116.31-225.88-159.14-62.64-26.33-118.79-43.85-165.48-55.2-96.34-23.41-197.99-2.47-266.66-13.91-26.87-4.48-47.4-11.16-43-29.29"/>
      <path class="cls-13" d="m1792.43,1198.88c-147.84-301.59-270.71-419.51-363.23-474.13-126.88-74.91-182.76-17.51-333.23-47.2-55.2-10.89-105.64-26.89-153.69-35.05-72.97-12.39-126.42-13.58-208.46-36.55-56.02-15.68-102.34-42.92-133.68-59.77-119.38-64.16-175.31-142.41-274.39-223.3-71.69-58.53-125.85-115.79-228.65-157.67-64.21-26.16-121-42.85-166.93-53.48-98.34-22.76-201.12,1.62-267.68-8.98-26.04-4.15-45.12-10.71-37.32-29.62"/>
      <path class="cls-40" d="m1792.37,1210.41c-145.35-302.01-266.4-423.63-358.13-482.05-125.47-79.89-182.56-27.58-330.52-59.45-55.54-11.96-105.96-28.48-154.16-36.35-73-11.92-125.44-11.04-209.9-33.08-55.62-14.51-102.55-40.66-135.25-57.55-119.34-61.62-177.88-139.21-279.14-219.46-73.82-58.5-127.73-115.25-231.42-156.2-65.78-25.98-123.23-41.83-168.37-51.76-100.36-22.08-204.26,5.71-268.71-4.06-25.21-3.82-42.83-10.27-31.63-29.95"/>
      <path class="cls-42" d="m1792.3,1221.94c-142.86-302.42-262.09-427.75-353.04-489.97-124.06-84.87-182.36-37.72-327.8-71.7-55.88-13.06-106.29-30.08-154.64-37.66-73.03-11.44-124.45-8.54-211.34-29.6-55.21-13.39-102.74-38.43-136.82-55.34-119.24-59.17-180.46-136.01-283.9-215.62-75.96-58.47-129.62-114.7-234.2-154.73-67.36-25.79-125.46-40.78-169.82-50.04-102.4-21.38-207.4,9.81-269.74.87-24.38-3.5-40.55-9.83-25.95-30.28"/>
      <path class="cls-24" d="m1792.24,1233.46c-140.37-302.83-257.79-431.86-347.94-497.88-122.66-89.83-182.15-47.93-325.09-83.95-56.23-14.17-106.62-31.68-155.11-38.96-73.06-10.96-123.43-6.08-212.78-26.13-54.79-12.29-102.93-36.21-138.39-53.12-119.11-56.8-183.05-132.8-288.65-211.78-78.1-58.42-131.51-114.13-236.97-153.27-68.94-25.59-127.7-39.71-171.26-48.32-104.45-20.66-210.53,13.9-270.77,5.8-23.55-3.17-38.27-9.39-20.27-30.61"/>
      <path class="cls-50" d="m1792.17,1244.99c-137.88-303.25-253.49-435.96-342.85-505.8-121.27-94.78-181.95-58.22-322.37-96.2-56.58-15.3-106.95-33.28-155.58-40.26-73.08-10.49-122.4-3.67-214.22-22.66-54.36-11.24-103.1-34.02-139.96-50.91-118.94-54.51-185.65-129.57-293.41-207.95-80.25-58.37-133.41-113.54-239.74-151.8-70.52-25.37-129.94-38.61-172.71-46.6-106.51-19.91-213.67,17.99-271.8,10.72-22.72-2.84-35.99-8.95-14.58-30.94"/>
      <path class="cls-49" d="m1792.11,1256.52c-135.39-303.66-249.2-440.06-337.76-513.72-119.89-99.73-181.73-68.58-319.66-108.45-56.93-16.46-107.28-34.88-156.05-41.57-73.11-10.02-121.35-1.31-215.66-19.18-53.91-10.22-103.26-31.85-141.53-48.7-118.74-52.28-188.26-126.34-298.16-204.11-82.41-58.31-135.31-112.94-242.52-150.33-72.11-25.15-132.2-37.49-174.15-44.89-108.59-19.13-216.81,22.08-272.83,15.65-21.89-2.51-33.71-8.51-8.9-31.27"/>
      <path class="cls-7" d="m1792.04,1268.05c-132.9-304.07-244.92-444.15-332.66-521.64-118.51-104.66-181.51-79-316.94-120.7-57.27-17.63-107.61-36.49-156.52-42.87-73.13-9.55-120.29,1-217.1-15.71-53.46-9.23-103.42-29.7-143.1-46.48-118.51-50.12-190.87-123.1-302.92-200.27-84.56-58.24-137.22-112.33-245.29-148.87C3.8,146.59-56.95,135.16-98.09,128.35c-110.68-18.33-219.95,26.18-273.85,20.58-21.06-2.19-31.43-8.07-3.21-31.6"/>
      <path class="cls-10" d="m1791.97,1279.58c-130.41-304.48-240.64-448.24-327.57-529.56-117.15-109.59-181.27-89.48-314.23-132.95-57.62-18.84-107.94-38.09-156.99-44.17-73.16-9.07-119.22,3.26-218.54-12.23-53-8.27-103.57-27.58-144.67-44.27-118.27-48.02-193.48-119.84-307.67-196.43-86.72-58.17-139.13-111.7-248.07-147.4C-1.06,147.89-62.48,137.37-102.8,131.12c-112.78-17.48-223.09,30.27-274.88,25.5-20.23-1.86-29.15-7.63,2.47-31.93"/>
      <path class="cls-5" d="m1791.91,1291.11c-127.92-304.9-236.37-452.32-322.47-537.48-115.79-114.52-181.02-100.03-311.52-145.2-57.95-20.06-108.26-39.69-157.47-45.48-73.18-8.61-118.15,5.46-219.98-8.76-52.54-7.34-103.7-25.49-146.24-42.06-118.02-45.98-196.1-116.58-312.43-192.59-88.89-58.08-141.04-111.06-250.84-145.93-76.89-24.43-138.99-34.02-178.49-39.73-114.89-16.61-226.23,34.36-275.91,30.43-19.4-1.53-26.87-7.19,8.15-32.26"/>
      <path class="cls-9" d="m1791.84,1302.64c-125.43-305.31-232.1-456.4-317.38-545.4-114.44-119.44-180.75-110.64-308.8-157.45-58.28-21.31-108.59-41.3-157.94-46.78-73.21-8.14-117.07,7.6-221.42-5.29-52.08-6.43-103.84-23.42-147.81-39.84-117.75-43.98-198.73-113.31-317.18-188.75-91.06-57.99-142.96-110.4-253.61-144.47-78.49-24.16-141.26-32.82-179.93-38.01-117.01-15.69-229.37,38.45-276.94,35.35-18.57-1.21-24.59-6.75,13.84-32.59"/>
      <path class="cls-43" d="m1791.78,1314.16c-122.94-305.72-227.85-460.47-312.28-553.31-113.1-124.36-180.47-121.3-306.09-169.7-58.61-22.58-108.92-42.9-158.41-48.08-73.24-7.67-115.98,9.68-222.86-1.81-51.62-5.55-103.96-21.38-149.38-37.63-117.48-42.04-201.35-110.03-321.94-184.92-93.23-57.9-144.87-109.74-256.39-143-80.09-23.89-143.53-31.61-181.38-36.29-119.14-14.73-232.51,42.54-277.97,40.28-17.74-.88-22.31-6.31,19.52-32.92"/>
      <path class="cls-36" d="m1791.71,1325.69c-120.45-306.13-223.59-464.55-307.19-561.23-111.77-129.27-180.16-132.01-303.37-181.95-58.92-23.88-109.25-44.51-158.88-49.39-73.26-7.2-114.9,11.7-224.3,1.66-51.16-4.69-104.08-19.36-150.95-35.41-117.21-40.14-203.98-106.75-326.69-181.08-95.4-57.79-146.79-109.06-259.16-141.53-81.7-23.61-145.81-30.38-182.83-34.57-121.28-13.73-235.65,46.63-279,45.21-16.91-.56-20.03-5.87,25.21-33.25"/>
      <path class="cls-2" d="m1791.65,1337.22c-117.96-306.55-219.35-468.62-302.1-569.15-110.45-134.18-179.83-142.78-300.66-194.2-59.22-25.2-109.57-46.11-159.35-50.69-73.29-6.74-113.82,13.65-225.73,5.14-50.7-3.86-104.19-17.38-152.52-33.2-116.94-38.29-206.61-103.45-331.44-177.24-97.58-57.68-148.71-108.37-261.93-140.07-83.3-23.32-148.09-29.14-184.27-32.85-123.43-12.68-238.79,50.72-280.02,50.13-16.08-.23-17.75-5.43,30.89-33.58"/>
      <path class="cls-1" d="m1791.58,1348.75c-115.47-306.96-215.11-472.69-297-577.07-109.13-139.1-179.47-153.59-297.94-206.45-59.51-26.55-109.9-47.72-159.82-51.99-73.31-6.28-112.75,15.54-227.17,8.61-50.24-3.04-104.3-15.42-154.09-30.99-116.67-36.47-209.25-100.15-336.2-173.4-99.76-57.57-150.64-107.67-264.71-138.6-84.91-23.02-150.37-27.88-185.72-31.13-125.58-11.57-241.94,54.81-281.05,55.06-15.25.1-15.47-4.99,36.57-33.91"/>
      <path class="cls-46" d="m1791.52,1360.28c-112.98-307.37-210.87-476.76-291.91-584.99-107.82-144.01-179.09-164.45-295.23-218.7-59.78-27.93-110.23-49.33-160.3-53.3-73.34-5.81-111.68,17.36-228.61,12.08-49.79-2.25-104.41-13.5-155.66-28.77-116.41-34.7-211.89-96.84-340.95-169.56-101.94-57.44-152.56-106.97-267.48-137.13-86.51-22.71-152.66-26.6-187.16-29.41-127.73-10.41-245.08,58.9-282.08,59.99-14.43.42-13.18-4.55,42.26-34.24"/>
      <path class="cls-18" d="m1791.45,1371.81c-110.49-307.78-206.65-480.83-286.81-592.91-106.52-148.92-178.68-175.34-292.52-230.95-60.04-29.33-110.56-50.94-160.77-54.6-73.36-5.35-110.62,19.11-230.05,15.56-49.35-1.47-104.51-11.6-157.23-26.56-116.16-32.96-214.52-93.52-345.71-165.73-104.12-57.31-154.48-106.25-270.25-135.66-88.12-22.39-154.94-25.31-188.61-27.7-129.89-9.19-248.23,62.99-283.11,64.91-13.6.75-10.9-4.11,47.94-34.57"/>
      <path class="cls-11" d="m1791.39,1383.34c-108-308.2-202.42-484.9-281.72-600.83-105.23-153.83-178.24-186.27-289.8-243.2-60.27-30.75-110.88-52.55-161.24-55.9-73.38-4.89-109.57,20.79-231.49,19.03-48.91-.71-104.61-9.74-158.8-24.35-115.92-31.25-217.16-90.19-350.46-161.89-106.31-57.18-156.4-105.52-273.03-134.2-89.73-22.06-157.22-24.01-190.05-25.98-132.04-7.9-251.38,67.08-284.14,69.84-12.78,1.08-8.62-3.67,53.63-34.9"/>
      <path class="cls-38" d="m1791.32,1394.87c-105.51-308.61-198.2-488.97-276.62-608.75-103.94-158.74-177.77-197.24-287.09-255.45-60.49-32.21-111.21-54.16-161.71-57.21-73.41-4.44-108.53,22.4-232.93,22.5-48.48.04-104.71-7.91-160.37-22.13-115.7-29.57-219.8-86.86-355.22-158.05-108.49-57.03-158.32-104.79-275.8-132.73-91.34-21.72-159.5-22.7-191.5-24.26-134.2-6.54-254.54,71.17-285.17,74.77-11.95,1.4-6.34-3.22,59.31-35.23"/>
      <path class="cls-20" d="m1791.26,1406.39c-103.02-309.02-193.99-493.05-271.53-616.66-102.65-163.66-177.26-208.24-284.37-267.7-60.69-33.69-111.54-55.77-162.18-58.51-73.43-3.98-107.51,23.94-234.37,25.98-48.06.77-104.81-6.11-161.94-19.92-115.48-27.92-222.44-83.53-359.97-154.21-110.68-56.89-160.24-104.05-278.57-131.26-92.95-21.38-161.78-21.37-192.94-22.54-136.35-5.11-257.69,75.27-286.19,79.69-11.13,1.73-4.06-2.78,64.99-35.56"/>
      <path class="cls-28" d="m1791.19,1417.92c-100.53-309.43-189.78-497.12-266.44-624.58-101.38-168.57-176.72-219.26-281.66-279.95-60.86-35.2-111.87-57.38-162.65-59.81-73.46-3.52-106.51,25.41-235.81,29.45-47.65,1.49-104.9-4.34-163.5-17.71-115.29-26.3-225.08-80.18-364.73-150.37-112.87-56.73-162.16-103.3-281.35-129.8-94.56-21.02-164.06-20.03-194.39-20.82-138.5-3.59-260.85,79.36-287.22,84.62-10.31,2.06-1.78-2.34,70.68-35.89"/>
      <path class="cls-21" d="m1791.12,1429.45c-98.04-309.85-185.58-501.19-261.34-632.5-100.1-173.49-176.15-230.31-278.94-292.2-61.01-36.73-112.19-58.99-163.13-61.12-73.48-3.07-105.53,26.8-237.25,32.93-47.25,2.2-105-2.6-165.07-15.49-115.12-24.71-227.72-76.83-369.48-146.54-115.06-56.57-164.08-102.54-284.12-128.33-96.16-20.66-166.34-18.68-195.83-19.1-140.64-1.98-264.02,83.46-288.25,89.55-9.49,2.39.5-1.9,76.36-36.23"/>
      <path class="cls-35" d="m1791.06,1440.98c-95.55-310.26-181.37-505.27-256.25-640.42-98.84-178.41-175.54-241.38-276.23-304.45-61.13-38.29-112.52-60.61-163.6-62.42-73.51-2.61-104.58,28.11-238.69,36.4-46.86,2.9-105.1-.89-166.64-13.28-114.96-23.14-230.36-73.48-374.24-142.7-117.24-56.41-166-101.77-286.9-126.86-97.77-20.29-168.61-17.33-197.28-17.38-142.77-.27-267.19,87.56-289.28,94.47-8.67,2.72,2.78-1.46,82.05-36.56"/>
      <path class="cls-23" d="m1790.99,1452.51c-93.06-310.67-177.17-509.34-251.15-648.34-97.57-183.33-174.89-252.47-273.52-316.7-61.22-39.87-112.85-62.22-164.07-63.73-73.54-2.16-103.65,29.36-240.13,39.87-46.48,3.58-105.2.78-168.21-11.06-114.83-21.59-233.01-70.12-378.99-138.86-119.43-56.24-167.91-101-289.67-125.4-99.38-19.91-170.88-15.96-198.72-15.66-144.89,1.54-270.36,91.66-290.31,99.4-7.86,3.05,5.06-1.02,87.73-36.89"/>
      <path class="cls-44" d="m1790.93,1464.04c-90.57-311.08-172.98-513.42-246.06-656.26-96.32-188.25-174.21-263.57-270.8-328.95-61.28-41.48-113.18-63.84-164.54-65.03-73.56-1.71-102.74,30.53-241.57,43.35-46.12,4.26-105.3,2.42-169.78-8.85-114.72-20.06-235.65-66.75-383.75-135.02-121.62-56.06-169.83-100.22-292.44-123.93-100.99-19.52-173.15-14.58-200.17-13.94-146.99,3.47-273.54,95.78-291.34,104.33-7.04,3.38,7.34-.58,93.41-37.22"/>
      <path class="cls-19" d="m1790.86,1475.57c-88.08-311.5-168.79-517.5-240.97-664.18-95.06-193.18-173.48-274.68-268.09-341.2-61.31-43.11-113.51-65.45-165.01-66.33-73.59-1.26-101.87,31.62-243.01,46.82-45.76,4.93-105.41,4.04-171.35-6.64-114.63-18.55-238.29-63.38-388.5-131.18-123.81-55.88-171.74-99.44-295.22-122.46-102.6-19.13-175.41-13.19-201.62-12.22-149.08,5.52-276.73,99.91-292.36,109.25-6.23,3.72,9.62-.14,99.1-37.55"/>
      <path class="cls-29" d="m1790.8,1487.09c-85.59-311.91-164.6-521.58-235.87-672.09-93.81-198.1-172.72-285.8-265.37-353.45-61.32-44.77-113.83-67.07-165.48-67.64-73.61-.81-101.03,32.64-244.44,50.3-45.43,5.59-105.52,5.62-172.92-4.42-114.57-17.06-240.93-60-393.26-127.34-126-55.7-173.65-98.65-297.99-121-104.21-18.73-177.66-11.8-203.06-10.5-151.13,7.7-279.91,104.05-293.39,114.18-5.42,4.07,11.9.3,104.78-37.88"/>
      <path class="cls-15" d="m1790.73,1498.62c-83.1-312.32-160.41-525.66-230.78-680.01-92.56-203.03-171.91-296.93-262.66-365.7-61.28-46.45-114.16-68.69-165.96-68.94-73.64-.36-100.22,33.59-245.88,53.77-45.1,6.25-105.63,7.16-174.49-2.21-114.53-15.59-243.56-56.62-398.01-123.51-128.19-55.51-175.56-97.85-300.76-119.53-105.81-18.32-179.91-10.4-204.51-8.79-153.16,10.03-283.09,108.21-294.42,119.11-4.61,4.42,14.18.74,110.47-38.21"/>
      <path class="cls-4" d="m1790.67,1510.15c-80.61-312.73-156.22-529.75-225.68-687.93-91.31-207.96-171.07-308.05-259.94-377.95-61.22-48.14-114.49-70.31-166.43-70.24-73.67.09-99.45,34.47-247.32,57.24-44.79,6.9-105.75,8.68-176.06,0-114.52-14.13-246.2-53.24-402.77-119.67-130.38-55.32-177.47-97.05-303.54-118.06-107.42-17.9-182.15-8.99-205.95-7.07-155.15,12.52-286.25,112.4-295.45,124.03-3.79,4.79,16.47,1.18,116.15-38.54"/>
      <path class="cls-32" d="m1790.6,1521.68c-78.12-313.15-152.04-533.83-220.59-695.85-90.07-212.9-170.18-319.18-257.23-390.2-61.11-49.86-114.82-72.03-166.9-71.55-73.69.39-98.72,35.27-248.76,60.72-44.5,7.55-105.88,10.17-177.63,2.22-114.54-12.69-248.84-49.85-407.52-115.83C179.4,256.07,132.59,214.94,5.66,194.59c-109.03-17.48-184.37-7.57-207.4-5.35-157.09,15.17-289.38,116.59-296.48,128.96-2.96,5.15,18.75,1.62,121.83-38.87"/>
      <path class="cls-37" d="m1790.54,1533.21c-75.63-313.56-147.86-537.92-215.49-703.77-88.83-217.83-169.26-330.3-254.52-402.45-60.98-51.6-115.15-73.63-167.37-72.85-73.72.86-98.03,36.01-250.2,64.19-44.22,8.19-106.01,11.63-179.2,4.43-114.59-11.27-251.48-46.46-412.28-111.99C176.71,255.85,130.2,215.33,2.39,195.64c-110.63-17.05-186.59-6.15-208.84-3.63-158.98,18.02-292.49,120.79-297.51,133.89-2.11,5.52,21.03,2.06,127.52-39.2"/>
      <path class="cls-14" d="m1790.47,1544.74c-73.14-313.97-143.98-541.89-210.4-711.69-87.98-222.62-168.29-341.42-251.8-414.7-60.8-53.35-115.48-75.24-167.84-74.15-73.75,1.33-97.37,36.68-251.64,67.67-43.96,8.83-106.15,13.06-180.77,6.64-114.66-9.85-254.11-43.06-417.03-108.15C174.03,255.64,127.81,215.73-.88,196.69c-112.24-16.61-188.8-4.72-210.29-1.91-160.81,21.06-295.57,124.97-298.53,138.81-1.26,5.88,23.31,2.5,133.2-39.53"/>
      <path class="cls-3" d="m1790.41,1556.27c-70.65-314.38-139.73-546.01-205.31-719.61-86.65-227.6-167.28-352.53-249.09-426.95-60.59-55.12-115.81-76.84-168.32-75.46-73.78,1.8-96.77,37.29-253.08,71.14-43.71,9.46-106.29,14.46-182.34,8.86-114.76-8.45-256.75-39.66-421.79-104.32C171.35,255.43,125.42,216.13-4.14,197.74c-113.84-16.16-191-3.29-211.73-.19-162.57,24.31-298.64,129.13-299.56,143.74-.4,6.24,25.59,2.94,138.89-39.86"/>
      <path class="cls-12" d="m1790.34,1567.79c-68.16-314.8-135.48-550.14-200.21-727.53-85.32-232.58-166.23-363.62-246.37-439.2-60.34-56.91-116.14-78.45-168.79-76.76-73.8,2.26-96.2,37.84-254.52,74.61-43.48,10.1-106.44,15.83-183.91,11.07-114.9-7.05-259.5-35.95-426.54-100.48C168.57,255.48,123.03,216.54-7.41,198.79c-115.44-15.71-193.18-1.86-213.18,1.53-164.23,27.8-301.69,133.26-300.59,148.66.47,6.58,27.87,3.38,144.57-40.19"/>
      <path class="cls-39" d="m1790.28,1579.32c-65.67-315.21-131.23-554.26-195.12-735.44-83.99-237.56-165.14-374.7-243.66-451.45-60.06-58.7-116.47-80.05-169.26-78.06-73.83,2.73-95.68,38.32-255.96,78.09-43.26,10.73-106.61,17.17-185.48,13.29-115.06-5.67-262.07-32.7-431.3-96.64C165.94,255.15,120.61,217.18-10.67,199.84c-117.07-15.06-195.34-.42-214.62,3.25-165.8,31.53-304.75,137.37-301.62,153.59,1.33,6.91,30.15,3.82,150.25-40.52"/>
      <path class="cls-25" d="m1790.21,1590.85c-210.33-1050.77-427.6-1293.93-600.7-1286.43-73.86,3.2-95.21,38.75-257.4,81.56-104.89,27.69-332.31,30.19-623.1-77.3C163.31,254.82,118.26,217.37-13.94,200.89c-118.64-14.79-197.49,1.02-216.07,4.97-167.25,35.53-307.82,141.47-302.65,158.52,2.2,7.24,32.43,4.26,155.94-40.85"/>
    </g>
  </g>
  <g class="cls-52">
    <g class="cls-53">
      <path class="cls-26" d="m200.01-306.33C622.94-234.56,812.44-74.63,907.14,60.16c64.5,91.81,99.76,162.83,203.06,280.87,31.98,36.55,218.58,212.31,443.63,197.13,186.02-12.55,226.11-135.01,373.95-136.55,104.44-1.09,254.44,59.94,439.64,355.35"/>
      <path class="cls-45" d="m2367.35,768.48c-182.71-295.82-330.95-360.56-434.55-363.27-146.51-3.44-187.36,115.1-371.23,124.3-51.48,2.58-100.99-4.61-147.09-16.8-72.54-19.24-136.29-51.66-188.32-85.19-57.84-37.28-97.51-75.61-111.71-90.76-106.21-113.29-140.85-186-207.82-277.03-42.88-58.29-101.12-121.01-189.82-178.2-42.95-27.7-91.47-53.98-146.69-77.55-72.46-30.93-157.23-55.68-253.29-77.96-37.69-8.73-77.05-16.88-116.89-24.99"/>
      <path class="cls-47" d="m2367.28,780.01c-180.22-296.23-326.68-364.95-429.45-371.19-145.15-8.81-186.83,106.13-368.52,112.05-51.65,1.68-101.32-6.22-147.56-18.1-72.57-18.77-135.91-48.9-189.75-81.71-58.07-35.38-98.02-73.29-113.27-88.54-108.71-108.7-143.17-182.95-212.57-273.19-44.85-58.33-102.73-120.81-192.59-176.74-44.41-27.64-93.44-53.41-148.14-75.83-74.12-30.37-160.37-51.57-254.32-73.03-36.86-8.4-74.77-16.44-111.21-25.32"/>
      <path class="cls-30" d="m2367.22,791.53c-177.73-296.64-322.41-369.2-424.36-379.1-143.79-13.97-186.35,97.08-365.8,99.8-51.84.79-101.65-7.82-148.03-19.41-72.59-18.3-135.47-46.14-191.19-78.24-58.23-33.54-98.5-70.95-114.84-86.33-110.84-104.29-145.52-179.88-217.33-269.36-46.85-58.37-104.38-120.57-195.37-175.27-45.87-27.58-95.43-52.81-149.58-74.11-75.82-29.82-163.51-47.47-255.34-68.1-36.02-8.06-72.48-16-105.53-25.65"/>
      <path class="cls-33" d="m2367.15,803.06c-175.24-297.06-318.13-373.44-419.26-387.02-142.42-19.12-185.9,87.97-363.09,87.55-52.05-.12-101.98-9.43-148.5-20.71-72.62-17.84-134.96-43.37-192.63-74.76-58.31-31.75-98.95-68.6-116.41-84.12-112.64-100.07-147.9-176.81-222.08-265.52C856.32.07,799.11-61.83,707.03-115.32c-47.35-27.5-97.46-52.17-151.03-72.39-77.55-29.27-166.65-43.36-256.37-63.18-35.19-7.73-70.2-15.56-99.84-25.98"/>
      <path class="cls-8" d="m2367.09,814.59c-172.75-297.47-313.84-377.68-414.17-394.94-141.04-24.26-185.49,78.78-360.37,75.3-52.27-1.04-102.31-11.03-148.97-22.01-72.65-17.37-134.41-40.59-194.07-71.29-58.33-30.01-99.36-66.24-117.98-81.9-114.16-96.03-150.3-173.74-226.84-261.68-50.87-58.45-107.76-120.02-200.91-172.34-48.84-27.43-99.51-51.5-152.47-70.67-79.31-28.72-169.78-39.25-257.4-58.25-34.36-7.4-67.92-15.12-94.16-26.31"/>
      <path class="cls-16" d="m2367.02,826.12c-170.26-297.88-309.54-381.91-409.08-402.86-139.64-29.39-185.12,69.51-357.66,63.05-52.51-1.96-102.66-12.54-149.45-23.32-72.71-16.75-133.8-37.81-195.51-67.82-58.29-28.34-99.75-63.87-119.55-79.69-115.41-92.18-152.72-170.65-231.59-257.84-52.9-58.48-109.49-119.7-203.69-170.87-50.34-27.34-101.58-50.78-153.92-68.95-81.1-28.16-172.92-35.14-258.43-53.32-33.53-7.07-65.64-14.68-88.47-26.64"/>
      <path class="cls-51" d="m2366.95,837.65c-167.77-298.29-305.24-386.13-403.98-410.78-138.24-34.51-184.77,60.16-354.94,50.8-52.76-2.9-102.99-14.13-149.92-24.62-72.74-16.26-133.14-35.04-196.95-64.34-58.2-26.72-100.12-61.51-121.12-77.47-116.44-88.49-155.16-167.55-236.35-254-54.95-58.51-111.24-119.36-206.46-169.4-51.85-27.25-103.67-50.03-155.36-67.23-82.92-27.6-176.06-31.04-259.46-48.4-32.7-6.73-63.36-14.24-82.79-26.98"/>
      <path class="cls-48" d="m2366.89,849.18c-165.28-298.71-300.93-390.34-398.89-418.7-136.83-39.61-184.45,50.73-352.23,38.55-53.02-3.85-103.32-15.72-150.39-25.92-72.77-15.77-132.43-32.28-198.39-60.87-58.05-25.16-100.46-59.15-122.69-75.26-117.27-84.98-157.62-164.45-241.1-250.17-57.01-58.54-113.02-118.99-209.24-167.94-53.36-27.15-105.78-49.24-156.81-65.51-84.77-27.03-179.19-26.93-260.49-43.47-31.87-6.4-61.08-13.8-77.11-27.31"/>
      <path class="cls-34" d="m2366.82,860.71c-162.79-299.12-296.61-394.54-393.79-426.62-135.41-44.7-184.16,41.22-349.52,26.3-53.3-4.81-103.66-17.32-150.86-27.23-72.8-15.29-131.68-29.54-199.83-57.39-57.87-23.65-100.78-56.8-124.26-73.05-117.93-81.61-160.11-161.33-245.86-246.33-59.08-58.56-114.81-118.6-212.01-166.47-54.89-27.03-107.91-48.42-158.25-63.8-86.64-26.46-182.33-22.82-261.51-38.54-31.04-6.07-58.8-13.36-71.42-27.64"/>
      <path class="cls-27" d="m2366.76,872.23c-160.3-299.53-292.3-398.72-388.7-434.53-133.99-49.77-183.89,31.64-346.8,14.05-53.6-5.78-103.99-18.91-151.33-28.53-72.83-14.8-130.89-26.81-201.27-53.92-57.64-22.2-101.09-54.45-125.83-70.83-118.44-78.39-162.6-158.2-250.61-242.49-61.16-58.57-116.62-118.18-214.78-165-56.43-26.91-110.06-47.57-159.7-62.08-88.54-25.88-185.47-18.72-262.54-33.62-30.21-5.73-56.52-12.92-65.74-27.97"/>
      <path class="cls-22" d="m2366.69,883.76c-157.81-299.94-287.98-402.9-383.6-442.45-132.56-54.83-183.64,21.97-344.09,1.8-53.9-6.77-104.32-20.5-151.8-29.83-72.86-14.32-130.06-24.11-202.71-50.45-57.37-20.8-101.37-52.12-127.4-68.62-118.82-75.31-165.12-155.07-255.37-238.65-63.25-58.58-118.44-117.75-217.56-163.54-57.97-26.78-112.22-46.68-161.14-60.36-90.46-25.28-188.61-14.61-263.57-28.69-29.38-5.4-54.24-12.48-60.05-28.3"/>
      <path class="cls-41" d="m2366.63,895.29c-155.31-300.36-283.66-407.07-378.51-450.37-131.14-59.87-183.4,12.22-341.37-10.45-54.21-7.78-104.65-22.1-152.28-31.14-72.89-13.83-129.19-21.43-204.15-46.97-57.07-19.45-101.64-49.8-128.97-66.41-119.09-72.36-167.65-151.92-260.12-234.81-65.35-58.58-120.28-117.29-220.33-162.07-59.52-26.64-114.4-45.77-162.59-58.64-92.4-24.67-191.71-10.66-264.6-23.76-28.54-5.13-51.96-12.04-54.37-28.63"/>
      <path class="cls-17" d="m2366.56,906.82c-152.82-300.77-279.34-411.22-373.42-458.29-129.72-64.9-183.18,2.38-338.66-22.7-54.53-8.8-104.98-23.69-152.75-32.44-72.92-13.35-128.3-18.78-205.59-43.5-56.75-18.15-101.88-47.49-130.54-64.19-119.27-69.52-170.19-148.76-264.88-230.97-67.45-58.57-122.13-116.81-223.1-160.6-61.08-26.49-116.59-44.83-164.03-56.92-94.36-24.05-194.85-6.57-265.63-18.84-27.7-4.8-49.68-11.6-48.69-28.96"/>
      <path class="cls-6" d="m2366.5,918.35c-150.33-301.18-275.02-415.37-368.32-466.21-128.3-69.91-182.96-7.53-335.94-34.95-54.86-9.83-105.31-25.29-153.22-33.74-72.95-12.87-127.37-16.16-207.02-40.03-56.39-16.89-102.12-45.2-132.11-61.98-119.36-66.79-172.74-145.59-269.63-227.14-69.57-58.55-123.98-116.31-225.88-159.14-62.64-26.33-118.79-43.85-165.48-55.2-96.34-23.41-197.99-2.47-266.66-13.91-26.87-4.48-47.4-11.16-43-29.29"/>
      <path class="cls-13" d="m2366.43,929.88c-147.84-301.59-270.71-419.51-363.23-474.13-126.88-74.91-182.76-17.51-333.23-47.2-55.2-10.89-105.64-26.89-153.69-35.05-72.97-12.39-126.42-13.58-208.46-36.55-56.02-15.68-102.34-42.92-133.68-59.77-119.38-64.16-175.31-142.41-274.39-223.3-71.69-58.53-125.85-115.79-228.65-157.67-64.21-26.16-121-42.85-166.93-53.48-98.34-22.76-201.12,1.62-267.68-8.98-26.04-4.15-45.12-10.71-37.32-29.62"/>
      <path class="cls-40" d="m2366.37,941.41c-145.35-302.01-266.4-423.63-358.13-482.05-125.47-79.89-182.56-27.58-330.52-59.45-55.54-11.96-105.96-28.48-154.16-36.35-73-11.92-125.44-11.04-209.9-33.08-55.62-14.51-102.55-40.66-135.25-57.55-119.34-61.62-177.88-139.21-279.14-219.46-73.82-58.5-127.73-115.25-231.42-156.2-65.78-25.98-123.23-41.83-168.37-51.76-100.36-22.08-204.26,5.71-268.71-4.06-25.21-3.82-42.83-10.27-31.63-29.95"/>
      <path class="cls-42" d="m2366.3,952.94c-142.86-302.42-262.09-427.75-353.04-489.97-124.06-84.87-182.36-37.72-327.8-71.7-55.88-13.06-106.29-30.08-154.64-37.66-73.03-11.44-124.45-8.54-211.34-29.6-55.21-13.39-102.74-38.43-136.82-55.34-119.24-59.17-180.46-136.01-283.9-215.62-75.96-58.47-129.62-114.7-234.2-154.73-67.36-25.79-125.46-40.78-169.82-50.04-102.4-21.38-207.4,9.81-269.74.87-24.38-3.5-40.55-9.83-25.95-30.28"/>
      <path class="cls-24" d="m2366.24,964.46c-140.37-302.83-257.79-431.86-347.94-497.88-122.66-89.83-182.15-47.93-325.09-83.95-56.23-14.17-106.62-31.68-155.11-38.96-73.06-10.96-123.43-6.08-212.78-26.13-54.79-12.29-102.93-36.21-138.39-53.12-119.11-56.8-183.05-132.8-288.65-211.78-78.1-58.42-131.51-114.13-236.97-153.27-68.94-25.59-127.7-39.71-171.26-48.32-104.45-20.66-210.53,13.9-270.77,5.8-23.55-3.17-38.27-9.39-20.27-30.61"/>
      <path class="cls-50" d="m2366.17,975.99c-137.88-303.25-253.49-435.96-342.85-505.8-121.27-94.78-181.95-58.22-322.37-96.2-56.58-15.3-106.95-33.28-155.58-40.26-73.08-10.49-122.4-3.67-214.22-22.66-54.36-11.24-103.1-34.02-139.96-50.91-118.94-54.51-185.65-129.57-293.41-207.95-80.25-58.37-133.41-113.54-239.74-151.8-70.52-25.37-129.94-38.61-172.71-46.6-106.51-19.91-213.67,17.99-271.8,10.72-22.72-2.84-35.99-8.95-14.58-30.94"/>
      <path class="cls-49" d="m2366.11,987.52c-135.39-303.66-249.2-440.06-337.76-513.72-119.89-99.73-181.73-68.58-319.66-108.45-56.93-16.46-107.28-34.88-156.05-41.57-73.11-10.02-121.35-1.31-215.66-19.18-53.91-10.22-103.26-31.85-141.53-48.7-118.74-52.28-188.26-126.34-298.16-204.11-82.41-58.31-135.31-112.94-242.52-150.33-72.11-25.15-132.2-37.49-174.15-44.89-108.59-19.13-216.81,22.08-272.83,15.65-21.89-2.51-33.71-8.51-8.9-31.27"/>
      <path class="cls-7" d="m2366.04,999.05c-132.9-304.07-244.92-444.15-332.66-521.64-118.51-104.66-181.51-79-316.94-120.7-57.27-17.63-107.61-36.49-156.52-42.87-73.13-9.55-120.29,1-217.1-15.71-53.46-9.23-103.42-29.7-143.1-46.48-118.51-50.12-190.87-123.1-302.92-200.27-84.56-58.24-137.22-112.33-245.29-148.87-73.7-24.92-134.45-36.35-175.6-43.17-110.68-18.33-219.95,26.18-273.85,20.58-21.06-2.19-31.43-8.07-3.21-31.6"/>
      <path class="cls-10" d="m2365.97,1010.58c-130.41-304.48-240.64-448.24-327.57-529.56-117.15-109.59-181.27-89.48-314.23-132.95-57.62-18.84-107.94-38.09-156.99-44.17-73.16-9.07-119.22,3.26-218.54-12.23-53-8.27-103.57-27.58-144.67-44.27-118.27-48.02-193.48-119.84-307.67-196.43-86.72-58.17-139.13-111.7-248.07-147.4-75.3-24.68-136.72-35.2-177.04-41.45-112.78-17.48-223.09,30.27-274.88,25.5-20.23-1.86-29.15-7.63,2.47-31.93"/>
      <path class="cls-5" d="m2365.91,1022.11c-127.92-304.9-236.37-452.32-322.47-537.48-115.79-114.52-181.02-100.03-311.52-145.2-57.95-20.06-108.26-39.69-157.47-45.48-73.18-8.61-118.15,5.46-219.98-8.76-52.54-7.34-103.7-25.49-146.24-42.06-118.02-45.98-196.1-116.58-312.43-192.59-88.89-58.08-141.04-111.06-250.84-145.93-76.89-24.43-138.99-34.02-178.49-39.73-114.89-16.61-226.23,34.36-275.91,30.43-19.4-1.53-26.87-7.19,8.15-32.26"/>
      <path class="cls-9" d="m2365.84,1033.64c-125.43-305.31-232.1-456.4-317.38-545.4-114.44-119.44-180.75-110.64-308.8-157.45-58.28-21.31-108.59-41.3-157.94-46.78-73.21-8.14-117.07,7.6-221.42-5.29-52.08-6.43-103.84-23.42-147.81-39.84-117.75-43.98-198.73-113.31-317.18-188.75-91.06-57.99-142.96-110.4-253.61-144.47-78.49-24.16-141.26-32.82-179.93-38.01-117.01-15.69-229.37,38.45-276.94,35.35-18.57-1.21-24.59-6.75,13.84-32.59"/>
      <path class="cls-43" d="m2365.78,1045.16c-122.94-305.72-227.85-460.47-312.28-553.31-113.1-124.36-180.47-121.3-306.09-169.7-58.61-22.58-108.92-42.9-158.41-48.08-73.24-7.67-115.98,9.68-222.86-1.81-51.62-5.55-103.96-21.38-149.38-37.63-117.48-42.04-201.35-110.03-321.94-184.92-93.23-57.9-144.87-109.74-256.39-143-80.09-23.89-143.53-31.61-181.38-36.29-119.14-14.73-232.51,42.54-277.97,40.28-17.74-.88-22.31-6.31,19.52-32.92"/>
      <path class="cls-36" d="m2365.71,1056.69c-120.45-306.13-223.59-464.55-307.19-561.23-111.77-129.27-180.16-132.01-303.37-181.95-58.92-23.88-109.25-44.51-158.88-49.39-73.26-7.2-114.9,11.7-224.3,1.66-51.16-4.69-104.08-19.36-150.95-35.41-117.21-40.14-203.98-106.75-326.69-181.08-95.4-57.79-146.79-109.06-259.16-141.53-81.7-23.61-145.81-30.38-182.83-34.57-121.28-13.73-235.65,46.63-279,45.21-16.91-.56-20.03-5.87,25.21-33.25"/>
      <path class="cls-2" d="m2365.65,1068.22c-117.96-306.55-219.35-468.62-302.1-569.15-110.45-134.18-179.83-142.78-300.66-194.2-59.22-25.2-109.57-46.11-159.35-50.69-73.29-6.74-113.82,13.65-225.73,5.14-50.7-3.86-104.19-17.38-152.52-33.2-116.94-38.29-206.61-103.45-331.44-177.24-97.58-57.68-148.71-108.37-261.93-140.07-83.3-23.32-148.09-29.14-184.27-32.85-123.43-12.68-238.79,50.72-280.02,50.13-16.08-.23-17.75-5.43,30.89-33.58"/>
      <path class="cls-1" d="m2365.58,1079.75c-115.47-306.96-215.11-472.69-297-577.07-109.13-139.1-179.47-153.59-297.94-206.45-59.51-26.55-109.9-47.72-159.82-51.99-73.31-6.28-112.75,15.54-227.17,8.61-50.24-3.04-104.3-15.42-154.09-30.99-116.67-36.47-209.25-100.15-336.2-173.4-99.76-57.57-150.64-107.67-264.71-138.6-84.91-23.02-150.37-27.88-185.72-31.13-125.58-11.57-241.94,54.81-281.05,55.06-15.25.1-15.47-4.99,36.57-33.91"/>
      <path class="cls-46" d="m2365.52,1091.28c-112.98-307.37-210.87-476.76-291.91-584.99-107.82-144.01-179.09-164.45-295.23-218.7-59.78-27.93-110.23-49.33-160.3-53.3-73.34-5.81-111.68,17.36-228.61,12.08-49.79-2.25-104.41-13.5-155.66-28.77-116.41-34.7-211.89-96.84-340.95-169.56-101.94-57.44-152.56-106.97-267.48-137.13-86.51-22.71-152.66-26.6-187.16-29.41-127.73-10.41-245.08,58.9-282.08,59.99-14.43.42-13.18-4.55,42.26-34.24"/>
      <path class="cls-18" d="m2365.45,1102.81c-110.49-307.78-206.65-480.83-286.81-592.91-106.52-148.92-178.68-175.34-292.52-230.95-60.04-29.33-110.56-50.94-160.77-54.6-73.36-5.35-110.62,19.11-230.05,15.56-49.35-1.47-104.51-11.6-157.23-26.56-116.16-32.96-214.52-93.52-345.71-165.73-104.12-57.31-154.48-106.25-270.25-135.66-88.12-22.39-154.94-25.31-188.61-27.7-129.89-9.19-248.23,62.99-283.11,64.91-13.6.75-10.9-4.11,47.94-34.57"/>
      <path class="cls-11" d="m2365.39,1114.34c-108-308.2-202.42-484.9-281.72-600.83-105.23-153.83-178.24-186.27-289.8-243.2-60.27-30.75-110.88-52.55-161.24-55.9-73.38-4.89-109.57,20.79-231.49,19.03-48.91-.71-104.61-9.74-158.8-24.35-115.92-31.25-217.16-90.19-350.46-161.89-106.31-57.18-156.4-105.52-273.03-134.2-89.73-22.06-157.22-24.01-190.05-25.98-132.04-7.9-251.38,67.08-284.14,69.84-12.78,1.08-8.62-3.67,53.63-34.9"/>
      <path class="cls-38" d="m2365.32,1125.87c-105.51-308.61-198.2-488.97-276.62-608.75-103.94-158.74-177.77-197.24-287.09-255.45-60.49-32.21-111.21-54.16-161.71-57.21-73.41-4.44-108.53,22.4-232.93,22.5-48.48.04-104.71-7.91-160.37-22.13-115.7-29.57-219.8-86.86-355.22-158.05-108.49-57.03-158.32-104.79-275.8-132.73-91.34-21.72-159.5-22.7-191.5-24.26-134.2-6.54-254.54,71.17-285.17,74.77-11.95,1.4-6.34-3.22,59.31-35.23"/>
      <path class="cls-20" d="m2365.26,1137.39c-103.02-309.02-193.99-493.05-271.53-616.66-102.65-163.66-177.26-208.24-284.37-267.7-60.69-33.69-111.54-55.77-162.18-58.51-73.43-3.98-107.51,23.94-234.37,25.98-48.06.77-104.81-6.11-161.94-19.92-115.48-27.92-222.44-83.53-359.97-154.21-110.68-56.89-160.24-104.05-278.57-131.26-92.95-21.38-161.78-21.37-192.94-22.54-136.35-5.11-257.69,75.27-286.19,79.69-11.13,1.73-4.06-2.78,64.99-35.56"/>
      <path class="cls-28" d="m2365.19,1148.92c-100.53-309.43-189.78-497.12-266.44-624.58-101.38-168.57-176.72-219.26-281.66-279.95-60.86-35.2-111.87-57.38-162.65-59.81-73.46-3.52-106.51,25.41-235.81,29.45-47.65,1.49-104.9-4.34-163.5-17.71-115.29-26.3-225.08-80.18-364.73-150.37-112.87-56.73-162.16-103.3-281.35-129.8-94.56-21.02-164.06-20.03-194.39-20.82C276.16-108.26,153.81-25.31,127.44-20.05c-10.31,2.06-1.78-2.34,70.68-35.89"/>
      <path class="cls-21" d="m2365.12,1160.45c-98.04-309.85-185.58-501.19-261.34-632.5-100.1-173.49-176.15-230.31-278.94-292.2-61.01-36.73-112.19-58.99-163.13-61.12-73.48-3.07-105.53,26.8-237.25,32.93-47.25,2.2-105-2.6-165.07-15.49-115.12-24.71-227.72-76.83-369.48-146.54-115.06-56.57-164.08-102.54-284.12-128.33-96.16-20.66-166.34-18.68-195.83-19.1C269.31-103.88,145.93-18.44,121.7-12.35c-9.49,2.39.5-1.9,76.36-36.23"/>
      <path class="cls-35" d="m2365.06,1171.98c-95.55-310.26-181.37-505.27-256.25-640.42-98.84-178.41-175.54-241.38-276.23-304.45-61.13-38.29-112.52-60.61-163.6-62.42-73.51-2.61-104.58,28.11-238.69,36.4-46.86,2.9-105.1-.89-166.64-13.28-114.96-23.14-230.36-73.48-374.24-142.7-117.24-56.41-166-101.77-286.9-126.86-97.77-20.29-168.61-17.33-197.28-17.38C262.46-99.4,138.05-11.58,115.96-4.66c-8.67,2.72,2.78-1.46,82.05-36.56"/>
      <path class="cls-23" d="m2364.99,1183.51c-93.06-310.67-177.17-509.34-251.15-648.34-97.57-183.33-174.89-252.47-273.52-316.7-61.22-39.87-112.85-62.22-164.07-63.73-73.54-2.16-103.65,29.36-240.13,39.87-46.48,3.58-105.2.78-168.21-11.06-114.83-21.59-233.01-70.12-378.99-138.86-119.43-56.24-167.91-101-289.67-125.4-99.38-19.91-170.88-15.96-198.72-15.66C255.63-94.82,130.16-4.7,110.22,3.04c-7.86,3.05,5.06-1.02,87.73-36.89"/>
      <path class="cls-44" d="m2364.93,1195.04c-90.57-311.08-172.98-513.42-246.06-656.26-96.32-188.25-174.21-263.57-270.8-328.95-61.28-41.48-113.18-63.84-164.54-65.03-73.56-1.71-102.74,30.53-241.57,43.35-46.12,4.26-105.3,2.42-169.78-8.85-114.72-20.06-235.65-66.75-383.75-135.02-121.62-56.06-169.83-100.22-292.44-123.93-100.99-19.52-173.15-14.58-200.17-13.94C248.82-90.13,122.27,2.18,104.48,10.73c-7.04,3.38,7.34-.58,93.41-37.22"/>
      <path class="cls-19" d="m2364.86,1206.57c-88.08-311.5-168.79-517.5-240.97-664.18-95.06-193.18-173.48-274.68-268.09-341.2-61.31-43.11-113.51-65.45-165.01-66.33-73.59-1.26-101.87,31.62-243.01,46.82-45.76,4.93-105.41,4.04-171.35-6.64-114.63-18.55-238.29-63.38-388.5-131.18-123.81-55.88-171.74-99.44-295.22-122.46-102.6-19.13-175.41-13.19-201.62-12.22C242.03-85.31,114.38,9.08,98.74,18.42c-6.23,3.72,9.62-.14,99.1-37.55"/>
      <path class="cls-29" d="m2364.8,1218.09c-85.59-311.91-164.6-521.58-235.87-672.09-93.81-198.1-172.72-285.8-265.37-353.45-61.32-44.77-113.83-67.07-165.48-67.64-73.61-.81-101.03,32.64-244.44,50.3-45.43,5.59-105.52,5.62-172.92-4.42-114.57-17.06-240.93-60-393.26-127.34-126-55.7-173.65-98.65-297.99-121-104.21-18.73-177.66-11.8-203.06-10.5C235.26-80.36,106.48,15.99,93,26.12c-5.42,4.07,11.9.3,104.78-37.88"/>
      <path class="cls-15" d="m2364.73,1229.62c-83.1-312.32-160.41-525.66-230.78-680.01-92.56-203.03-171.91-296.93-262.66-365.7-61.28-46.45-114.16-68.69-165.96-68.94-73.64-.36-100.22,33.59-245.88,53.77-45.1,6.25-105.63,7.16-174.49-2.21-114.53-15.59-243.56-56.62-398.01-123.51-128.19-55.51-175.56-97.85-300.76-119.53-105.81-18.32-179.91-10.4-204.51-8.79C228.52-75.26,98.6,22.92,87.26,33.81c-4.61,4.42,14.18.74,110.47-38.21"/>
      <path class="cls-4" d="m2364.67,1241.15c-80.61-312.73-156.22-529.75-225.68-687.93-91.31-207.96-171.07-308.05-259.94-377.95-61.22-48.14-114.49-70.31-166.43-70.24-73.67.09-99.45,34.47-247.32,57.24-44.79,6.9-105.75,8.68-176.06,0-114.52-14.13-246.2-53.24-402.77-119.67-130.38-55.32-177.47-97.05-303.54-118.06-107.42-17.9-182.15-8.99-205.95-7.07C221.82-70.01,90.72,29.87,81.52,41.51c-3.79,4.79,16.47,1.18,116.15-38.54"/>
      <path class="cls-32" d="m2364.6,1252.68c-78.12-313.15-152.04-533.83-220.59-695.85-90.07-212.9-170.18-319.18-257.23-390.2-61.11-49.86-114.82-72.03-166.9-71.55-73.69.39-98.72,35.27-248.76,60.72-44.5,7.55-105.88,10.17-177.63,2.22-114.54-12.69-248.84-49.85-407.52-115.83-132.57-55.12-179.37-96.25-306.31-116.6-109.03-17.48-184.37-7.57-207.4-5.35C215.17-64.58,82.87,36.83,75.78,49.2c-2.96,5.15,18.75,1.62,121.83-38.87"/>
      <path class="cls-37" d="m2364.54,1264.21c-75.63-313.56-147.86-537.92-215.49-703.77-88.83-217.83-169.26-330.3-254.52-402.45-60.98-51.6-115.15-73.63-167.37-72.85-73.72.86-98.03,36.01-250.2,64.19-44.22,8.19-106.01,11.63-179.2,4.43-114.59-11.27-251.48-46.46-412.28-111.99-134.76-54.92-181.28-95.44-309.08-115.13-110.63-17.05-186.59-6.15-208.84-3.63C208.56-58.97,75.05,43.8,70.04,56.9c-2.11,5.52,21.03,2.06,127.52-39.2"/>
      <path class="cls-14" d="m2364.47,1275.74c-73.14-313.97-143.98-541.89-210.4-711.69-87.98-222.62-168.29-341.42-251.8-414.7-60.8-53.35-115.48-75.24-167.84-74.15-73.75,1.33-97.37,36.68-251.64,67.67-43.96,8.83-106.15,13.06-180.77,6.64-114.66-9.85-254.11-43.06-417.03-108.15-136.95-54.71-183.18-94.62-311.86-113.66-112.24-16.61-188.8-4.72-210.29-1.91C202.02-53.16,67.26,50.75,64.3,64.59c-1.26,5.88,23.31,2.5,133.2-39.53"/>
      <path class="cls-3" d="m2364.41,1287.27c-70.65-314.38-139.73-546.01-205.31-719.61-86.65-227.6-167.28-352.53-249.09-426.95-60.59-55.12-115.81-76.84-168.32-75.46-73.78,1.8-96.77,37.29-253.08,71.14-43.71,9.46-106.29,14.46-182.34,8.86-114.76-8.45-256.75-39.66-421.79-104.32-139.14-54.51-185.07-93.8-314.63-112.19-113.84-16.16-191-3.29-211.73-.19C195.56-47.14,59.49,57.68,58.56,72.29c-.4,6.24,25.59,2.94,138.89-39.86"/>
      <path class="cls-12" d="m2364.34,1298.79c-68.16-314.8-135.48-550.14-200.21-727.53-85.32-232.58-166.23-363.62-246.37-439.2-60.34-56.91-116.14-78.45-168.79-76.76-73.8,2.26-96.2,37.84-254.52,74.61-43.48,10.1-106.44,15.83-183.91,11.07-114.9-7.05-259.5-35.95-426.54-100.48-141.42-54.04-186.97-92.97-317.4-110.73-115.44-15.71-193.18-1.86-213.18,1.53C189.18-40.88,51.72,64.58,52.82,79.98c.47,6.58,27.87,3.38,144.57-40.19"/>
      <path class="cls-39" d="m2364.28,1310.32c-65.67-315.21-131.23-554.26-195.12-735.44-83.99-237.56-165.14-374.7-243.66-451.45-60.06-58.7-116.47-80.05-169.26-78.06-73.83,2.73-95.68,38.32-255.96,78.09-43.26,10.73-106.61,17.17-185.48,13.29-115.06-5.67-262.07-32.7-431.3-96.64-143.56-53.95-188.89-91.92-320.18-109.26-117.07-15.06-195.34-.42-214.62,3.25C182.9-34.38,43.95,71.46,47.08,87.68c1.33,6.91,30.15,3.82,150.25-40.52"/>
      <path class="cls-25" d="m2364.21,1321.85C2153.88,271.08,1936.61,27.93,1763.51,35.42c-73.86,3.2-95.21,38.75-257.4,81.56-104.89,27.69-332.31,30.19-623.1-77.3-145.7-53.86-190.75-91.31-322.95-107.79-118.64-14.79-197.49,1.02-216.07,4.97C176.74-27.62,36.17,78.32,41.34,95.37c2.2,7.24,32.43,4.26,155.94-40.85"/>
    </g>
  </g>
</svg>