<?xml version="1.0" encoding="UTF-8"?>
<svg id="Layer_1" data-name="Layer 1" xmlns="http://www.w3.org/2000/svg" xmlns:xlink="http://www.w3.org/1999/xlink" viewBox="0 0 700 700">
  <defs>
    <style>
      .cls-1 {
        opacity: .88;
      }

      .cls-1, .cls-2, .cls-3, .cls-4, .cls-5, .cls-6, .cls-7, .cls-8, .cls-9, .cls-10, .cls-11, .cls-12, .cls-13, .cls-14, .cls-15, .cls-16, .cls-17, .cls-18, .cls-19, .cls-20, .cls-21, .cls-22, .cls-23, .cls-24, .cls-25, .cls-26, .cls-27, .cls-28, .cls-29, .cls-30, .cls-31, .cls-32, .cls-33, .cls-34, .cls-35, .cls-36, .cls-37, .cls-38, .cls-39, .cls-40, .cls-41, .cls-42, .cls-43, .cls-44, .cls-45, .cls-46, .cls-47, .cls-48, .cls-49, .cls-50, .cls-51, .cls-52, .cls-53, .cls-54, .cls-55, .cls-56, .cls-57, .cls-58, .cls-59, .cls-60, .cls-61, .cls-62, .cls-63, .cls-64, .cls-65, .cls-66, .cls-67, .cls-68, .cls-69, .cls-70, .cls-71, .cls-72, .cls-73, .cls-74, .cls-75, .cls-76, .cls-77, .cls-78, .cls-79, .cls-80, .cls-81, .cls-82, .cls-83, .cls-84, .cls-85, .cls-86, .cls-87, .cls-88, .cls-89, .cls-90, .cls-91, .cls-92 {
        fill: none;
      }

      .cls-1, .cls-2, .cls-3, .cls-4, .cls-5, .cls-6, .cls-7, .cls-8, .cls-9, .cls-10, .cls-11, .cls-12, .cls-13, .cls-14, .cls-15, .cls-16, .cls-17, .cls-18, .cls-19, .cls-20, .cls-21, .cls-22, .cls-23, .cls-24, .cls-25, .cls-26, .cls-27, .cls-28, .cls-29, .cls-30, .cls-31, .cls-32, .cls-33, .cls-34, .cls-35, .cls-36, .cls-37, .cls-38, .cls-39, .cls-40, .cls-41, .cls-42, .cls-43, .cls-44, .cls-45, .cls-46, .cls-47, .cls-48, .cls-49, .cls-50, .cls-51, .cls-52, .cls-53, .cls-54, .cls-56, .cls-57, .cls-58, .cls-59, .cls-60, .cls-61, .cls-62, .cls-63, .cls-64, .cls-65, .cls-66, .cls-67, .cls-68, .cls-69, .cls-70, .cls-71, .cls-72, .cls-73, .cls-74, .cls-75, .cls-76, .cls-77, .cls-78, .cls-79, .cls-80, .cls-81, .cls-82, .cls-83, .cls-84, .cls-85, .cls-86, .cls-87, .cls-88, .cls-89, .cls-90, .cls-91, .cls-92 {
        stroke: #fc612d;
      }

      .cls-1, .cls-2, .cls-3, .cls-4, .cls-5, .cls-6, .cls-7, .cls-8, .cls-9, .cls-10, .cls-11, .cls-12, .cls-13, .cls-14, .cls-15, .cls-16, .cls-17, .cls-18, .cls-19, .cls-20, .cls-21, .cls-22, .cls-23, .cls-24, .cls-25, .cls-26, .cls-27, .cls-29, .cls-30, .cls-31, .cls-32, .cls-33, .cls-34, .cls-35, .cls-36, .cls-37, .cls-38, .cls-39, .cls-40, .cls-41, .cls-42, .cls-43, .cls-44, .cls-45, .cls-46, .cls-47, .cls-48, .cls-49, .cls-50, .cls-51, .cls-52, .cls-53, .cls-54, .cls-56, .cls-57, .cls-58, .cls-59, .cls-60, .cls-61, .cls-62, .cls-63, .cls-64, .cls-65, .cls-66, .cls-67, .cls-68, .cls-69, .cls-70, .cls-71, .cls-72, .cls-73, .cls-74, .cls-75, .cls-76, .cls-77, .cls-78, .cls-79, .cls-80, .cls-81, .cls-82, .cls-83, .cls-84, .cls-85, .cls-86, .cls-87, .cls-88, .cls-89, .cls-90, .cls-91, .cls-92 {
        stroke-miterlimit: 10;
        stroke-width: 5px;
      }

      .cls-2 {
        opacity: .72;
      }

      .cls-3 {
        opacity: .87;
      }

      .cls-4 {
        opacity: .71;
      }

      .cls-5 {
        opacity: .77;
      }

      .cls-6 {
        opacity: .96;
      }

      .cls-7 {
        opacity: .43;
      }

      .cls-8 {
        opacity: .91;
      }

      .cls-9 {
        opacity: .66;
      }

      .cls-10 {
        opacity: .54;
      }

      .cls-11 {
        opacity: .63;
      }

      .cls-12 {
        opacity: .58;
      }

      .cls-13 {
        opacity: .42;
      }

      .cls-14 {
        opacity: .91;
      }

      .cls-15 {
        opacity: .67;
      }

      .cls-16 {
        opacity: .64;
      }

      .cls-17 {
        opacity: .76;
      }

      .cls-18 {
        opacity: .55;
      }

      .cls-19 {
        opacity: .97;
      }

      .cls-20 {
        opacity: .55;
      }

      .cls-21 {
        opacity: .63;
      }

      .cls-22 {
        opacity: .83;
      }

      .cls-23 {
        opacity: .47;
      }

      .cls-24 {
        opacity: .73;
      }

      .cls-25 {
        opacity: .54;
      }

      .cls-26 {
        opacity: .75;
      }

      .cls-27 {
        opacity: .59;
      }

      .cls-28 {
        opacity: .4;
        stroke-miterlimit: 10;
        stroke-width: 5px;
      }

      .cls-29 {
        opacity: .95;
      }

      .cls-30 {
        opacity: .89;
      }

      .cls-31 {
        opacity: .43;
      }

      .cls-32 {
        opacity: .52;
      }

      .cls-33 {
        opacity: .67;
      }

      .cls-34 {
        opacity: .75;
      }

      .cls-35 {
        opacity: .87;
      }

      .cls-93 {
        clip-path: url(#clippath-1);
      }

      .cls-36 {
        opacity: .79;
      }

      .cls-37 {
        opacity: .81;
      }

      .cls-38 {
        opacity: .92;
      }

      .cls-39 {
        opacity: .5;
      }

      .cls-94 {
        opacity: .4;
      }

      .cls-40 {
        opacity: .84;
      }

      .cls-41 {
        opacity: .44;
      }

      .cls-42 {
        opacity: .59;
      }

      .cls-43 {
        opacity: .36;
      }

      .cls-44 {
        opacity: .48;
      }

      .cls-45 {
        opacity: .71;
      }

      .cls-47 {
        opacity: .35;
      }

      .cls-48 {
        opacity: .48;
      }

      .cls-49 {
        opacity: .46;
      }

      .cls-95 {
        clip-path: url(#clippath);
      }

      .cls-50 {
        opacity: .52;
      }

      .cls-51 {
        opacity: .8;
      }

      .cls-52 {
        opacity: .88;
      }

      .cls-53 {
        opacity: .39;
      }

      .cls-54 {
        opacity: .95;
      }

      .cls-96 {
        fill: #141414;
      }

      .cls-56 {
        opacity: .51;
      }

      .cls-57 {
        opacity: .92;
      }

      .cls-58 {
        opacity: .4;
      }

      .cls-59 {
        opacity: .85;
      }

      .cls-60 {
        opacity: .47;
      }

      .cls-61 {
        opacity: .83;
      }

      .cls-62 {
        opacity: .89;
      }

      .cls-63 {
        opacity: .42;
      }

      .cls-64 {
        opacity: .62;
      }

      .cls-65 {
        opacity: .99;
      }

      .cls-66 {
        opacity: .69;
      }

      .cls-67 {
        opacity: .38;
      }

      .cls-68 {
        opacity: .97;
      }

      .cls-69 {
        opacity: .81;
      }

      .cls-70 {
        opacity: .69;
      }

      .cls-71 {
        opacity: .93;
      }

      .cls-72 {
        opacity: .77;
      }

      .cls-73 {
        opacity: .99;
      }

      .cls-74 {
        opacity: .56;
      }

      .cls-75 {
        opacity: .51;
      }

      .cls-76 {
        opacity: .58;
      }

      .cls-77 {
        opacity: .68;
      }

      .cls-78 {
        opacity: .85;
      }

      .cls-79 {
        opacity: .93;
      }

      .cls-80 {
        opacity: .96;
      }

      .cls-81 {
        opacity: .79;
      }

      .cls-82 {
        opacity: .66;
      }

      .cls-83 {
        opacity: .36;
      }

      .cls-84 {
        opacity: .73;
      }

      .cls-85 {
        opacity: .38;
      }

      .cls-86 {
        opacity: .46;
      }

      .cls-87 {
        opacity: .5;
      }

      .cls-88 {
        opacity: .39;
      }

      .cls-89 {
        opacity: .62;
      }

      .cls-90 {
        opacity: .6;
      }

      .cls-91 {
        opacity: .44;
      }

      .cls-92 {
        opacity: .68;
      }
    </style>
    <clipPath id="clippath">
      <rect class="cls-55" x="-1585.25" y="-.25" width="700" height="700"/>
    </clipPath>
    <clipPath id="clippath-1">
      <rect class="cls-55" x="-.25" y="-.25" width="700" height="701"/>
    </clipPath>
  </defs>
  <rect class="cls-96" x="-.25" y="-1.25" width="700" height="702"/>
  <g class="cls-95">
    <g class="cls-94">
      <path class="cls-47" d="m-1959.24-37.58c422.93,71.77,612.43,231.69,707.13,366.48,64.5,91.81,99.76,162.83,203.06,280.87,31.98,36.55,218.58,212.31,443.63,197.13,186.02-12.55,226.11-135.01,373.95-136.55,104.44-1.09,254.44,59.94,439.64,355.35"/>
      <path class="cls-83" d="m208.1,1037.23C25.39,741.41-122.85,676.67-226.45,673.96c-146.51-3.44-187.36,115.1-371.23,124.3-51.48,2.58-100.99-4.61-147.09-16.8-72.54-19.24-136.29-51.66-188.32-85.19-57.84-37.28-97.51-75.61-111.71-90.76-106.21-113.29-140.85-186-207.82-277.03-42.88-58.29-101.12-121.01-189.82-178.2-42.95-27.7-91.47-53.98-146.69-77.55-72.46-30.93-157.23-55.68-253.29-77.96-37.69-8.73-77.05-16.88-116.89-24.99"/>
      <path class="cls-85" d="m208.03,1048.76C27.81,752.52-118.65,683.81-221.42,677.57c-145.15-8.81-186.83,106.13-368.52,112.05-51.65,1.68-101.32-6.22-147.56-18.1-72.57-18.77-135.91-48.9-189.75-81.71-58.07-35.38-98.02-73.29-113.27-88.54-108.71-108.7-143.17-182.95-212.57-273.19-44.85-58.33-102.73-120.81-192.59-176.74-44.41-27.64-93.44-53.41-148.14-75.83-74.12-30.37-160.37-51.57-254.32-73.03-36.86-8.4-74.77-16.44-111.21-25.32"/>
      <path class="cls-53" d="m207.97,1060.28C30.24,763.64-114.44,691.08-216.39,681.18c-143.79-13.97-186.35,97.08-365.8,99.8-51.84.79-101.65-7.82-148.03-19.41-72.59-18.3-135.47-46.14-191.19-78.24-58.23-33.54-98.5-70.95-114.84-86.33-110.84-104.29-145.52-179.88-217.33-269.36-46.85-58.37-104.38-120.57-195.37-175.27-45.87-27.58-95.43-52.81-149.58-74.11-75.82-29.82-163.51-47.47-255.34-68.1-36.02-8.06-72.48-16-105.53-25.65"/>
      <path class="cls-58" d="m207.9,1071.81C32.66,774.76-110.23,698.37-211.36,684.79c-142.42-19.12-185.9,87.97-363.09,87.55-52.05-.12-101.98-9.43-148.5-20.71-72.62-17.84-134.96-43.37-192.63-74.76-58.31-31.75-98.95-68.6-116.41-84.12-112.64-100.07-147.9-176.81-222.08-265.52-48.85-58.41-106.06-120.31-198.14-173.8-47.35-27.5-97.46-52.17-151.03-72.39-77.55-29.27-166.65-43.36-256.37-63.18-35.19-7.73-70.2-15.56-99.84-25.98"/>
      <path class="cls-13" d="m207.84,1083.34C35.09,785.87-106,705.66-206.33,688.4c-141.04-24.26-185.49,78.78-360.37,75.3-52.27-1.04-102.31-11.03-148.97-22.01-72.65-17.37-134.41-40.59-194.07-71.29-58.33-30.01-99.36-66.24-117.98-81.9-114.16-96.03-150.3-173.74-226.84-261.68-50.87-58.45-107.76-120.02-200.91-172.34-48.84-27.43-99.51-51.5-152.47-70.67-79.31-28.72-169.78-39.25-257.4-58.25-34.36-7.4-67.92-15.12-94.16-26.31"/>
      <path class="cls-31" d="m207.77,1094.87C37.51,796.99-101.77,712.96-201.31,692.01c-139.64-29.39-185.12,69.51-357.66,63.05-52.51-1.96-102.66-12.54-149.45-23.32-72.71-16.75-133.8-37.81-195.51-67.82-58.29-28.34-99.75-63.87-119.55-79.69-115.41-92.18-152.72-170.65-231.59-257.84-52.9-58.48-109.49-119.7-203.69-170.87-50.34-27.34-101.58-50.78-153.92-68.95-81.1-28.16-172.92-35.14-258.43-53.32-33.53-7.07-65.64-14.68-88.47-26.64"/>
      <path class="cls-91" d="m207.7,1106.4C39.94,808.1-97.53,720.27-196.28,695.62c-138.24-34.51-184.77,60.16-354.94,50.8-52.76-2.9-102.99-14.13-149.92-24.62-72.74-16.26-133.14-35.04-196.95-64.34-58.2-26.72-100.12-61.51-121.12-77.47-116.44-88.49-155.16-167.55-236.35-254-54.95-58.51-111.24-119.36-206.46-169.4-51.85-27.25-103.67-50.03-155.36-67.23-82.92-27.6-176.06-31.04-259.46-48.4-32.7-6.73-63.36-14.24-82.79-26.98"/>
      <path class="cls-86" d="m207.64,1117.93C42.36,819.22-93.29,727.59-191.25,699.23c-136.83-39.61-184.45,50.73-352.23,38.55-53.02-3.85-103.32-15.72-150.39-25.92-72.77-15.77-132.43-32.28-198.39-60.87-58.05-25.16-100.46-59.15-122.69-75.26-117.27-84.98-157.62-164.45-241.1-250.17-57.01-58.54-113.02-118.99-209.24-167.94-53.36-27.15-105.78-49.24-156.81-65.51-84.77-27.03-179.19-26.93-260.49-43.47-31.87-6.4-61.08-13.8-77.11-27.31"/>
      <path class="cls-60" d="m207.57,1129.46C44.79,830.34-89.04,734.92-186.22,702.84c-135.41-44.7-184.16,41.22-349.52,26.3-53.3-4.81-103.66-17.32-150.86-27.23-72.8-15.29-131.68-29.54-199.83-57.39-57.87-23.65-100.78-56.8-124.26-73.05-117.93-81.61-160.11-161.33-245.86-246.33-59.08-58.56-114.81-118.6-212.01-166.47-54.89-27.03-107.91-48.42-158.25-63.8-86.64-26.46-182.33-22.82-261.51-38.54-31.04-6.07-58.8-13.36-71.42-27.64"/>
      <path class="cls-48" d="m207.51,1140.98C47.21,841.45-84.79,742.26-181.19,706.45c-133.99-49.77-183.89,31.64-346.8,14.05-53.6-5.78-103.99-18.91-151.33-28.53-72.83-14.8-130.89-26.81-201.27-53.92-57.64-22.2-101.09-54.45-125.83-70.83-118.44-78.39-162.6-158.2-250.61-242.49-61.16-58.57-116.62-118.18-214.78-165-56.43-26.91-110.06-47.57-159.7-62.08-88.54-25.88-185.47-18.72-262.54-33.62-30.21-5.73-56.52-12.92-65.74-27.97"/>
      <path class="cls-39" d="m207.44,1152.51C49.64,852.57-80.54,749.61-176.16,710.06c-132.56-54.83-183.64,21.97-344.09,1.8-53.9-6.77-104.32-20.5-151.8-29.83-72.86-14.32-130.06-24.11-202.71-50.45-57.37-20.8-101.37-52.12-127.4-68.62-118.82-75.31-165.12-155.07-255.37-238.65-63.25-58.58-118.44-117.75-217.56-163.54-57.97-26.78-112.22-46.68-161.14-60.36-90.46-25.28-188.61-14.61-263.57-28.69-29.38-5.4-54.24-12.48-60.05-28.3"/>
      <path class="cls-75" d="m207.38,1164.04C52.06,863.68-76.28,756.97-171.13,713.67c-131.14-59.87-183.4,12.22-341.37-10.45-54.21-7.78-104.65-22.1-152.28-31.14-72.89-13.83-129.19-21.43-204.15-46.97-57.07-19.45-101.64-49.8-128.97-66.41-119.09-72.36-167.65-151.92-260.12-234.81-65.35-58.58-120.28-117.29-220.33-162.07-59.52-26.64-114.4-45.77-162.59-58.64-92.4-24.67-191.71-10.66-264.6-23.76-28.54-5.13-51.96-12.04-54.37-28.63"/>
      <path class="cls-32" d="m207.31,1175.57C54.49,874.8-72.03,764.35-166.1,717.28c-129.72-64.9-183.18,2.38-338.66-22.7-54.53-8.8-104.98-23.69-152.75-32.44-72.92-13.35-128.3-18.78-205.59-43.5-56.75-18.15-101.88-47.49-130.54-64.19-119.27-69.52-170.19-148.76-264.88-230.97-67.45-58.57-122.13-116.81-223.1-160.6-61.08-26.49-116.59-44.83-164.03-56.92-94.36-24.05-194.85-6.57-265.63-18.84-27.7-4.8-49.68-11.6-48.69-28.96"/>
      <path class="cls-10" d="m207.25,1187.1C56.91,885.92-67.78,771.73-161.07,720.89c-128.3-69.91-182.96-7.53-335.94-34.95-54.86-9.83-105.31-25.29-153.22-33.74-72.95-12.87-127.37-16.16-207.02-40.03-56.39-16.89-102.12-45.2-132.11-61.98-119.36-66.79-172.74-145.59-269.63-227.14-69.57-58.55-123.98-116.31-225.88-159.14-62.64-26.33-118.79-43.85-165.48-55.2-96.34-23.41-197.99-2.47-266.66-13.91-26.87-4.48-47.4-11.16-43-29.29"/>
      <path class="cls-20" d="m207.18,1198.63C59.34,897.03-63.53,779.12-156.05,724.5c-126.88-74.91-182.76-17.51-333.23-47.2-55.2-10.89-105.64-26.89-153.69-35.05-72.97-12.39-126.42-13.58-208.46-36.55-56.02-15.68-102.34-42.92-133.68-59.77-119.38-64.16-175.31-142.41-274.39-223.3-71.69-58.53-125.85-115.79-228.65-157.67-64.21-26.16-121-42.85-166.93-53.48-98.34-22.76-201.12,1.62-267.68-8.98-26.04-4.15-45.12-10.71-37.32-29.62"/>
      <path class="cls-74" d="m207.12,1210.16C61.76,908.15-59.28,786.52-151.02,728.11c-125.47-79.89-182.56-27.58-330.52-59.45-55.54-11.96-105.96-28.48-154.16-36.35-73-11.92-125.44-11.04-209.9-33.08-55.62-14.51-102.55-40.66-135.25-57.55-119.34-61.62-177.88-139.21-279.14-219.46-73.82-58.5-127.73-115.25-231.42-156.2-65.78-25.98-123.23-41.83-168.37-51.76-100.36-22.08-204.26,5.71-268.71-4.06-25.21-3.82-42.83-10.27-31.63-29.95"/>
      <path class="cls-76" d="m207.05,1221.69C64.19,919.27-55.04,793.94-145.99,731.72c-124.06-84.87-182.36-37.72-327.8-71.7-55.88-13.06-106.29-30.08-154.64-37.66-73.03-11.44-124.45-8.54-211.34-29.6-55.21-13.39-102.74-38.43-136.82-55.34-119.24-59.17-180.46-136.01-283.9-215.62-75.96-58.47-129.62-114.7-234.2-154.73-67.36-25.79-125.46-40.78-169.82-50.04-102.4-21.38-207.4,9.81-269.74.87-24.38-3.5-40.55-9.83-25.95-30.28"/>
      <path class="cls-42" d="m206.99,1233.21C66.61,930.38-50.8,801.35-140.96,735.33c-122.66-89.83-182.15-47.93-325.09-83.95-56.23-14.17-106.62-31.68-155.11-38.96-73.06-10.96-123.43-6.08-212.78-26.13-54.79-12.29-102.93-36.21-138.39-53.12-119.11-56.8-183.05-132.8-288.65-211.78-78.1-58.42-131.51-114.13-236.97-153.27-68.94-25.59-127.7-39.71-171.26-48.32-104.45-20.66-210.53,13.9-270.77,5.8-23.55-3.17-38.27-9.39-20.27-30.61"/>
      <path class="cls-90" d="m206.92,1244.74C69.04,941.5-46.57,808.78-135.93,738.94c-121.27-94.78-181.95-58.22-322.37-96.2-56.58-15.3-106.95-33.28-155.58-40.26-73.08-10.49-122.4-3.67-214.22-22.66-54.36-11.24-103.1-34.02-139.96-50.91-118.94-54.51-185.65-129.57-293.41-207.95-80.25-58.37-133.41-113.54-239.74-151.8-70.52-25.37-129.94-38.61-172.71-46.6-106.51-19.91-213.67,17.99-271.8,10.72-22.72-2.84-35.99-8.95-14.58-30.94"/>
      <path class="cls-89" d="m206.86,1256.27C71.46,952.61-42.35,816.21-130.9,742.55c-119.89-99.73-181.73-68.58-319.66-108.45-56.93-16.46-107.28-34.88-156.05-41.57-73.11-10.02-121.35-1.31-215.66-19.18-53.91-10.22-103.26-31.85-141.53-48.7-118.74-52.28-188.26-126.34-298.16-204.11-82.41-58.31-135.31-112.94-242.52-150.33-72.11-25.15-132.2-37.49-174.15-44.89-108.59-19.13-216.81,22.08-272.83,15.65-21.89-2.51-33.71-8.51-8.9-31.27"/>
      <path class="cls-11" d="m206.79,1267.8C73.89,963.73-38.13,823.65-125.87,746.16c-118.51-104.66-181.51-79-316.94-120.7-57.27-17.63-107.61-36.49-156.52-42.87-73.13-9.55-120.29,1-217.1-15.71-53.46-9.23-103.42-29.7-143.1-46.48-118.51-50.12-190.87-123.1-302.92-200.27-84.56-58.24-137.22-112.33-245.29-148.87-73.7-24.92-134.45-36.35-175.6-43.17-110.68-18.33-219.95,26.18-273.85,20.58-21.06-2.19-31.43-8.07-3.21-31.6"/>
      <path class="cls-16" d="m206.72,1279.33C76.31,974.85-33.91,831.09-120.84,749.77c-117.15-109.59-181.27-89.48-314.23-132.95-57.62-18.84-107.94-38.09-156.99-44.17-73.16-9.07-119.22,3.26-218.54-12.23-53-8.27-103.57-27.58-144.67-44.27-118.27-48.02-193.48-119.84-307.67-196.43-86.72-58.17-139.13-111.7-248.07-147.4-75.3-24.68-136.72-35.2-177.04-41.45-112.78-17.48-223.09,30.27-274.88,25.5-20.23-1.86-29.15-7.63,2.47-31.93"/>
      <path class="cls-9" d="m206.66,1290.86C78.74,985.96-29.71,838.54-115.81,753.38c-115.79-114.52-181.02-100.03-311.52-145.2-57.95-20.06-108.26-39.69-157.47-45.48-73.18-8.61-118.15,5.46-219.98-8.76-52.54-7.34-103.7-25.49-146.24-42.06-118.02-45.98-196.1-116.58-312.43-192.59-88.89-58.08-141.04-111.06-250.84-145.93-76.89-24.43-138.99-34.02-178.49-39.73-114.89-16.61-226.23,34.36-275.91,30.43-19.4-1.53-26.87-7.19,8.15-32.26"/>
      <path class="cls-15" d="m206.59,1302.39C81.16,997.08-25.51,845.99-110.78,756.99c-114.44-119.44-180.75-110.64-308.8-157.45-58.28-21.31-108.59-41.3-157.94-46.78-73.21-8.14-117.07,7.6-221.42-5.29-52.08-6.43-103.84-23.42-147.81-39.84-117.75-43.98-198.73-113.31-317.18-188.75-91.06-57.99-142.96-110.4-253.61-144.47-78.49-24.16-141.26-32.82-179.93-38.01-117.01-15.69-229.37,38.45-276.94,35.35-18.57-1.21-24.59-6.75,13.84-32.59"/>
      <path class="cls-77" d="m206.53,1313.91C83.59,1008.19-21.32,853.44-105.76,760.6c-113.1-124.36-180.47-121.3-306.09-169.7-58.61-22.58-108.92-42.9-158.41-48.08-73.24-7.67-115.98,9.68-222.86-1.81-51.62-5.55-103.96-21.38-149.38-37.63-117.48-42.04-201.35-110.03-321.94-184.92-93.23-57.9-144.87-109.74-256.39-143-80.09-23.89-143.53-31.61-181.38-36.29-119.14-14.73-232.51,42.54-277.97,40.28-17.74-.88-22.31-6.31,19.52-32.92"/>
      <path class="cls-66" d="m206.46,1325.44C86.01,1019.31-17.13,860.9-100.73,764.21c-111.77-129.27-180.16-132.01-303.37-181.95-58.92-23.88-109.25-44.51-158.88-49.39-73.26-7.2-114.9,11.7-224.3,1.66-51.16-4.69-104.08-19.36-150.95-35.41-117.21-40.14-203.98-106.75-326.69-181.08-95.4-57.79-146.79-109.06-259.16-141.53-81.7-23.61-145.81-30.38-182.83-34.57-121.28-13.73-235.65,46.63-279,45.21-16.91-.56-20.03-5.87,25.21-33.25"/>
      <path class="cls-4" d="m206.4,1336.97C88.44,1030.43-12.95,868.35-95.7,767.82c-110.45-134.18-179.83-142.78-300.66-194.2-59.22-25.2-109.57-46.11-159.35-50.69-73.29-6.74-113.82,13.65-225.73,5.14-50.7-3.86-104.19-17.38-152.52-33.2-116.94-38.29-206.61-103.45-331.44-177.24-97.58-57.68-148.71-108.37-261.93-140.07-83.3-23.32-148.09-29.14-184.27-32.85-123.43-12.68-238.79,50.72-280.02,50.13-16.08-.23-17.75-5.43,30.89-33.58"/>
      <path class="cls-2" d="m206.33,1348.5C90.86,1041.54-8.78,875.81-90.67,771.43c-109.13-139.1-179.47-153.59-297.94-206.45-59.51-26.55-109.9-47.72-159.82-51.99-73.31-6.28-112.75,15.54-227.17,8.61-50.24-3.04-104.3-15.42-154.09-30.99-116.67-36.47-209.25-100.15-336.2-173.4-99.76-57.57-150.64-107.67-264.71-138.6-84.91-23.02-150.37-27.88-185.72-31.13-125.58-11.57-241.94,54.81-281.05,55.06-15.25.1-15.47-4.99,36.57-33.91"/>
      <path class="cls-84" d="m206.27,1360.03C93.29,1052.66-4.61,883.27-85.64,775.04c-107.82-144.01-179.09-164.45-295.23-218.7-59.78-27.93-110.23-49.33-160.3-53.3-73.34-5.81-111.68,17.36-228.61,12.08-49.79-2.25-104.41-13.5-155.66-28.77-116.41-34.7-211.89-96.84-340.95-169.56-101.94-57.44-152.56-106.97-267.48-137.13-86.51-22.71-152.66-26.6-187.16-29.41-127.73-10.41-245.08,58.9-282.08,59.99-14.43.42-13.18-4.55,42.26-34.24"/>
      <path class="cls-34" d="m206.2,1371.56C95.71,1063.77-.44,890.73-80.61,778.65c-106.52-148.92-178.68-175.34-292.52-230.95-60.04-29.33-110.56-50.94-160.77-54.6-73.36-5.35-110.62,19.11-230.05,15.56-49.35-1.47-104.51-11.6-157.23-26.56-116.16-32.96-214.52-93.52-345.71-165.73-104.12-57.31-154.48-106.25-270.25-135.66-88.12-22.39-154.94-25.31-188.61-27.7-129.89-9.19-248.23,62.99-283.11,64.91-13.6.75-10.9-4.11,47.94-34.57"/>
      <path class="cls-17" d="m206.14,1383.09C98.14,1074.89,3.71,898.18-75.58,782.26c-105.23-153.83-178.24-186.27-289.8-243.2-60.27-30.75-110.88-52.55-161.24-55.9-73.38-4.89-109.57,20.79-231.49,19.03-48.91-.71-104.61-9.74-158.8-24.35-115.92-31.25-217.16-90.19-350.46-161.89-106.31-57.18-156.4-105.52-273.03-134.2-89.73-22.06-157.22-24.01-190.05-25.98-132.04-7.9-251.38,67.08-284.14,69.84-12.78,1.08-8.62-3.67,53.63-34.9"/>
      <path class="cls-72" d="m206.07,1394.62C100.56,1086.01,7.87,905.64-70.55,785.87c-103.94-158.74-177.77-197.24-287.09-255.45-60.49-32.21-111.21-54.16-161.71-57.21-73.41-4.44-108.53,22.4-232.93,22.5-48.48.04-104.71-7.91-160.37-22.13-115.7-29.57-219.8-86.86-355.22-158.05-108.49-57.03-158.32-104.79-275.8-132.73-91.34-21.72-159.5-22.7-191.5-24.26-134.2-6.54-254.54,71.17-285.17,74.77-11.95,1.4-6.34-3.22,59.31-35.23"/>
      <path class="cls-36" d="m206.01,1406.14C102.99,1097.12,12.01,913.1-65.52,789.48c-102.65-163.66-177.26-208.24-284.37-267.7-60.69-33.69-111.54-55.77-162.18-58.51-73.43-3.98-107.51,23.94-234.37,25.98-48.06.77-104.81-6.11-161.94-19.92-115.48-27.92-222.44-83.53-359.97-154.21-110.68-56.89-160.24-104.05-278.57-131.26-92.95-21.38-161.78-21.37-192.94-22.54-136.35-5.11-257.69,75.27-286.19,79.69-11.13,1.73-4.06-2.78,64.99-35.56"/>
      <path class="cls-51" d="m205.94,1417.67C105.41,1108.24,16.16,920.55-60.5,793.09c-101.38-168.57-176.72-219.26-281.66-279.95-60.86-35.2-111.87-57.38-162.65-59.81-73.46-3.52-106.51,25.41-235.81,29.45-47.65,1.49-104.9-4.34-163.5-17.71-115.29-26.3-225.08-80.18-364.73-150.37-112.87-56.73-162.16-103.3-281.35-129.8-94.56-21.02-164.06-20.03-194.39-20.82-138.5-3.59-260.85,79.36-287.22,84.62-10.31,2.06-1.78-2.34,70.68-35.89"/>
      <path class="cls-37" d="m205.87,1429.2C107.84,1119.35,20.3,928.01-55.47,796.7c-100.1-173.49-176.15-230.31-278.94-292.2-61.01-36.73-112.19-58.99-163.13-61.12-73.48-3.07-105.53,26.8-237.25,32.93-47.25,2.2-105-2.6-165.07-15.49-115.12-24.71-227.72-76.83-369.48-146.54-115.06-56.57-164.08-102.54-284.12-128.33-96.16-20.66-166.34-18.68-195.83-19.1-140.64-1.98-264.02,83.46-288.25,89.55-9.49,2.39.5-1.9,76.36-36.23"/>
      <path class="cls-61" d="m205.81,1440.73C110.26,1130.47,24.44,935.46-50.44,800.31c-98.84-178.41-175.54-241.38-276.23-304.45-61.13-38.29-112.52-60.61-163.6-62.42-73.51-2.61-104.58,28.11-238.69,36.4-46.86,2.9-105.1-.89-166.64-13.28-114.96-23.14-230.36-73.48-374.24-142.7-117.24-56.41-166-101.77-286.9-126.86-97.77-20.29-168.61-17.33-197.28-17.38-142.77-.27-267.19,87.56-289.28,94.47-8.67,2.72,2.78-1.46,82.05-36.56"/>
      <path class="cls-40" d="m205.74,1452.26C112.69,1141.59,28.57,942.91-45.41,803.92c-97.57-183.33-174.89-252.47-273.52-316.7-61.22-39.87-112.85-62.22-164.07-63.73-73.54-2.16-103.65,29.36-240.13,39.87-46.48,3.58-105.2.78-168.21-11.06-114.83-21.59-233.01-70.12-378.99-138.86-119.43-56.24-167.91-101-289.67-125.4-99.38-19.91-170.88-15.96-198.72-15.66-144.89,1.54-270.36,91.66-290.31,99.4-7.86,3.05,5.06-1.02,87.73-36.89"/>
      <path class="cls-78" d="m205.68,1463.79C115.11,1152.7,32.7,950.37-40.38,807.53c-96.32-188.25-174.21-263.57-270.8-328.95-61.28-41.48-113.18-63.84-164.54-65.03-73.56-1.71-102.74,30.53-241.57,43.35-46.12,4.26-105.3,2.42-169.78-8.85-114.72-20.06-235.65-66.75-383.75-135.02-121.62-56.06-169.83-100.22-292.44-123.93-100.99-19.52-173.15-14.58-200.17-13.94-146.99,3.47-273.54,95.78-291.34,104.33-7.04,3.38,7.34-.58,93.41-37.22"/>
      <path class="cls-35" d="m205.61,1475.32C117.53,1163.82,36.83,957.82-35.35,811.14c-95.06-193.18-173.48-274.68-268.09-341.2-61.31-43.11-113.51-65.45-165.01-66.33-73.59-1.26-101.87,31.62-243.01,46.82-45.76,4.93-105.41,4.04-171.35-6.64-114.63-18.55-238.29-63.38-388.5-131.18-123.81-55.88-171.74-99.44-295.22-122.46-102.6-19.13-175.41-13.19-201.62-12.22-149.08,5.52-276.73,99.91-292.36,109.25-6.23,3.72,9.62-.14,99.1-37.55"/>
      <path class="cls-52" d="m205.55,1486.84C119.96,1174.94,40.95,965.26-30.32,814.75c-93.81-198.1-172.72-285.8-265.37-353.45-61.32-44.77-113.83-67.07-165.48-67.64-73.61-.81-101.03,32.64-244.44,50.3-45.43,5.59-105.52,5.62-172.92-4.42-114.57-17.06-240.93-60-393.26-127.34-126-55.7-173.65-98.65-297.99-121-104.21-18.73-177.66-11.8-203.06-10.5-151.13,7.7-279.91,104.05-293.39,114.18-5.42,4.07,11.9.3,104.78-37.88"/>
      <path class="cls-30" d="m205.48,1498.37C122.38,1186.05,45.07,972.71-25.29,818.36c-92.56-203.03-171.91-296.93-262.66-365.7-61.28-46.45-114.16-68.69-165.96-68.94-73.64-.36-100.22,33.59-245.88,53.77-45.1,6.25-105.63,7.16-174.49-2.21-114.53-15.59-243.56-56.62-398.01-123.51-128.19-55.51-175.56-97.85-300.76-119.53-105.81-18.32-179.91-10.4-204.51-8.79-153.16,10.03-283.09,108.21-294.42,119.11-4.61,4.42,14.18.74,110.47-38.21"/>
      <path class="cls-8" d="m205.42,1509.9C124.81,1197.17,49.19,980.15-20.26,821.97c-91.31-207.96-171.07-308.05-259.94-377.95-61.22-48.14-114.49-70.31-166.43-70.24-73.67.09-99.45,34.47-247.32,57.24-44.79,6.9-105.75,8.68-176.06,0-114.52-14.13-246.2-53.24-402.77-119.67-130.38-55.32-177.47-97.05-303.54-118.06-107.42-17.9-182.15-8.99-205.95-7.07-155.15,12.52-286.25,112.4-295.45,124.03-3.79,4.79,16.47,1.18,116.15-38.54"/>
      <path class="cls-57" d="m205.35,1521.43C127.23,1208.28,53.31,987.6-15.24,825.58c-90.07-212.9-170.18-319.18-257.23-390.2-61.11-49.86-114.82-72.03-166.9-71.55-73.69.39-98.72,35.27-248.76,60.72-44.5,7.55-105.88,10.17-177.63,2.22-114.54-12.69-248.84-49.85-407.52-115.83-132.57-55.12-179.37-96.25-306.31-116.6-109.03-17.48-184.37-7.57-207.4-5.35-157.09,15.17-289.38,116.59-296.48,128.96-2.96,5.15,18.75,1.62,121.83-38.87"/>
      <path class="cls-71" d="m205.29,1532.96C129.66,1219.4,57.43,995.04-10.21,829.19c-88.83-217.83-169.26-330.3-254.52-402.45-60.98-51.6-115.15-73.63-167.37-72.85-73.72.86-98.03,36.01-250.2,64.19-44.22,8.19-106.01,11.63-179.2,4.43-114.59-11.27-251.48-46.46-412.28-111.99-134.76-54.92-181.28-95.44-309.08-115.13-110.63-17.05-186.59-6.15-208.84-3.63-158.98,18.02-292.49,120.79-297.51,133.89-2.11,5.52,21.03,2.06,127.52-39.2"/>
      <path class="cls-29" d="m205.22,1544.49C132.08,1230.52,61.25,1002.59-5.18,832.8c-87.98-222.62-168.29-341.42-251.8-414.7-60.8-53.35-115.48-75.24-167.84-74.15-73.75,1.33-97.37,36.68-251.64,67.67-43.96,8.83-106.15,13.06-180.77,6.64-114.66-9.85-254.11-43.06-417.03-108.15-136.95-54.71-183.18-94.62-311.86-113.66-112.24-16.61-188.8-4.72-210.29-1.91-160.81,21.06-295.57,124.97-298.53,138.81-1.26,5.88,23.31,2.5,133.2-39.53"/>
      <path class="cls-6" d="m205.16,1556.02C134.51,1241.63,65.43,1010-.15,836.41c-86.65-227.6-167.28-352.53-249.09-426.95-60.59-55.12-115.81-76.84-168.32-75.46-73.78,1.8-96.77,37.29-253.08,71.14-43.71,9.46-106.29,14.46-182.34,8.86-114.76-8.45-256.75-39.66-421.79-104.32-139.14-54.51-185.07-93.8-314.63-112.19-113.84-16.16-191-3.29-211.73-.19-162.57,24.31-298.64,129.13-299.56,143.74-.4,6.24,25.59,2.94,138.89-39.86"/>
      <path class="cls-19" d="m205.09,1567.54C136.93,1252.75,69.61,1017.41,4.88,840.02c-85.32-232.58-166.23-363.62-246.37-439.2-60.34-56.91-116.14-78.45-168.79-76.76-73.8,2.26-96.2,37.84-254.52,74.61-43.48,10.1-106.44,15.83-183.91,11.07-114.9-7.05-259.5-35.95-426.54-100.48-141.42-54.04-186.97-92.97-317.4-110.73-115.44-15.71-193.18-1.86-213.18,1.53-164.23,27.8-301.69,133.26-300.59,148.66.47,6.58,27.87,3.38,144.57-40.19"/>
      <path class="cls-73" d="m205.03,1579.07C139.36,1263.86,73.8,1024.82,9.91,843.63c-83.99-237.56-165.14-374.7-243.66-451.45-60.06-58.7-116.47-80.05-169.26-78.06-73.83,2.73-95.68,38.32-255.96,78.09-43.26,10.73-106.61,17.17-185.48,13.29-115.06-5.67-262.07-32.7-431.3-96.64-143.56-53.95-188.89-91.92-320.18-109.26-117.07-15.06-195.34-.42-214.62,3.25-165.8,31.53-304.75,137.37-301.62,153.59,1.33,6.91,30.15,3.82,150.25-40.52"/>
      <path class="cls-46" d="m204.96,1590.6C-5.37,539.83-222.64,296.68-395.74,304.17c-73.86,3.2-95.21,38.75-257.4,81.56-104.89,27.69-332.31,30.19-623.1-77.3-145.7-53.86-190.75-91.31-322.95-107.79-118.64-14.79-197.49,1.02-216.07,4.97-167.25,35.53-307.82,141.47-302.65,158.52,2.2,7.24,32.43,4.26,155.94-40.85"/>
    </g>
  </g>
  <g class="cls-93">
    <g class="cls-94">
      <path class="cls-47" d="m-1385.24-309.02C-962.31-237.15-772.81-76.99-678.11,57.99c64.5,91.95,99.76,163.06,203.06,281.27,31.98,36.6,218.58,212.61,443.63,197.41,186.02-12.57,226.11-135.21,373.95-136.75,104.44-1.09,254.44,60.03,439.64,355.86"/>
      <path class="cls-43" d="m782.1,767.32c-182.71-296.24-330.95-361.06-434.54-363.78-146.5-3.44-187.35,115.28-371.22,124.48-51.74,2.59-101.49-4.7-147.78-17.02-72.52-19.37-136.23-51.9-188.18-85.49-57.55-37.21-97-75.4-111.15-90.52-106.21-113.45-140.86-186.27-207.83-277.43-42.87-58.35-101.08-121.14-189.74-178.41-42.94-27.74-91.45-54.05-146.66-77.66-72.47-30.99-157.28-55.79-253.37-78.11-37.69-8.74-77.06-16.91-116.92-25.04"/>
      <path class="cls-67" d="m782.03,778.87c-180.22-296.64-326.68-365.46-429.45-371.7-145.15-8.81-186.82,106.3-368.5,112.22-51.91,1.69-101.81-6.32-148.25-18.34-72.55-18.9-135.85-49.14-189.62-82.01-57.78-35.32-97.51-73.08-112.72-88.31-108.71-108.86-143.19-183.2-212.6-273.59-44.84-58.39-102.7-120.94-192.52-176.94-44.4-27.68-93.42-53.49-148.11-75.94-74.14-30.43-160.41-51.68-254.39-73.17-36.86-8.41-74.78-16.47-111.24-25.37"/>
      <path class="cls-88" d="m781.97,790.41c-177.72-297.05-322.4-369.71-424.35-379.62-143.78-13.97-186.33,97.26-365.77,99.96-52.1.78-102.14-7.94-148.72-19.65-72.57-18.43-135.41-46.37-191.06-78.53-57.94-33.48-97.99-70.75-114.28-86.1-110.85-104.45-145.55-180.13-217.37-269.74-46.84-58.44-104.35-120.71-195.29-175.47-45.86-27.61-95.41-52.89-149.55-74.22-75.83-29.88-163.55-47.56-255.42-68.24-36.03-8.08-72.5-16.03-105.55-25.7"/>
      <path class="cls-28" d="m781.9,801.96c-175.23-297.46-318.12-373.95-419.25-387.54C220.25,395.29,176.77,502.56-.4,502.11c-52.3-.13-102.47-9.56-149.19-20.97-72.6-17.96-134.91-43.59-192.5-75.04-58.03-31.69-98.44-68.41-115.85-83.89-112.66-100.22-147.93-177.05-222.14-265.9-48.84-58.48-106.02-120.45-198.07-174-47.34-27.54-97.44-52.25-151-72.5-77.56-29.33-166.69-43.45-256.45-63.31-35.2-7.74-70.22-15.59-99.87-26.03"/>
      <path class="cls-63" d="m781.84,813.5c-172.74-297.87-313.83-378.19-414.15-395.46-141.02-24.27-185.46,78.95-360.32,75.43-52.52-1.06-102.8-11.17-149.66-22.28-72.63-17.49-134.36-40.8-193.94-71.56-58.05-29.96-98.86-66.05-117.41-81.68-114.18-96.18-150.34-173.97-226.91-262.06-50.86-58.51-107.73-120.16-200.84-172.53-48.83-27.47-99.49-51.57-152.44-70.78-79.32-28.77-169.82-39.34-257.47-58.37-34.37-7.41-67.94-15.15-94.18-26.36"/>
      <path class="cls-7" d="m781.77,825.05c-170.25-298.28-309.53-382.42-409.06-403.38-139.62-29.41-185.08,69.68-357.6,63.17-52.76-1.99-103.15-12.7-150.13-23.59-72.69-16.86-133.75-38.02-195.39-68.08-58.01-28.29-99.26-63.7-118.98-79.47-115.44-92.32-152.77-170.87-231.68-258.21-52.9-58.55-109.46-119.84-203.62-171.07-50.33-27.38-101.56-50.85-153.89-69.05-81.11-28.21-172.96-35.22-258.5-53.44-33.54-7.08-65.66-14.71-88.5-26.69"/>
      <path class="cls-41" d="m781.7,836.59c-167.76-298.68-305.22-386.64-403.96-411.3-138.21-34.52-184.73,60.33-354.88,50.9-53.02-2.94-103.48-14.3-150.6-24.91-72.73-16.37-133.09-35.24-196.83-64.59-57.92-26.67-99.63-61.34-120.55-77.26-116.47-88.63-155.22-167.77-236.45-254.37-54.94-58.58-111.21-119.5-206.39-169.6-51.84-27.29-103.65-50.1-155.34-67.33-82.93-27.65-176.1-31.11-259.53-48.5-32.71-6.74-63.38-14.26-82.81-27.02"/>
      <path class="cls-49" d="m781.64,848.14c-165.27-299.09-300.91-390.84-398.86-419.22-136.79-39.63-184.4,50.9-352.15,38.64-53.28-3.89-103.81-15.91-151.07-26.22-72.76-15.88-132.39-32.48-198.27-61.11-57.78-25.11-99.97-58.99-122.11-75.05-117.31-85.1-157.69-164.66-241.22-250.53-57-58.6-112.98-119.13-209.17-168.13-53.36-27.18-105.76-49.31-156.78-65.61-84.78-27.08-179.23-27-260.55-43.57-31.88-6.41-61.1-13.82-77.13-27.35"/>
      <path class="cls-23" d="m781.57,859.68c-162.78-299.5-296.59-395.04-393.76-427.14-135.37-44.72-184.1,41.39-349.43,26.37-53.56-4.86-104.14-17.51-151.54-27.54-72.79-15.39-131.64-29.72-199.71-57.63-57.6-23.61-100.29-56.64-123.68-72.84-117.97-81.73-160.18-161.53-245.99-246.68-59.07-58.62-114.78-118.74-211.94-166.66-54.88-27.07-107.89-48.49-158.23-63.89-86.65-26.51-182.37-22.88-261.58-38.63-31.05-6.08-58.81-13.38-71.45-27.68"/>
      <path class="cls-44" d="m781.51,871.23c-160.28-299.91-292.27-399.23-388.67-435.06-133.94-49.79-183.83,31.8-346.7,14.11-53.86-5.85-104.47-19.12-152.01-28.85-72.82-14.91-130.85-26.99-201.16-54.15-57.37-22.16-100.6-54.3-125.24-70.63-118.48-78.5-162.69-158.4-250.76-242.84-61.15-58.63-116.58-118.32-214.72-165.2-56.42-26.95-110.04-47.64-159.67-62.17-88.55-25.92-185.5-18.77-262.61-33.7-30.22-5.75-56.53-12.94-65.76-28.01"/>
      <path class="cls-87" d="m781.44,882.77c-157.79-300.32-287.95-403.41-383.57-442.98-132.51-54.85-183.57,22.12-343.98,1.85-54.16-6.85-104.8-20.73-152.48-30.17-72.85-14.42-130.02-24.28-202.6-50.66-57.11-20.76-100.88-51.97-126.81-68.42-118.87-75.41-165.21-155.25-255.53-239-63.24-58.64-118.41-117.88-217.49-163.73-57.96-26.82-112.2-46.75-161.12-60.45-90.47-25.33-188.64-14.65-263.63-28.76-29.38-5.41-54.25-12.5-60.08-28.34"/>
      <path class="cls-56" d="m781.38,894.32c-155.3-300.72-283.62-407.57-378.47-450.9-131.09-59.89-183.33,12.37-341.26-10.42-54.47-7.86-105.13-22.34-152.95-31.48-72.88-13.93-129.16-21.59-204.04-47.18-56.82-19.42-101.15-49.65-128.38-66.21-119.14-72.45-167.74-152.1-260.3-235.15-65.34-58.64-120.25-117.42-220.27-162.26-59.51-26.68-114.38-45.83-162.57-58.72-92.41-24.72-191.75-10.7-264.66-23.83-28.54-5.14-51.97-12.06-54.39-28.67"/>
      <path class="cls-50" d="m781.31,905.86c-152.81-301.13-279.3-411.73-373.37-458.82-129.66-64.91-183.1,2.53-338.53-22.68-54.8-8.89-105.46-23.95-153.42-32.8-72.9-13.45-128.26-18.93-205.48-43.7-56.49-18.12-101.4-47.35-129.94-64-119.32-69.61-170.29-148.93-265.07-231.31-67.45-58.63-122.1-116.94-223.04-160.79-61.07-26.53-116.57-44.89-164.01-57-94.37-24.1-194.88-6.6-265.69-18.9-27.71-4.81-49.69-11.62-48.71-29"/>
      <path class="cls-25" d="m781.25,917.41c-150.32-301.54-274.98-415.87-368.28-466.75-128.23-69.93-182.89-7.38-335.81-34.94-55.13-9.94-105.79-25.56-153.89-34.11-72.93-12.97-127.34-16.31-206.92-40.22-56.14-16.87-101.64-45.07-131.51-61.79-119.41-66.87-172.85-145.75-269.84-227.47-69.57-58.61-123.96-116.44-225.82-159.32-62.63-26.37-118.77-43.92-165.46-55.28-96.35-23.46-198.02-2.5-266.71-13.96-26.88-4.48-47.41-11.17-43.02-29.33"/>
      <path class="cls-18" d="m781.18,928.95c-147.83-301.95-270.66-420-363.18-474.67-126.81-74.92-182.68-17.38-333.08-47.21-55.47-11-106.12-27.17-154.37-35.43-72.96-12.48-126.39-13.72-208.37-36.73-55.77-15.66-101.86-42.8-133.07-59.58-119.43-64.23-175.43-142.56-274.61-223.63-71.69-58.59-125.83-115.92-228.59-157.86-64.2-26.2-120.98-42.91-166.9-53.56-98.35-22.8-201.15,1.6-267.74-9.03-26.05-4.16-45.13-10.73-37.34-29.67"/>
      <path class="cls-74" d="m781.12,940.5c-145.34-302.35-266.35-424.13-358.08-482.59-125.39-79.91-182.47-27.45-330.36-59.47-55.81-12.08-106.44-28.78-154.84-36.74-72.99-12-125.41-11.17-209.81-33.25-55.38-14.49-102.07-40.54-134.64-57.37-119.39-61.69-178.01-139.36-279.38-219.78-73.82-58.56-127.7-115.39-231.37-156.39-65.77-26.01-123.21-41.89-168.35-51.84-100.37-22.12-204.29,5.7-268.77-4.09-25.22-3.83-42.85-10.29-31.65-30"/>
      <path class="cls-12" d="m781.05,952.04c-142.85-302.76-262.04-428.24-352.98-490.51-123.98-84.88-182.26-37.6-327.64-71.74-56.16-13.19-106.77-30.39-155.31-38.06-73.02-11.52-124.41-8.66-211.25-29.77-54.97-13.36-102.27-38.31-136.21-55.16-119.3-59.23-180.6-136.15-284.15-215.94-75.96-58.53-129.59-114.83-234.15-154.92-67.35-25.82-125.44-40.84-169.8-50.12-102.4-21.42-207.42,9.8-269.79.84-24.39-3.5-40.57-9.85-25.97-30.33"/>
      <path class="cls-27" d="m780.99,963.59c-140.35-303.17-257.73-432.35-347.89-498.43-122.58-89.84-182.06-47.82-324.91-84-56.51-14.31-107.1-32.01-155.78-39.37-73.04-11.05-123.4-6.19-212.69-26.29-54.55-12.27-102.46-36.1-137.77-52.95-119.17-56.86-183.2-132.93-288.92-212.1-78.1-58.48-131.48-114.26-236.92-153.45-68.93-25.62-127.68-39.76-171.24-48.4-104.45-20.7-210.56,13.9-270.82,5.78-23.55-3.17-38.28-9.41-20.28-30.66"/>
      <path class="cls-90" d="m780.92,975.13c-137.86-303.58-253.43-436.45-342.79-506.35-121.18-94.79-181.84-58.11-322.19-96.26-56.86-15.46-107.43-33.62-156.25-40.68-73.07-10.57-122.37-3.78-214.13-22.8-54.12-11.22-102.63-33.91-139.34-50.74-119-54.56-185.8-129.7-293.69-208.25-80.25-58.43-133.38-113.68-239.7-151.98-70.52-25.41-129.93-38.67-172.69-46.67-106.52-19.95-213.7,18-271.85,10.71-22.72-2.85-36-8.97-14.6-30.99"/>
      <path class="cls-64" d="m780.86,986.68c-135.37-303.99-249.14-440.54-337.69-514.27-119.79-99.73-181.63-68.48-319.46-108.53-57.21-16.62-107.75-35.24-156.72-42-73.1-10.09-121.32-1.41-215.58-19.32-53.68-10.2-102.8-31.75-140.9-48.53-118.8-52.33-188.41-126.46-298.46-204.41-82.4-58.37-135.28-113.08-242.47-150.52-72.1-25.19-132.18-37.55-174.13-44.95-108.59-19.17-216.83,22.1-272.87,15.65-21.89-2.52-33.72-8.53-8.91-31.32"/>
      <path class="cls-21" d="m780.79,998.22c-132.88-304.39-244.85-444.63-332.6-522.19-118.42-104.67-181.4-78.91-316.74-120.79-57.55-17.81-108.08-36.85-157.19-43.31-73.12-9.62-120.26.91-217.02-15.84-53.23-9.21-102.95-29.61-142.47-46.32-118.58-50.16-191.03-123.21-303.23-200.57-84.56-58.3-137.19-112.46-245.25-149.05-73.7-24.95-134.44-36.41-175.58-43.23-110.68-18.36-219.97,26.19-273.9,20.58-21.06-2.19-31.44-8.09-3.23-31.65"/>
      <path class="cls-16" d="m780.72,1009.77c-130.39-304.8-240.57-448.72-327.5-530.11-117.05-109.6-181.15-89.4-314.02-133.05-57.9-19.02-108.41-38.47-157.66-44.63-73.15-9.15-119.19,3.17-218.46-12.35-52.78-8.25-103.1-27.49-144.03-44.11-118.33-48.05-193.65-119.95-308-196.72-86.72-58.23-139.1-111.83-248.02-147.58-75.29-24.71-136.7-35.25-177.03-41.51-112.78-17.52-223.11,30.29-274.93,25.51-20.23-1.87-29.16-7.64,2.45-31.98"/>
      <path class="cls-82" d="m780.66,1021.31c-127.9-305.21-236.3-452.79-322.4-538.03-115.68-114.52-180.9-99.96-311.29-145.32-58.24-20.26-108.74-40.09-158.13-45.94-73.17-8.67-118.12,5.38-219.9-8.87-52.32-7.32-103.24-25.4-145.6-41.9-118.08-46-196.28-116.68-312.77-192.88-88.89-58.14-141.02-111.19-250.8-146.11-76.89-24.46-138.97-34.07-178.47-39.79-114.9-16.64-226.25,34.39-275.95,30.45-19.4-1.54-26.88-7.2,8.14-32.31"/>
      <path class="cls-33" d="m780.59,1032.86c-125.41-305.62-232.03-456.87-317.3-545.95-114.33-119.44-180.63-110.57-308.57-157.58-58.57-21.52-109.06-41.71-158.6-47.26-73.2-8.2-117.04,7.53-221.34-5.39-51.86-6.42-103.38-23.34-147.17-39.69-117.82-44.01-198.91-113.41-317.54-189.04-91.06-58.05-142.94-110.54-253.57-144.65-78.49-24.2-141.25-32.87-179.92-38.07-117.02-15.72-229.39,38.49-276.98,35.38-18.57-1.21-24.6-6.76,13.82-32.64"/>
      <path class="cls-92" d="m780.53,1044.4c-122.92-306.03-227.77-460.94-312.21-553.87-112.99-124.36-180.33-121.24-305.84-169.85-58.89-22.81-109.39-43.33-159.07-48.57-73.23-7.73-115.96,9.61-222.79-1.91-51.41-5.54-103.5-21.3-148.73-37.48-117.55-42.06-201.55-110.12-322.31-185.19-93.23-57.96-144.85-109.87-256.35-143.18-80.09-23.92-143.52-31.66-181.36-36.34-119.15-14.76-232.53,42.58-278.01,40.32-17.74-.88-22.32-6.32,19.51-32.97"/>
      <path class="cls-70" d="m780.46,1055.95c-120.42-306.43-223.52-465.01-307.11-561.79-111.65-129.27-180.02-131.97-303.12-182.11-59.21-24.12-109.72-44.95-159.54-49.89-73.25-7.27-114.87,11.64-224.23,1.58-50.95-4.69-103.63-19.29-150.3-35.27-117.28-40.16-204.18-106.83-327.08-181.35-95.4-57.85-146.77-109.2-259.12-141.71-81.69-23.64-145.8-30.42-182.81-34.62-121.29-13.76-235.67,46.68-279.03,45.25-16.91-.56-20.04-5.88,25.19-33.3"/>
      <path class="cls-45" d="m780.4,1067.5c-117.93-306.84-219.27-469.08-302.01-569.71-110.33-134.18-179.68-142.74-300.4-194.37-59.51-25.45-110.04-46.57-160.01-51.2-73.28-6.8-113.79,13.6-225.67,5.06-50.49-3.85-103.74-17.31-151.86-33.06-117.01-38.3-206.82-103.52-331.85-177.51-97.58-57.74-148.7-108.51-261.9-140.24-83.3-23.35-148.08-29.18-184.26-32.9-123.43-12.7-238.81,50.78-280.06,50.19-16.09-.23-17.75-5.44,30.88-33.63"/>
      <path class="cls-2" d="m780.33,1079.04c-115.44-307.25-215.03-473.15-296.91-577.64-109.01-139.09-179.32-153.57-297.67-206.64-59.8-26.81-110.37-48.19-160.48-52.52-73.3-6.33-112.72,15.49-227.11,8.54-50.04-3.04-103.85-15.36-153.43-30.86-116.74-36.48-209.47-100.21-336.62-173.67-99.76-57.63-150.62-107.81-264.67-138.77-84.9-23.05-150.36-27.92-185.7-31.18-125.58-11.6-241.96,54.88-281.09,55.12-15.26.1-15.47-5,36.56-33.96"/>
      <path class="cls-24" d="m780.27,1090.59c-112.95-307.66-210.79-477.22-291.82-585.56-107.69-144-178.93-164.43-294.95-218.9-60.07-28.2-110.7-49.81-160.95-53.83-73.33-5.87-111.65,17.32-228.56,12.02-49.59-2.25-103.96-13.44-155-28.65-116.48-34.7-212.11-96.9-341.39-169.82-101.94-57.5-152.54-107.1-267.45-137.31-86.51-22.74-152.65-26.64-187.15-29.46-127.74-10.43-245.1,58.97-282.11,60.06-14.43.42-13.19-4.56,42.25-34.29"/>
      <path class="cls-26" d="m780.2,1102.13c-110.46-308.06-206.56-481.29-286.72-593.48-106.39-148.91-178.51-175.34-292.22-231.16-60.33-29.62-111.02-51.43-161.42-55.15-73.35-5.4-110.59,19.07-230,15.51-49.15-1.47-104.07-11.55-156.56-26.44-116.23-32.95-214.76-93.57-346.16-165.98-104.12-57.37-154.46-106.38-270.22-135.84-88.12-22.42-154.93-25.35-188.59-27.74-129.89-9.21-248.25,63.07-283.14,64.99-13.6.75-10.91-4.11,47.93-34.63"/>
      <path class="cls-17" d="m780.14,1113.68c-107.97-308.47-202.34-485.35-281.62-601.4-105.09-153.82-178.07-186.28-289.5-243.43-60.56-31.06-111.35-53.06-161.89-56.46-73.38-4.94-109.54,20.76-231.44,18.99-48.72-.71-104.17-9.7-158.13-24.23-115.99-31.24-217.4-90.24-350.93-162.14-106.31-57.24-156.39-105.66-273-134.37-89.72-22.09-157.21-24.05-190.04-26.01-132.05-7.92-251.4,67.17-284.17,69.92-12.78,1.08-8.63-3.67,53.62-34.96"/>
      <path class="cls-5" d="m780.07,1125.22c-105.48-308.88-198.12-489.42-276.52-609.32-103.8-158.73-177.59-197.26-286.78-255.69-60.78-32.53-111.67-54.68-162.36-57.78-73.4-4.48-108.51,22.38-232.88,22.47-48.29.04-104.27-7.87-159.69-22.02-115.77-29.56-220.05-86.9-355.7-158.29-108.49-57.1-158.31-104.92-275.77-132.9-91.33-21.75-159.5-22.73-191.49-24.29-134.2-6.56-254.55,71.26-285.19,74.86-11.96,1.4-6.35-3.23,59.3-35.29"/>
      <path class="cls-81" d="m780.01,1136.77c-102.99-309.29-193.9-493.49-271.43-617.24-102.52-163.64-177.08-208.26-284.05-267.96-60.97-34.02-112-56.31-162.83-59.09-73.43-4.02-107.49,23.92-234.32,25.95-47.87.77-104.37-6.07-161.26-19.81-115.56-27.9-222.7-83.56-360.47-154.45-110.68-56.95-160.23-104.18-278.55-131.43-92.94-21.41-161.78-21.4-192.93-22.57-136.36-5.12-257.71,75.36-286.22,79.79-11.13,1.73-4.07-2.79,64.99-35.62"/>
      <path class="cls-51" d="m779.94,1148.31c-100.49-309.7-189.69-497.56-266.33-625.16-101.24-168.55-176.53-219.3-281.33-280.22-61.15-35.55-112.33-57.93-163.31-60.4-73.45-3.56-106.49,25.39-235.77,29.44-47.47,1.49-104.47-4.3-162.82-17.6-115.36-26.28-225.34-80.21-365.24-150.61-112.87-56.8-162.15-103.43-281.32-129.97-94.55-21.05-164.06-20.06-194.38-20.85-138.51-3.6-260.87,79.46-287.25,84.73-10.31,2.06-1.79-2.35,70.67-35.95"/>
      <path class="cls-69" d="m779.87,1159.86c-98-310.1-185.48-501.63-261.23-633.08-99.96-173.47-175.95-230.36-278.6-292.48-61.29-37.09-112.65-59.56-163.78-61.72-73.48-3.1-105.51,26.78-237.21,32.92-47.07,2.19-104.57-2.57-164.39-15.39-115.19-24.68-227.99-76.85-370.01-146.76-115.06-56.64-164.07-102.67-284.1-128.5-96.16-20.69-166.33-18.71-195.82-19.13-140.65-1.99-264.03,83.56-288.27,89.66-9.49,2.39.49-1.91,76.35-36.28"/>
      <path class="cls-22" d="m779.81,1171.4c-95.51-310.51-181.28-505.7-256.13-641-98.69-178.39-175.33-241.44-275.88-304.75-61.41-38.67-112.98-61.19-164.25-63.03-73.51-2.64-104.56,28.11-238.65,36.4-46.68,2.89-104.67-.87-165.96-13.18-115.03-23.11-230.64-73.49-374.78-142.92-117.24-56.47-165.99-101.91-286.87-127.03-97.77-20.32-168.61-17.35-197.27-17.41-142.78-.28-267.2,87.67-289.3,94.6-8.67,2.72,2.78-1.47,82.04-36.61"/>
      <path class="cls-40" d="m779.74,1182.95c-93.02-310.92-177.08-509.78-251.04-648.92-97.43-183.3-174.67-252.53-273.15-317.01-61.5-40.27-113.31-62.82-164.72-64.35-73.53-2.19-103.63,29.35-240.09,39.89-46.31,3.57-104.78.8-167.52-10.97-114.9-21.55-233.29-70.13-379.55-139.08-119.43-56.3-167.91-101.14-289.65-125.56-99.38-19.94-170.88-15.98-198.72-15.69-144.9,1.54-270.38,91.79-290.33,99.53-7.86,3.05,5.06-1.02,87.72-36.94"/>
      <path class="cls-59" d="m779.68,1194.49c-90.53-311.33-172.89-513.85-245.94-656.84-96.16-188.22-173.98-263.64-270.43-329.27-61.56-41.89-113.64-64.45-165.19-65.66-73.56-1.73-102.72,30.53-241.53,43.37-45.95,4.25-104.88,2.44-169.09-8.76-114.79-20.02-235.94-66.75-384.32-135.24-121.62-56.13-169.82-100.36-292.42-124.09-100.99-19.55-173.14-14.6-200.16-13.96C-1336.41-92.51-1462.96-.06-1480.76,8.49c-7.05,3.39,7.34-.58,93.41-37.27"/>
      <path class="cls-3" d="m779.61,1206.04c-88.04-311.74-168.69-517.93-240.84-664.76-94.91-193.15-173.24-274.77-267.71-341.54-61.59-43.54-113.96-66.08-165.66-66.98-73.58-1.28-101.85,31.62-242.98,46.85-45.6,4.92-104.99,4.05-170.65-6.55-114.71-18.51-238.58-63.38-389.09-131.39-123.81-55.95-171.73-99.57-295.2-122.63-102.6-19.16-175.4-13.21-201.61-12.24-149.08,5.52-276.74,100.04-292.38,109.4-6.23,3.73,9.62-.14,99.09-37.6"/>
      <path class="cls-1" d="m779.55,1217.58c-85.55-312.14-164.5-522.01-235.74-672.68-93.65-198.07-172.47-285.9-264.98-353.8-61.59-45.21-114.29-67.71-166.13-68.29-73.61-.83-101.01,32.65-244.42,50.33-45.26,5.58-105.1,5.62-172.22-4.34-114.65-17.02-241.23-59.99-393.86-127.55-126-55.77-173.65-98.78-297.98-121.16-104.21-18.75-177.66-11.82-203.06-10.52-151.14,7.71-279.92,104.19-293.41,114.33-5.42,4.08,11.9.3,104.78-37.93"/>
      <path class="cls-62" d="m779.48,1229.13c-83.05-312.55-160.31-526.09-230.65-680.6-92.4-203-171.66-297.03-262.26-366.07-61.55-46.9-114.62-69.34-166.6-69.61-73.64-.38-100.21,33.6-245.86,53.82-44.94,6.24-105.22,7.17-173.79-2.13-114.61-15.54-243.88-56.61-398.63-123.71-128.19-55.58-175.55-97.99-300.75-119.69-105.81-18.34-179.9-10.41-204.5-8.8-153.17,10.04-283.09,108.36-294.43,119.27-4.61,4.43,14.18.74,110.46-38.26"/>
      <path class="cls-14" d="m779.42,1240.67c-80.56-312.96-156.13-530.17-225.55-688.52-91.16-207.93-170.8-308.17-259.53-378.33-61.48-48.62-114.94-70.97-167.07-70.92-73.66.08-99.44,34.49-247.3,57.3-44.64,6.89-105.34,8.68-175.35.08-114.61-14.08-246.52-53.22-403.4-119.86-130.38-55.39-177.46-97.19-303.53-118.22-107.42-17.93-182.14-9-205.95-7.08-155.15,12.53-286.25,112.55-295.46,124.2-3.79,4.79,16.46,1.18,116.15-38.59"/>
      <path class="cls-38" d="m779.35,1252.22c-78.07-313.37-151.94-534.25-220.45-696.45-89.91-212.86-169.91-319.3-256.81-390.59-61.38-50.35-115.27-72.71-167.54-72.24-73.69.38-98.71,35.3-248.74,60.78-44.35,7.53-105.47,10.17-176.92,2.29-114.63-12.64-249.17-49.82-408.17-116.02-132.57-55.19-179.37-96.38-306.3-116.76-109.03-17.5-184.37-7.58-207.39-5.36-157.1,15.19-289.39,116.75-296.49,129.14-2.96,5.16,18.74,1.62,121.83-38.92"/>
      <path class="cls-79" d="m779.29,1263.76c-75.58-313.78-147.76-538.33-215.35-704.37-88.67-217.8-168.97-330.43-254.09-402.86-61.23-52.1-115.6-74.33-168.01-73.55-73.72.85-98.02,36.04-250.19,64.26-44.07,8.17-105.6,11.62-178.48,4.5-114.67-11.21-251.81-46.42-412.94-112.18-134.76-54.99-181.27-95.57-309.08-115.29-110.63-17.07-186.59-6.16-208.84-3.63-158.99,18.04-292.5,120.95-297.51,134.07-2.11,5.53,21.02,2.06,127.52-39.26"/>
      <path class="cls-54" d="m779.22,1275.31c-73.09-314.18-143.88-542.3-210.26-712.29-87.82-222.58-167.99-341.56-251.36-415.12-61.05-53.87-115.93-75.95-168.48-74.87-73.75,1.32-97.37,36.72-251.63,67.75-43.81,8.81-105.74,13.05-180.05,6.71-114.75-9.79-254.45-43.02-417.71-108.33-136.95-54.79-183.17-94.75-311.85-113.82-112.23-16.63-188.8-4.73-210.29-1.91-160.82,21.09-295.58,125.14-298.54,139.01-1.26,5.89,23.31,2.51,133.2-39.59"/>
      <path class="cls-80" d="m779.16,1286.85c-70.6-314.59-139.63-546.42-205.16-720.21-86.49-227.56-166.97-352.67-248.64-427.38-60.84-55.66-116.26-77.57-168.95-76.18-73.77,1.79-96.76,37.33-253.07,71.23-43.57,9.45-105.89,14.45-181.61,8.92-114.86-8.38-257.1-39.61-422.48-104.49-139.14-54.58-185.07-93.93-314.63-112.35-113.84-16.19-191-3.3-211.73-.19-162.57,24.35-298.64,129.31-299.57,143.94-.4,6.25,25.59,2.95,138.88-39.92"/>
      <path class="cls-68" d="m779.09,1298.4c-68.11-315-135.38-550.54-200.06-728.13-85.15-232.54-165.92-363.78-245.91-439.65-60.58-57.46-116.59-79.19-169.42-77.49-73.8,2.26-96.2,37.88-254.51,74.71-43.34,10.08-106.05,15.82-183.18,11.13-114.99-6.99-259.85-35.9-427.25-100.65-141.42-54.11-186.97-93.11-317.4-110.88-115.44-15.73-193.18-1.86-213.18,1.53-164.24,27.84-301.69,133.45-300.59,148.88.47,6.59,27.87,3.39,144.57-40.25"/>
      <path class="cls-65" d="m779.03,1309.94c-65.62-315.41-131.13-554.66-194.97-736.05-83.82-237.52-164.82-374.87-243.19-451.91-60.29-59.27-116.91-80.81-169.89-78.81-73.83,2.73-95.68,38.37-255.96,78.19-43.13,10.72-106.21,17.16-184.75,13.34-115.16-5.6-262.43-32.64-432.02-96.8-143.56-54.02-188.89-92.05-320.18-109.42-117.07-15.08-195.34-.42-214.62,3.25-165.8,31.58-304.75,137.57-301.62,153.81,1.33,6.92,30.15,3.83,150.25-40.58"/>
      <path class="cls-46" d="m778.96,1321.49C568.63,269.21,351.36,25.71,178.26,33.22c-73.86,3.2-95.21,38.8-257.4,81.68-104.89,27.73-332.31,30.24-623.1-77.41-145.7-53.94-190.75-91.44-322.95-107.95-118.64-14.81-197.49,1.02-216.07,4.97-167.25,35.58-307.82,141.67-302.65,158.74,2.2,7.25,32.43,4.27,155.94-40.91"/>
    </g>
  </g>
</svg>