<?xml version="1.0" encoding="UTF-8"?>
<svg id="Layer_1" data-name="Layer 1" xmlns="http://www.w3.org/2000/svg" xmlns:xlink="http://www.w3.org/1999/xlink" viewBox="0 0 1920 1080">
  <defs>
    <style>
      .cls-1, .cls-2, .cls-3, .cls-4, .cls-5, .cls-6, .cls-7, .cls-8, .cls-9, .cls-10, .cls-11, .cls-12, .cls-13, .cls-14, .cls-15, .cls-16, .cls-17, .cls-18, .cls-19, .cls-20, .cls-21, .cls-22, .cls-23, .cls-24, .cls-25, .cls-26, .cls-27, .cls-28, .cls-29, .cls-30, .cls-31, .cls-32, .cls-33, .cls-34, .cls-35, .cls-36, .cls-37, .cls-38, .cls-39, .cls-40, .cls-41, .cls-42, .cls-43, .cls-44, .cls-45, .cls-46, .cls-47, .cls-48, .cls-49, .cls-50, .cls-51, .cls-52, .cls-53, .cls-54, .cls-55, .cls-56, .cls-57, .cls-58, .cls-59, .cls-60, .cls-61, .cls-62, .cls-63, .cls-64, .cls-65, .cls-66, .cls-67, .cls-68, .cls-69, .cls-70, .cls-71, .cls-72, .cls-73, .cls-74, .cls-75, .cls-76, .cls-77, .cls-78, .cls-79, .cls-80, .cls-81, .cls-82, .cls-83, .cls-84, .cls-85, .cls-86, .cls-87, .cls-88, .cls-89, .cls-90, .cls-91, .cls-92, .cls-93, .cls-94, .cls-95, .cls-96, .cls-97, .cls-98, .cls-99 {
        fill: none;
      }

      .cls-1, .cls-2, .cls-3, .cls-4, .cls-5, .cls-6, .cls-7, .cls-8, .cls-9, .cls-10, .cls-11, .cls-12, .cls-13, .cls-14, .cls-15, .cls-16, .cls-17, .cls-18, .cls-19, .cls-20, .cls-21, .cls-22, .cls-23, .cls-24, .cls-25, .cls-26, .cls-27, .cls-28, .cls-29, .cls-30, .cls-31, .cls-32, .cls-33, .cls-34, .cls-35, .cls-36, .cls-37, .cls-38, .cls-39, .cls-40, .cls-41, .cls-42, .cls-43, .cls-44, .cls-45, .cls-46, .cls-47, .cls-48, .cls-49, .cls-50, .cls-51, .cls-52, .cls-53, .cls-54, .cls-55, .cls-56, .cls-57, .cls-58, .cls-59, .cls-60, .cls-61, .cls-63, .cls-64, .cls-65, .cls-66, .cls-67, .cls-68, .cls-69, .cls-70, .cls-71, .cls-72, .cls-73, .cls-74, .cls-75, .cls-76, .cls-77, .cls-78, .cls-79, .cls-80, .cls-81, .cls-82, .cls-83, .cls-84, .cls-85, .cls-86, .cls-87, .cls-88, .cls-89, .cls-90, .cls-91, .cls-92, .cls-93, .cls-94, .cls-95, .cls-96, .cls-97, .cls-98, .cls-99 {
        stroke-miterlimit: 10;
        stroke-width: 5px;
      }

      .cls-1, .cls-4, .cls-5, .cls-7, .cls-8, .cls-9, .cls-10, .cls-11, .cls-12, .cls-23, .cls-24, .cls-26, .cls-29, .cls-30, .cls-32, .cls-33, .cls-37, .cls-38, .cls-39, .cls-40, .cls-42, .cls-45, .cls-46, .cls-49, .cls-50, .cls-51, .cls-52, .cls-57, .cls-59, .cls-60, .cls-61, .cls-65, .cls-70, .cls-72, .cls-73, .cls-74, .cls-75, .cls-78, .cls-80, .cls-83, .cls-84, .cls-86, .cls-89, .cls-90, .cls-92, .cls-93, .cls-94, .cls-95, .cls-96 {
        stroke: #fc5e2d;
      }

      .cls-1, .cls-88 {
        opacity: .97;
      }

      .cls-2, .cls-3, .cls-6, .cls-13, .cls-14, .cls-15, .cls-16, .cls-17, .cls-18, .cls-19, .cls-20, .cls-21, .cls-22, .cls-25, .cls-27, .cls-28, .cls-31, .cls-34, .cls-35, .cls-36, .cls-41, .cls-43, .cls-44, .cls-47, .cls-48, .cls-53, .cls-54, .cls-55, .cls-56, .cls-58, .cls-63, .cls-64, .cls-66, .cls-67, .cls-68, .cls-69, .cls-71, .cls-76, .cls-77, .cls-79, .cls-81, .cls-82, .cls-85, .cls-87, .cls-88, .cls-91, .cls-97, .cls-98, .cls-99 {
        stroke: #fc612d;
      }

      .cls-2, .cls-65 {
        opacity: .81;
      }

      .cls-3, .cls-5 {
        opacity: .43;
      }

      .cls-4, .cls-35 {
        opacity: .46;
      }

      .cls-6, .cls-59 {
        opacity: .38;
      }

      .cls-8, .cls-64 {
        opacity: .62;
      }

      .cls-9, .cls-17 {
        opacity: .91;
      }

      .cls-10, .cls-54 {
        opacity: .55;
      }

      .cls-11, .cls-43 {
        opacity: .74;
      }

      .cls-12, .cls-36 {
        opacity: .44;
      }

      .cls-13, .cls-86 {
        opacity: .92;
      }

      .cls-14, .cls-51 {
        opacity: .72;
      }

      .cls-15, .cls-94 {
        opacity: .96;
      }

      .cls-16, .cls-23 {
        opacity: .42;
      }

      .cls-18, .cls-57 {
        opacity: .78;
      }

      .cls-19, .cls-60 {
        opacity: .57;
      }

      .cls-20, .cls-37 {
        opacity: .61;
      }

      .cls-21, .cls-61 {
        opacity: .51;
      }

      .cls-22, .cls-84 {
        opacity: .58;
      }

      .cls-24, .cls-58 {
        opacity: .54;
      }

      .cls-25, .cls-40 {
        opacity: .86;
      }

      .cls-26, .cls-44 {
        opacity: .89;
      }

      .cls-27, .cls-29 {
        opacity: .93;
      }

      .cls-28, .cls-75 {
        opacity: .8;
      }

      .cls-30, .cls-71 {
        opacity: .5;
      }

      .cls-31, .cls-50 {
        opacity: .67;
      }

      .cls-32, .cls-67 {
        opacity: .77;
      }

      .cls-33, .cls-66 {
        opacity: .47;
      }

      .cls-34, .cls-90 {
        opacity: .88;
      }

      .cls-38, .cls-97 {
        opacity: .63;
      }

      .cls-39, .cls-63 {
        opacity: .4;
      }

      .cls-100 {
        opacity: .4;
      }

      .cls-41, .cls-93 {
        opacity: .76;
      }

      .cls-42, .cls-69 {
        opacity: .85;
      }

      .cls-45, .cls-76 {
        opacity: .59;
      }

      .cls-46, .cls-68 {
        opacity: .39;
      }

      .cls-47, .cls-96 {
        opacity: .66;
      }

      .cls-48, .cls-92 {
        opacity: .73;
      }

      .cls-49, .cls-79 {
        opacity: .7;
      }

      .cls-52, .cls-87 {
        opacity: .36;
      }

      .cls-55, .cls-73 {
        opacity: .35;
      }

      .cls-56, .cls-74 {
        opacity: .53;
      }

      .cls-101 {
        clip-path: url(#clippath);
      }

      .cls-102 {
        fill: #141414;
      }

      .cls-70, .cls-81 {
        opacity: .82;
      }

      .cls-72, .cls-82 {
        opacity: .65;
      }

      .cls-77, .cls-83 {
        opacity: .95;
      }

      .cls-78, .cls-98 {
        opacity: .49;
      }

      .cls-80, .cls-99 {
        opacity: .69;
      }

      .cls-85, .cls-89 {
        opacity: .84;
      }

      .cls-91, .cls-95 {
        opacity: .99;
      }

      .cls-103 {
        opacity: .25;
      }
    </style>
    <clipPath id="clippath">
      <polyline class="cls-62" points="2477.5 292.4 2477.5 1.5 3977.5 1.5 3977.5 1501.5 2477.5 1501.5 2477.5 916.76"/>
    </clipPath>
  </defs>
  <rect class="cls-102" x="-.5" y="-.5" width="1920" height="1080"/>
  <g class="cls-100">
    <path class="cls-55" d="m-171.34,100.11c427.47,35.96,629.74,179.39,735.43,305.75,71.99,86.07,113.09,153.86,225.95,262.81,34.94,33.73,235.66,193.18,458.63,159.14,184.3-28.14,213.96-153.54,361.14-167.5,103.98-9.86,258.58,38.34,467.95,317.14"/>
    <path class="cls-87" d="m2078.68,989.18c-206.87-279.43-360-331.56-463.45-325.63-146.26,8.78-177.03,130.25-359.43,154.81-51.09,6.88-101.03,3.86-147.99-4.4-73.9-13.06-140.14-39.96-194.83-68.98-60.77-32.25-103.52-67.1-118.97-81-115.4-103.86-156.03-173.44-230.46-258.5-47.67-54.47-110.96-112.07-204.18-161.58-45.16-23.98-95.72-46.08-152.72-64.91-74.83-24.72-161.42-42.18-258.96-56.29-38.27-5.53-78.14-10.34-118.46-15.1"/>
    <path class="cls-6" d="m2079.6,1000.91c-204.38-280.06-356.04-336.39-458.95-334.12-145.34,3.21-177.26,121.08-357.72,142.11-51.34,5.98-101.5,2.25-148.58-5.69-73.89-12.58-139.51-37.2-196-65.32-60.84-30.3-103.84-64.69-120.37-78.61-117.54-98.98-158.13-170.13-234.97-254.18-49.68-54.35-112.59-111.73-206.88-159.85-46.63-23.8-97.68-45.34-154.04-63.03-76.48-24.01-164.25-37.73-259.58-51.19-37.39-5.26-75.79-10.09-112.71-15.92"/>
    <path class="cls-68" d="m2080.53,1012.64c-201.88-280.69-352.06-341.08-454.45-342.61-144.4-2.16-177.55,111.83-356.01,129.42-51.61,5.09-101.98.65-149.17-6.97-73.87-12.11-138.82-34.42-197.16-61.67-60.84-28.41-104.13-62.27-121.78-76.22-119.31-94.33-160.26-166.81-239.47-249.87-51.71-54.22-114.25-111.35-209.57-158.12-48.12-23.61-99.66-44.56-155.36-61.16-78.16-23.3-167.09-33.28-260.2-46.09-36.52-4.99-73.43-9.84-106.96-16.74"/>
    <path class="cls-63" d="m2081.45,1024.37c-199.38-281.33-348.07-345.76-449.94-351.11-143.45-7.52-177.88,102.52-354.3,116.73-51.9,4.18-102.45-.95-149.77-8.26-73.86-11.63-138.07-31.64-198.33-58.01s-104.38-59.84-123.19-73.84c-120.76-89.89-162.41-163.48-243.98-245.56-53.76-54.09-115.93-110.94-212.27-156.39-49.61-23.41-101.66-43.73-156.68-59.29-79.88-22.59-169.93-28.84-260.83-40.99-35.65-4.72-71.07-9.58-101.2-17.57"/>
    <path class="cls-16" d="m2082.37,1036.11c-196.88-281.96-344.06-350.44-445.44-359.6-142.48-12.87-178.26,93.13-352.59,104.03-52.2,3.27-102.92-2.56-150.36-9.54-73.85-11.15-137.26-28.86-199.5-54.35-60.63-24.83-104.6-57.4-124.59-71.45-121.93-85.68-164.59-160.15-248.49-241.25-55.81-53.95-117.65-110.49-214.96-154.66-51.12-23.2-103.69-42.86-158.01-57.41-81.63-21.87-172.77-24.39-261.45-35.89-34.77-4.46-68.71-9.33-95.45-18.39"/>
    <path class="cls-3" d="m2083.29,1047.84c-194.39-282.59-340.06-355.11-440.94-368.09-141.5-18.21-178.67,83.66-350.88,91.34-52.53,2.34-103.41-4.06-150.95-10.83-73.86-10.52-136.39-26.09-200.66-50.7-60.44-23.14-104.79-54.97-126-69.07-122.85-81.67-166.79-156.8-253-236.93-57.89-53.81-119.38-110.02-217.66-152.93-52.64-22.99-105.74-41.95-159.33-55.54-83.4-21.15-175.61-19.94-262.07-30.79-33.9-4.19-66.36-9.08-89.7-19.21"/>
    <path class="cls-36" d="m2084.22,1059.57c-191.89-283.23-336.04-359.77-436.44-376.58-140.51-23.53-179.13,74.11-349.17,78.64-52.86,1.41-103.88-5.65-151.54-12.12-73.85-10.02-135.48-23.34-201.83-47.04-60.2-21.51-104.96-52.53-127.41-66.68-123.55-77.86-169.01-153.44-257.5-232.62-59.97-53.67-121.14-109.51-220.36-151.2-54.17-22.76-107.8-41-160.65-53.67-85.21-20.43-178.45-15.49-262.7-25.69-33.03-3.92-64-8.83-83.94-20.04"/>
    <path class="cls-35" d="m2085.14,1071.31c-189.39-283.86-332.02-364.42-431.93-385.07-139.51-28.84-179.62,64.48-347.46,65.95-53.22.47-104.36-7.24-152.13-13.4-73.84-9.52-134.51-20.59-202.99-43.38-59.91-19.94-105.1-50.1-128.81-64.29-124.07-74.24-171.26-150.07-262.01-228.31-62.07-53.51-122.91-108.98-223.05-149.47-55.71-22.52-109.89-40.01-161.98-51.8-87.04-19.69-181.29-11.05-263.32-20.59-32.15-3.66-61.64-8.57-78.19-20.86"/>
    <path class="cls-66" d="m2086.06,1083.04c-186.89-284.49-327.99-369.06-427.43-393.57-138.5-34.13-180.14,54.77-345.76,53.26-53.59-.49-104.83-8.83-152.72-14.69-73.83-9.02-133.51-17.87-204.16-39.72-59.59-18.43-105.22-47.68-130.22-61.91-124.43-70.79-173.52-146.68-266.52-224-64.18-53.35-124.7-108.43-225.75-147.74-57.25-22.28-111.99-38.99-163.3-49.92-88.9-18.95-184.13-6.6-263.94-15.49-31.28-3.39-59.28-8.32-72.44-21.69"/>
    <path class="cls-98" d="m2086.99,1094.77c-184.39-285.13-323.95-373.69-422.93-402.06-137.49-39.41-180.69,44.97-344.05,40.56-53.97-1.46-105.3-10.43-153.32-15.97-73.82-8.53-132.46-15.17-205.33-36.07-59.22-16.99-105.33-45.27-131.63-59.52-124.65-67.5-175.79-143.28-271.03-219.69-66.3-53.19-126.51-107.84-228.44-146.01-58.81-22.02-114.1-37.93-164.62-48.05-90.79-18.19-186.96-2.15-264.57-10.39-30.41-3.12-56.92-8.07-66.68-22.51"/>
    <path class="cls-71" d="m2087.91,1106.5c-181.9-285.76-319.92-378.31-418.43-410.55-136.48-44.67-181.27,35.1-342.34,27.87-54.37-2.44-105.78-12.02-153.91-17.26-73.8-8.03-131.38-12.49-206.49-32.41-58.82-15.6-105.41-42.88-133.03-57.13-124.75-64.37-178.08-139.87-275.53-215.37-68.43-53.01-128.33-107.24-231.14-144.28-60.37-21.75-116.23-36.84-165.94-46.18-92.69-17.41-189.8,2.29-265.19-5.29-29.53-2.85-54.57-7.82-60.93-23.33"/>
    <path class="cls-21" d="m2088.83,1118.24c-179.4-286.39-315.88-382.91-413.92-419.04-135.46-49.92-181.87,25.14-340.63,15.17-54.77-3.44-106.25-13.61-154.5-18.54-73.79-7.54-130.26-9.85-207.66-28.75-58.4-14.26-105.48-40.5-134.44-54.75-124.74-61.37-180.39-136.45-280.04-211.06-70.56-52.83-130.16-106.6-233.83-142.55-61.93-21.47-118.37-35.71-167.27-44.31-94.62-16.63-192.63,6.58-265.81-.19-28.65-2.65-52.21-7.56-55.17-24.16"/>
    <path class="cls-56" d="m2089.75,1129.97c-176.9-287.03-311.84-387.51-409.42-427.53-134.44-55.15-182.5,15.1-338.92,2.48-55.19-4.45-106.72-15.21-155.09-19.83-73.78-7.05-129.11-7.24-208.82-25.09-57.95-12.98-105.53-38.13-135.85-52.36-124.66-58.5-182.71-133.01-284.55-206.75-72.71-52.64-132-105.95-236.53-140.82-63.51-21.19-120.51-34.56-168.59-42.43-96.57-15.82-195.47,11.01-266.44,4.91-27.78-2.39-49.85-7.31-49.42-24.98"/>
    <path class="cls-58" d="m2090.68,1141.7c-174.4-287.66-307.81-392.09-404.92-436.03-133.43-60.37-183.13,4.98-337.21-10.21-55.62-5.48-107.19-16.81-155.68-21.11-73.77-6.56-127.94-4.67-209.99-21.44-57.48-11.75-105.57-35.78-137.26-49.97-124.5-55.74-185.03-129.57-289.06-202.44-74.86-52.44-133.85-105.28-239.22-139.09-65.08-20.88-122.67-33.37-169.91-40.56-98.53-15-198.3,15.44-267.06,10.01-26.9-2.13-47.49-7.06-43.67-25.8"/>
    <path class="cls-54" d="m2091.6,1153.43c-171.91-288.29-303.78-396.67-400.41-444.52-132.42-65.57-183.78-5.22-335.5-22.91-56.05-6.53-107.67-18.4-156.27-22.4-73.75-6.07-126.74-2.14-211.16-17.78-56.99-10.56-105.59-33.46-138.66-47.59-124.27-53.1-187.37-126.11-293.56-198.12-77.02-52.24-135.71-104.58-241.92-137.36-66.66-20.57-124.84-32.16-171.23-38.69-100.52-14.15-201.14,19.88-267.68,15.11-26.03-1.87-45.13-6.81-37.91-26.63"/>
    <path class="cls-19" d="m2092.52,1165.17c-169.41-288.93-299.74-401.23-395.91-453.01-131.41-70.76-184.45-15.5-333.79-35.6-56.49-7.6-108.14-20-156.87-23.68-73.74-5.58-125.53.35-212.32-14.12-56.48-9.42-105.61-31.15-140.07-45.2-124-50.55-189.72-122.63-298.07-193.81-79.19-52.02-137.58-103.87-244.61-135.63-68.25-20.25-127.02-30.92-172.56-36.82-102.52-13.28-203.98,24.31-268.31,20.21-25.16-1.6-42.78-6.55-32.16-27.45"/>
    <path class="cls-22" d="m2093.44,1176.9c-166.91-289.56-295.72-405.79-391.41-461.5-130.41-75.93-185.11-25.86-332.08-48.3-56.94-8.69-108.61-21.6-157.46-24.97-73.73-5.09-124.29,2.8-213.49-10.47-55.96-8.32-105.61-28.87-141.48-42.81-123.68-48.1-192.07-119.15-302.58-189.5-81.36-51.8-139.45-103.14-247.31-133.9-69.84-19.92-129.2-29.65-173.88-34.94-104.53-12.39-206.82,28.74-268.93,25.31-24.28-1.34-40.42-6.3-26.41-28.28"/>
    <path class="cls-76" d="m2094.37,1188.63c-164.41-290.19-291.7-410.33-386.91-470-129.42-81.1-185.78-36.3-330.37-60.99-57.39-9.8-109.08-23.2-158.05-26.26-73.71-4.61-123.04,5.19-214.65-6.81-55.43-7.26-105.6-26.61-142.88-40.43-123.33-45.73-194.44-115.66-307.09-185.19-83.54-51.56-141.33-102.39-250.01-132.17-71.43-19.57-131.39-28.36-175.2-33.07-106.56-11.47-209.66,33.17-269.55,30.41-23.41-1.08-38.06-6.05-20.65-29.1"/>
    <path class="cls-20" d="m2095.29,1200.37c-161.92-290.83-287.68-414.87-382.4-478.49-128.43-86.25-186.46-46.8-328.66-73.68-57.84-10.93-109.55-24.8-158.64-27.54-73.7-4.12-121.78,7.54-215.82-3.15-54.9-6.24-105.59-24.37-144.29-38.04-122.95-43.44-196.8-112.15-311.59-180.88-85.72-51.32-143.21-101.63-252.7-130.44-73.03-19.22-133.58-27.04-176.53-31.2-108.6-10.52-212.5,37.61-270.18,35.51-22.54-.82-35.7-5.8-14.9-29.92"/>
    <path class="cls-64" d="m2096.21,1212.1c-159.42-291.46-283.67-419.4-377.9-486.98-127.45-91.4-187.12-57.38-326.95-86.38-58.3-12.09-110.02-26.4-159.23-28.83-73.69-3.64-120.51,9.83-216.99.51-54.36-5.25-105.57-22.16-145.7-35.65-122.55-41.22-199.18-108.63-316.1-176.56-87.91-51.07-145.09-100.85-255.4-128.71-74.62-18.85-135.78-25.7-177.85-29.32-110.65-9.53-215.34,42.04-270.8,40.61-21.67-.56-33.35-5.55-9.15-30.75"/>
    <path class="cls-97" d="m2097.14,1223.83c-156.92-292.09-279.67-423.93-373.4-495.47-126.48-96.53-187.79-68.03-325.24-99.07-58.75-13.27-110.49-28-159.82-30.11-73.67-3.16-119.23,12.06-218.15,4.16-53.81-4.3-105.54-19.97-147.1-33.27-122.13-39.07-201.56-105.11-320.61-172.25-90.1-50.82-146.98-100.05-258.09-126.98-76.22-18.47-137.98-24.34-179.17-27.45-112.71-8.52-218.19,46.47-271.42,45.71-20.79-.3-30.99-5.29-3.39-31.57"/>
    <path class="cls-82" d="m2098.06,1235.56c-154.42-292.73-275.67-428.45-368.9-503.96-125.51-101.66-188.44-78.75-323.53-111.77-59.2-14.47-110.97-29.6-160.42-31.4-73.66-2.68-117.95,14.24-219.32,7.82-53.26-3.37-105.5-17.81-148.51-30.88-121.7-36.98-203.94-101.57-325.12-167.94-92.29-50.55-148.87-99.24-260.79-125.25-77.83-18.09-140.18-22.96-180.49-25.58-114.78-7.47-221.03,50.9-272.05,50.81-19.92-.04-28.63-5.04,2.36-32.4"/>
    <path class="cls-47" d="m2098.98,1247.3c-151.92-293.36-271.68-432.97-364.39-512.46-124.56-106.79-189.09-89.53-321.82-124.46-59.64-15.7-111.44-31.2-161.01-32.68-73.64-2.2-116.67,16.36-220.48,11.48-52.72-2.48-105.46-15.68-149.92-28.5-121.26-34.95-206.33-98.02-329.62-163.63-94.49-50.28-150.76-98.42-263.48-123.52-79.43-17.69-142.39-21.56-181.82-23.71-116.86-6.37-223.87,55.33-272.67,55.91-19.05.22-26.27-4.79,8.11-33.22"/>
    <path class="cls-31" d="m2099.9,1259.03c-149.43-293.99-267.69-437.48-359.89-520.95-123.61-111.9-189.72-100.37-320.11-137.15-60.08-16.95-111.91-32.81-161.6-33.97-73.63-1.72-115.39,18.41-221.65,15.13-52.17-1.61-105.41-13.58-151.32-26.11-120.82-32.97-208.72-94.46-334.13-159.31-96.69-50-152.66-97.58-266.18-121.79-81.03-17.28-144.6-20.14-183.14-21.83-118.94-5.24-226.72,59.76-273.29,61-18.18.48-23.91-4.54,13.87-34.04"/>
    <path class="cls-99" d="m2100.83,1270.76c-146.93-294.63-263.71-441.99-355.39-529.44-122.68-117.02-190.33-111.27-318.4-149.85-60.52-18.23-112.38-34.41-162.19-35.25-73.61-1.24-114.11,20.4-222.81,18.79-51.63-.77-105.36-11.51-152.73-23.72-120.38-31.04-211.11-90.9-338.64-155-98.89-49.71-154.55-96.74-268.87-120.06-82.64-16.86-146.81-18.7-184.46-19.96-121.03-4.06-229.56,64.19-273.92,66.1-17.31.75-21.56-4.28,19.62-34.87"/>
    <path class="cls-79" d="m2101.75,1282.5c-144.43-295.26-259.74-446.5-350.89-537.93-121.75-122.13-190.93-122.22-316.69-162.54-60.94-19.54-112.85-36.02-162.78-36.54-73.6-.77-112.84,22.33-223.98,22.45-51.08.05-105.31-9.47-154.14-21.34-119.94-29.16-213.5-87.33-343.15-150.69-101.09-49.41-156.45-95.88-271.57-118.33-84.25-16.43-149.02-17.24-185.79-18.09-123.12-2.83-232.41,68.62-274.54,71.2-16.44,1.01-19.2-4.03,25.38-35.69"/>
    <path class="cls-14" d="m2102.67,1294.23c-141.93-295.89-255.78-451.01-346.38-546.42-120.83-127.24-191.51-133.23-314.98-175.24-61.35-20.87-113.32-37.62-163.37-37.83-73.58-.3-111.58,24.19-225.15,26.11-50.55.85-105.25-7.46-155.54-18.95-119.51-27.31-215.9-83.74-347.65-146.38-103.3-49.11-158.34-95.01-274.26-116.6-85.85-15.99-151.24-15.77-187.11-16.22-125.21-1.54-235.25,73.05-275.16,76.3-15.57,1.27-16.84-3.78,31.13-36.51"/>
    <path class="cls-48" d="m2103.59,1305.96c-139.44-296.53-251.82-455.51-341.88-554.92-119.92-132.35-192.06-144.29-313.27-187.93-61.76-22.24-113.79-39.23-163.97-39.11-73.57.18-110.33,25.98-226.31,29.76-50.02,1.63-105.2-5.47-156.95-16.56-119.09-25.51-218.3-80.15-352.16-142.07-105.51-48.8-160.24-94.13-276.96-114.87-87.46-15.54-153.45-14.29-188.43-14.34-127.3-.2-238.1,77.48-275.79,81.4-14.7,1.53-14.48-3.53,36.88-37.34"/>
    <path class="cls-43" d="m2104.52,1317.69c-136.94-297.16-247.86-460.01-337.38-563.41-119.01-137.46-192.59-155.39-311.56-200.62-62.14-23.63-114.26-40.84-164.56-40.4-73.56.65-109.09,27.7-227.48,33.42-49.5,2.39-105.14-3.53-158.36-14.18-118.68-23.75-220.69-76.55-356.67-137.75-107.72-48.48-162.13-93.24-279.66-113.14-89.07-15.08-155.66-12.79-189.75-12.47-129.39,1.2-240.95,81.92-276.41,86.5-13.83,1.79-12.12-3.27,42.64-38.16"/>
    <path class="cls-41" d="m2105.44,1329.43c-134.44-297.79-243.91-464.52-332.88-571.9-118.11-142.57-193.09-166.53-309.85-213.32-62.51-25.05-114.74-42.45-165.15-41.68-73.54,1.12-107.87,29.34-228.64,37.08-48.98,3.14-105.08-1.61-159.76-11.79-118.28-22.02-223.09-72.95-361.18-133.44-109.93-48.16-164.02-92.34-282.35-111.41-90.68-14.61-157.87-11.27-191.08-10.6-131.47,2.67-243.81,86.35-277.03,91.6-12.96,2.05-9.77-3.02,48.39-38.99"/>
    <path class="cls-67" d="m2106.36,1341.16c-131.94-298.43-239.97-469.02-328.37-580.39-117.22-147.67-193.56-177.71-308.14-226.01-62.87-26.5-115.21-44.06-165.74-42.97-73.53,1.59-106.68,30.92-229.81,40.73-48.48,3.86-105.02.27-161.17-9.4-117.9-20.32-225.49-69.34-365.68-129.13-112.14-47.83-165.91-91.43-285.05-109.68-92.28-14.14-160.08-9.74-192.4-8.73-133.55,4.21-246.66,90.78-277.66,96.7-12.09,2.31-7.41-2.77,54.14-39.81"/>
    <path class="cls-18" d="m2107.29,1352.89c-129.45-299.06-236.03-473.52-323.87-588.89-116.33-152.78-194-188.93-306.43-238.71-63.2-27.98-115.68-45.67-166.33-44.25-73.51,2.06-105.5,32.42-230.98,44.39-47.99,4.58-104.97,2.13-162.58-7.02-117.54-18.65-227.89-65.72-370.19-124.82-114.35-47.49-167.81-90.51-287.74-107.95-93.89-13.65-162.29-8.2-193.72-6.85-135.62,5.82-249.52,95.21-278.28,101.8-11.23,2.57-5.05-2.52,59.9-40.63"/>
    <path class="cls-28" d="m2108.21,1364.63c-126.95-299.69-232.1-478.03-319.37-597.38-115.46-157.89-194.41-200.18-304.72-251.4-63.51-29.49-116.15-47.28-166.93-45.54-73.5,2.52-104.35,33.85-232.14,48.05-47.5,5.28-104.91,3.95-163.98-4.63-117.19-17.01-230.29-62.09-374.7-120.5-116.56-47.15-169.69-89.59-290.44-106.22-95.5-13.16-164.49-6.65-195.05-4.98-137.68,7.53-252.38,99.65-278.9,106.9-10.36,2.84-2.69-2.26,65.65-41.46"/>
    <path class="cls-2" d="m2109.13,1376.36c-124.45-300.33-228.17-482.53-314.87-605.87-114.58-163-194.78-211.46-303.01-264.09-63.8-31.03-116.62-48.89-167.52-46.82-73.49,2.99-103.22,35.2-233.31,51.71-47.03,5.97-104.86,5.73-165.39-2.24-116.87-15.4-232.69-58.46-379.21-116.19-118.77-46.8-171.58-88.65-293.13-104.49-97.1-12.65-166.69-5.09-196.37-3.11-139.73,9.32-255.25,104.08-279.53,112-9.5,3.1-.34-2.01,71.4-42.28"/>
    <path class="cls-81" d="m2110.05,1388.09c-121.95-300.96-224.24-487.04-310.36-614.36-113.71-168.11-195.12-222.77-301.3-276.79-64.06-32.59-117.09-50.51-168.11-48.11-73.47,3.45-102.13,36.48-234.47,55.36-46.57,6.65-104.82,7.48-166.8.14-116.57-13.81-235.09-54.82-383.71-111.88-120.98-46.45-173.47-87.71-295.83-102.76-98.71-12.14-168.89-3.51-197.69-1.23-141.76,11.21-258.12,108.53-280.15,117.1-8.64,3.36,2.02-1.76,77.16-43.1"/>
    <path class="cls-85" d="m2110.98,1399.82c-119.45-301.59-220.32-491.55-305.86-622.85-112.85-173.23-195.42-234.1-299.59-289.48-64.3-34.19-117.57-52.12-168.7-49.39-73.46,3.92-101.07,37.68-235.64,59.02-46.12,7.31-104.77,9.2-168.2,2.53-116.3-12.24-237.49-51.18-388.22-107.57-123.2-46.09-175.35-86.76-298.52-101.03-100.31-11.62-171.08-1.93-199.01.64-143.76,13.21-261,112.97-280.77,122.2-7.78,3.63,4.38-1.51,82.91-43.93"/>
    <path class="cls-69" d="m2111.9,1411.56c-116.96-302.23-216.4-496.05-301.36-631.35-111.99-178.34-195.69-245.44-297.88-302.18-64.51-35.81-118.04-53.74-169.29-50.68-73.45,4.38-100.04,38.81-236.81,62.68-45.69,7.97-104.73,10.89-169.61,4.92-116.05-10.69-239.88-47.53-392.73-103.26-125.41-45.72-177.23-85.81-301.22-99.3-101.92-11.09-173.27-.33-200.34,2.51-145.74,15.32-263.88,117.43-281.4,127.3-6.93,3.9,6.74-1.25,88.66-44.75"/>
    <path class="cls-25" d="m2112.82,1423.29c-114.46-302.86-212.49-500.56-296.86-639.84-111.14-183.46-195.91-256.81-296.17-314.87-64.69-37.47-118.51-55.35-169.88-51.97-73.43,4.84-99.05,39.86-237.97,66.34-45.27,8.63-104.7,12.55-171.02,7.3-115.82-9.16-242.28-43.87-397.24-98.94-127.62-45.36-179.11-84.85-303.91-97.57-103.52-10.55-175.45,1.27-201.66,4.38-147.69,17.55-266.76,121.9-282.02,132.4-6.07,4.18,9.1-1,94.42-45.58"/>
    <path class="cls-34" d="m2113.75,1435.02c-111.96-303.49-208.57-505.07-292.35-648.33-110.28-188.58-196.1-268.18-294.46-327.56-64.84-39.14-118.98-56.97-170.48-53.25-73.42,5.3-98.1,40.84-239.14,69.99-44.87,9.27-104.68,14.17-172.42,9.69-115.63-7.65-244.68-40.21-401.74-94.63-129.83-44.98-180.99-83.88-306.61-95.84-105.12-10-177.62,2.88-202.98,6.26-149.6,19.92-269.64,126.38-282.64,137.5-5.22,4.46,11.45-.75,100.17-46.4"/>
    <path class="cls-44" d="m2114.67,1446.75c-109.46-304.13-204.66-509.58-287.85-656.82-109.44-193.7-196.24-279.57-292.75-340.26-64.95-40.85-119.45-58.58-171.07-54.54-73.41,5.76-97.19,41.75-240.3,73.65-44.48,9.91-104.66,15.76-173.83,12.07-115.46-6.15-247.07-36.55-406.25-90.32-132.04-44.6-182.86-82.91-309.31-94.11-106.72-9.45-179.79,4.5-204.31,8.13-151.47,22.44-272.52,130.89-283.27,142.6-4.36,4.75,13.81-.5,105.92-47.22"/>
    <path class="cls-17" d="m2115.59,1458.49c-106.97-304.76-200.76-514.1-283.35-665.31-108.59-198.82-196.35-290.96-291.04-352.95-65.04-42.58-119.93-60.2-171.66-55.82-73.4,6.22-96.32,42.59-241.47,77.31-44.11,10.55-104.65,17.32-175.24,14.46-115.32-4.67-249.46-32.88-410.76-86.01-134.25-44.22-184.73-81.93-312-92.38-108.32-8.89-181.95,6.12-205.63,10-153.29,25.12-275.38,135.41-283.89,147.7-3.49,5.04,16.17-.24,111.68-48.05"/>
    <path class="cls-13" d="m2116.51,1470.22c-104.47-305.39-196.85-518.61-278.85-673.81-107.75-203.94-196.41-302.35-289.33-365.65-65.08-44.33-120.41-61.93-172.25-57.11-73.4,6.53-95.5,43.36-242.64,80.96-43.75,11.18-104.65,18.85-176.64,16.85-115.21-3.2-251.86-29.21-415.27-81.69-136.46-43.83-186.6-80.95-314.7-90.65-109.91-8.32-184.1,7.75-206.95,11.87-155.05,27.96-278.22,139.95-284.51,152.8-2.62,5.35,18.53,0,117.43-48.87"/>
    <path class="cls-27" d="m2117.44,1481.95c-101.97-306.03-192.95-523.13-274.34-682.3-106.91-209.07-196.42-313.75-287.62-378.34-65.1-46.11-120.88-63.53-172.84-58.39-73.39,7.01-94.73,44.06-243.8,84.62-43.41,11.81-104.65,20.34-178.05,19.23-115.13-1.74-254.25-25.53-419.77-77.38-138.67-43.44-188.47-79.96-317.39-88.92-111.51-7.75-186.23,9.39-208.27,13.75-156.74,31-281.02,144.48-285.14,157.9-1.73,5.65,20.88.26,123.19-49.69"/>
    <path class="cls-77" d="m2118.36,1493.69c-99.47-306.66-189.34-527.5-269.84-690.79-106.46-214.01-196.4-325.14-285.91-391.03-65.07-47.91-121.36-65.13-173.43-59.68-73.38,7.48-94,44.69-244.97,88.28-43.08,12.44-104.67,21.81-179.46,21.62-115.08-.3-256.64-21.85-424.28-73.07-140.88-43.04-190.33-78.97-320.09-87.19-113.1-7.16-188.36,11.03-209.6,15.62-158.35,34.23-283.8,149-285.76,163-.83,5.95,23.24.51,128.94-50.52"/>
    <path class="cls-15" d="m2119.28,1505.42c-96.97-307.29-185.37-532.06-265.34-699.28-105.53-219.19-196.33-336.52-284.2-403.73-65.01-49.72-121.83-66.74-174.03-60.96-73.36,7.96-93.33,45.26-246.13,91.94-42.78,13.07-104.7,23.25-180.87,24.01-115.07,1.14-259.02-18.17-428.79-68.76-143.09-42.64-192.19-77.97-322.78-85.46-114.7-6.57-190.47,12.67-210.92,17.49-159.86,37.67-286.56,153.5-286.38,168.1.07,6.23,25.6.77,134.69-51.34"/>
    <path class="cls-88" d="m2120.2,1517.15c-94.48-307.93-181.4-536.62-260.84-707.78-104.61-224.37-196.21-347.9-282.49-416.42-64.92-51.56-122.3-68.34-174.62-62.25-73.35,8.44-92.71,45.77-247.3,95.59-42.49,13.69-104.74,24.66-182.27,26.39-115.08,2.57-261.5-14.16-433.3-64.45-145.38-41.97-194.05-76.97-325.48-83.73-116.29-5.98-192.57,14.32-212.24,19.37-161.26,41.35-289.31,157.97-287.01,173.2.98,6.51,27.96,1.02,140.45-52.17"/>
    <path class="cls-91" d="m2121.13,1528.88c-91.98-308.56-177.43-541.17-256.33-716.27-103.68-229.56-196.06-359.27-280.78-429.12-64.78-53.41-122.77-69.95-175.21-63.53-73.34,8.92-92.14,46.22-248.47,99.25-42.21,14.32-104.78,26.04-183.68,28.78-115.13,3.99-263.84-10.62-437.8-60.13-147.54-41.7-195.91-75.74-328.17-82-117.89-5.17-194.65,15.97-213.56,21.24-162.54,45.28-292.07,162.41-287.63,178.3,1.89,6.77,30.32,1.27,146.2-52.99"/>
    <path class="cls-53" d="m2122.05,1540.62C1824.15,511.24,1587.21,287.21,1415.35,309.23c-73.33,9.39-91.62,46.61-249.63,102.91-102.19,36.41-328.59,58.02-627.4-24.65-149.71-41.42-197.75-74.96-330.87-80.27-119.46-4.77-196.71,17.62-214.89,23.11-163.67,49.46-294.84,166.84-288.25,183.4,2.8,7.03,32.67,1.52,151.95-53.81"/>
  </g>
  <g class="cls-101">
    <g class="cls-103">
      <path class="cls-73" d="m1068.06-64c555.66,50.22,818.58,250.49,955.97,426.92,93.58,120.18,147,214.84,293.71,366.96,45.42,47.1,306.32,269.74,596.16,222.21,239.57-39.29,278.12-214.39,469.44-233.88,135.16-13.77,336.12,53.54,608.28,442.82"/>
      <path class="cls-52" d="m3992.83,1177.41c-268.91-390.17-467.96-462.95-602.43-454.68-190.12,12.26-230.11,181.87-467.22,216.16-66.41,9.6-131.33,5.39-192.37-6.15-96.06-18.24-182.16-55.8-253.26-96.32-79-45.02-134.57-93.69-154.64-113.1-150.01-145.02-202.82-242.17-299.57-360.94-61.96-76.06-144.24-156.49-265.41-225.62-58.7-33.49-124.43-64.34-198.51-90.63-97.28-34.51-209.82-58.89-336.61-78.59-49.74-7.72-101.58-14.44-153.99-21.08"/>
      <path class="cls-59" d="m3994.03,1193.79c-265.66-391.05-462.81-469.71-596.58-466.54-188.93,4.48-230.42,169.06-465,198.43-66.74,8.36-131.94,3.15-193.14-7.94-96.04-17.57-181.35-51.94-254.77-91.21-79.09-42.3-134.99-90.33-156.47-109.77-152.79-138.21-205.55-237.55-305.43-354.92-64.58-75.89-146.35-156.01-268.92-223.2-60.62-33.23-126.97-63.31-200.23-88.01-99.42-33.52-213.51-52.68-337.42-71.47-48.61-7.34-98.51-14.09-146.51-22.23"/>
      <path class="cls-46" d="m3995.23,1210.18c-262.42-391.94-457.63-476.25-590.72-478.39-187.7-3.02-230.79,156.16-462.78,180.71-67.09,7.1-132.56.91-193.91-9.74-96.03-16.9-180.45-48.06-256.29-86.11-79.08-39.67-135.36-86.95-158.3-106.43-155.09-131.71-208.31-232.92-311.29-348.9-67.22-75.71-148.51-155.48-272.42-220.79-62.55-32.97-129.54-62.21-201.95-85.4-101.6-32.53-217.2-46.47-338.23-64.35-47.47-6.97-95.45-13.74-139.03-23.38"/>
      <path class="cls-39" d="m3996.42,1226.56c-259.17-392.82-452.44-482.79-584.87-490.25-186.46-10.5-231.22,143.15-460.55,162.98-67.46,5.84-133.17-1.33-194.68-11.53-96.01-16.24-179.47-44.18-257.81-81-78.99-37.12-135.68-83.55-160.13-103.1-156.98-125.52-211.12-228.28-317.14-342.88-69.88-75.52-150.7-154.9-275.92-218.37-64.49-32.69-132.15-61.06-203.67-82.78-103.83-31.54-220.89-40.26-339.04-57.23-46.34-6.6-92.38-13.38-131.55-24.53"/>
      <path class="cls-23" d="m3997.62,1242.94c-255.92-393.71-447.24-489.32-579.02-502.11-185.2-17.97-231.71,130.03-458.33,145.26-67.86,4.56-133.79-3.57-195.45-13.33-96-15.57-178.42-40.3-259.32-75.89-78.81-34.67-135.97-80.15-161.96-99.77-158.5-119.63-213.95-223.61-323-336.86-72.55-75.34-152.92-154.28-279.43-215.96-66.45-32.4-134.78-59.84-205.39-80.17-106.1-30.54-224.58-34.05-339.85-50.11-45.2-6.22-89.32-13.03-124.07-25.68"/>
      <path class="cls-5" d="m3998.82,1259.32c-252.68-394.59-442.03-495.84-573.17-513.97-183.93-25.42-232.25,116.81-456.11,127.54-68.28,3.27-134.42-5.67-196.22-15.12-96.01-14.68-177.29-36.44-260.84-70.79-78.57-32.3-136.22-76.75-163.79-96.44-159.69-114.04-216.81-218.94-328.86-330.83-75.25-75.14-155.18-153.62-282.93-213.54-68.43-32.1-137.45-58.57-207.11-77.55-108.41-29.54-228.27-27.84-340.66-42.99-44.07-5.85-86.25-12.68-116.59-26.83"/>
      <path class="cls-12" d="m4000.02,1275.71c-249.43-395.47-436.81-502.35-567.31-525.82-182.64-32.86-232.84,103.48-453.89,109.81-68.72,1.97-135.04-7.89-196.99-16.92-96-13.99-176.1-32.58-262.35-65.68-78.25-30.03-136.43-73.35-165.61-93.1-160.61-108.72-219.7-214.25-334.72-324.81-77.96-74.94-157.46-152.92-286.44-211.13-70.42-31.78-140.13-57.25-208.83-74.94-110.76-28.52-231.96-21.63-341.47-35.87-42.93-5.48-83.19-12.33-109.12-27.98"/>
      <path class="cls-4" d="m4001.22,1292.09c-246.18-396.36-431.58-508.84-561.46-537.68-181.34-40.27-233.48,90.03-451.66,92.09-69.18.65-135.65-10.11-197.75-18.71-95.98-13.29-174.85-28.75-263.87-60.57-77.88-27.84-136.62-69.96-167.44-89.77-161.28-103.66-222.61-209.54-340.58-318.79-80.68-74.72-159.77-152.17-289.94-208.71-72.41-31.45-142.84-55.87-210.55-72.32-113.15-27.5-235.65-15.42-342.28-28.75-41.79-5.1-80.12-11.97-101.64-29.13"/>
      <path class="cls-33" d="m4002.42,1308.47c-242.94-397.24-426.34-515.32-555.61-549.54-180.04-47.66-234.16,76.47-449.44,74.36-69.66-.68-136.27-12.34-198.52-20.51-95.97-12.6-173.54-24.95-265.38-55.47-77.45-25.74-136.78-66.58-169.27-86.44-161.74-98.84-225.55-204.81-346.44-312.77-83.42-74.5-162.1-151.4-293.44-206.29-74.42-31.11-145.57-54.44-212.27-69.71-115.56-26.45-239.34-9.22-343.09-21.63-40.66-4.73-77.06-11.62-94.16-30.28"/>
      <path class="cls-78" d="m4003.62,1324.85c-239.69-398.13-421.1-521.78-549.75-561.4-178.72-55.03-234.88,62.8-447.22,56.64-70.16-2.04-136.88-14.56-199.29-22.3-95.95-11.9-172.18-21.18-266.9-50.36-76.98-23.72-136.91-63.22-171.1-83.11-162.03-94.26-228.51-200.07-352.3-306.75-86.18-74.27-164.44-150.58-296.95-203.88-76.44-30.75-148.32-52.96-213.99-67.09-118.01-25.39-243.03-3.01-343.9-14.51-39.52-4.36-73.99-11.27-86.68-31.43"/>
      <path class="cls-30" d="m4004.82,1341.24c-236.44-399.01-415.86-528.23-543.9-573.26-177.4-62.38-235.63,49.01-444.99,38.91-70.67-3.41-137.5-16.78-200.06-24.1-95.94-11.21-170.77-17.44-268.41-45.25-76.46-21.78-137.02-59.87-172.93-79.78-162.16-89.88-231.49-195.31-358.16-300.73-88.94-74.02-166.81-149.73-300.45-201.46-78.47-30.37-151.08-51.44-215.71-64.48-120.49-24.32-246.72,3.2-344.71-7.39-38.39-3.98-70.93-10.92-79.2-32.58"/>
      <path class="cls-61" d="m4006.02,1357.62c-233.2-399.9-410.61-534.66-538.05-585.11-176.08-69.71-236.42,35.11-442.77,21.19-71.2-4.8-138.11-19.01-200.83-25.89-95.92-10.52-169.32-13.75-269.93-40.15-75.91-19.91-137.11-56.55-174.76-76.44-162.15-85.69-234.48-190.53-364.02-294.71-91.72-73.77-169.19-148.85-303.95-199.05-80.51-29.99-153.86-49.87-217.43-61.86-123-23.21-250.39,9.19-345.52-.27-37.24-3.7-67.86-10.56-71.72-33.73"/>
      <path class="cls-74" d="m4007.22,1374c-229.95-400.78-405.36-541.08-532.2-596.97-174.76-77.01-237.22,21.09-440.55,3.46-71.74-6.22-138.72-21.24-201.6-27.69-95.9-9.84-167.83-10.11-271.45-35.04-75.33-18.12-137.17-53.24-176.59-73.11-162.04-81.68-237.49-185.73-369.88-288.69-94.51-73.5-171.59-147.94-307.46-196.63-82.55-29.58-156.65-48.25-219.15-59.25-125.53-22.09-254.08,15.38-346.33,6.85-36.11-3.34-64.8-10.21-64.24-34.88"/>
      <path class="cls-24" d="m4008.42,1390.39c-226.7-401.66-400.11-547.48-526.34-608.83-173.44-84.29-238.05,6.95-438.33-14.26-72.3-7.66-139.34-23.47-202.37-29.48-95.89-9.15-166.31-6.52-272.96-29.93-74.71-16.4-137.22-49.97-178.41-69.78-161.83-77.83-240.52-180.92-375.74-282.66-97.31-73.23-173.99-147-310.96-194.22-84.6-29.16-159.46-46.6-220.87-56.63-128.08-20.94-257.77,21.57-347.14,13.98-34.97-2.97-61.73-9.86-56.76-36.03"/>
      <path class="cls-10" d="m4009.62,1406.77c-223.46-402.55-394.87-553.87-520.49-620.69-172.13-91.56-238.9-7.29-436.1-31.99-72.86-9.12-139.95-25.69-203.14-31.28-95.87-8.47-164.75-2.98-274.48-24.83-74.08-14.75-137.26-46.72-180.24-66.45-161.54-74.14-243.56-176.08-381.6-276.64-100.12-72.94-176.41-146.03-314.47-191.8-86.65-28.73-162.28-44.9-222.58-54.02-130.66-19.76-261.46,27.75-347.95,21.1-33.84-2.61-58.67-9.51-49.28-37.18"/>
      <path class="cls-60" d="m4010.82,1423.15c-220.21-403.43-389.63-560.24-514.64-632.54-170.82-98.8-239.76-21.65-433.88-49.71-73.43-10.62-140.57-27.92-203.91-33.07-95.85-7.79-163.17.49-275.99-19.72-73.42-13.15-137.28-43.5-182.07-63.11-161.18-70.59-246.61-171.24-387.46-270.62-102.94-72.64-178.83-145.04-317.97-189.38-88.72-28.28-165.11-43.17-224.3-51.41-133.26-18.54-265.15,33.94-348.77,28.22-32.7-2.24-55.6-9.15-41.8-38.33"/>
      <path class="cls-84" d="m4012.02,1439.53c-216.96-404.32-384.4-566.6-508.79-644.4-169.52-106.03-240.62-36.11-431.66-67.44-74.01-12.14-141.18-30.16-204.68-34.87-95.84-7.11-161.57,3.9-277.51-14.61-72.75-11.62-137.28-40.31-183.9-59.78-160.77-67.16-249.67-166.37-393.32-264.6-105.76-72.32-181.27-144.02-321.47-186.97-90.78-27.81-167.94-41.4-226.02-48.79-135.88-17.3-268.84,40.13-349.58,35.34-31.57-1.88-52.54-8.8-34.33-39.48"/>
      <path class="cls-45" d="m4013.22,1455.92c-213.72-405.2-379.17-572.95-502.93-656.26-168.22-113.24-241.5-50.68-429.44-85.16-74.6-13.69-141.79-32.39-205.45-36.66-95.82-6.43-159.94,7.25-279.02-9.51-72.06-10.14-137.27-37.15-185.73-56.45-160.31-63.85-252.74-161.49-399.17-258.58-108.59-72-183.71-142.97-324.98-184.55-92.85-27.33-170.79-39.59-227.74-46.18-138.51-16.01-272.54,46.32-350.39,42.46-30.43-1.51-49.47-8.45-26.85-40.63"/>
      <path class="cls-37" d="m4014.42,1472.3c-210.47-406.09-373.95-579.29-497.08-668.12-166.94-120.43-242.37-65.35-427.21-102.89-75.19-15.27-142.4-34.62-206.21-38.46-95.8-5.76-158.3,10.52-280.54-4.4-71.36-8.71-137.25-34.03-187.56-53.12-159.82-60.65-255.82-156.6-405.03-252.56-111.43-71.66-186.15-141.9-328.48-182.14-94.92-26.83-173.64-37.75-229.46-43.56-141.17-14.68-276.23,52.51-351.2,49.58-29.3-1.15-46.41-8.1-19.37-41.78"/>
      <path class="cls-8" d="m4015.62,1488.68c-207.22-406.97-368.74-585.62-491.23-679.97-165.67-127.62-243.24-80.13-424.99-120.61-75.78-16.88-143.02-36.86-206.98-40.25-95.78-5.08-156.65,13.72-282.05.71-70.66-7.33-137.22-30.94-189.39-49.78-159.29-57.56-258.91-151.69-410.89-246.54-114.27-71.31-188.6-140.81-331.98-179.72-97-26.32-176.49-35.88-231.18-40.95-143.83-13.31-279.92,58.7-352.01,56.7-28.16-.78-43.35-7.74-11.89-42.93"/>
      <path class="cls-38" d="m4016.82,1505.06c-203.98-407.85-363.53-591.94-485.37-691.83-164.4-134.79-244.1-95-422.77-138.33-76.36-18.52-143.63-39.09-207.75-42.05-95.76-4.41-154.99,16.84-283.57,5.81-69.95-6-137.18-27.89-191.22-46.45-158.75-54.55-262-146.76-416.75-240.52-117.12-70.96-191.06-139.7-335.49-177.3-99.08-25.79-179.36-33.98-232.9-38.33-146.51-11.89-283.62,64.89-352.82,63.82-27.03-.42-40.28-7.39-4.41-44.08"/>
      <path class="cls-72" d="m4018.01,1521.45c-200.73-408.74-358.34-598.25-479.52-703.69-163.15-141.95-244.95-109.96-420.54-156.06-76.95-20.2-144.24-41.33-208.52-43.84-95.74-3.74-153.32,19.88-285.09,10.92-69.24-4.71-137.14-24.87-193.04-43.12-158.19-51.63-265.1-141.82-422.61-234.49-119.97-70.58-193.52-138.57-338.99-174.89-101.16-25.25-182.22-32.06-234.62-35.72-149.2-10.42-287.31,71.07-353.63,70.94-25.89-.05-37.22-7.04,3.07-45.23"/>
      <path class="cls-96" d="m4019.21,1537.83c-197.48-409.62-353.15-604.56-473.67-715.55-161.91-149.1-245.79-125.01-418.32-173.78-77.53-21.92-144.85-43.57-209.29-45.64-95.73-3.07-151.65,22.84-286.6,16.03-68.53-3.46-137.08-21.9-194.87-39.79-157.62-48.8-268.2-136.87-428.47-228.47-122.82-70.2-195.98-137.43-342.5-172.47-103.25-24.7-185.09-30.1-236.34-33.1-151.9-8.9-291.01,77.26-354.44,78.06-24.76.31-34.15-6.69,10.55-46.38"/>
      <path class="cls-50" d="m4020.41,1554.21c-194.24-410.51-347.97-610.86-467.82-727.4-160.68-156.25-246.61-140.15-416.1-191.51-78.1-23.67-145.47-45.81-210.06-47.43-95.71-2.4-149.99,25.71-288.12,21.13-67.81-2.25-137.02-18.96-196.7-36.46-157.05-46.03-271.31-131.9-434.33-222.45-125.68-69.81-198.44-136.26-346-170.06-105.33-24.13-187.96-28.12-238.06-30.49-154.61-7.31-294.7,83.45-355.25,85.18-23.63.68-31.09-6.33,18.03-47.53"/>
      <path class="cls-80" d="m4021.61,1570.59c-190.99-411.39-342.8-617.16-461.96-739.26-159.47-163.4-247.41-155.37-413.88-209.23-78.67-25.46-146.08-48.05-210.83-49.23-95.69-1.74-148.33,28.49-289.63,26.24-67.11-1.07-136.96-16.07-198.53-33.12-156.47-43.34-274.42-126.92-440.19-216.43-128.55-69.41-200.9-135.08-349.5-167.64-107.42-23.54-190.84-26.11-239.78-27.87-157.32-5.67-298.4,89.63-356.06,92.3-22.5,1.04-28.02-5.98,25.51-48.68"/>
      <path class="cls-49" d="m4022.81,1586.98c-187.74-412.28-337.63-623.45-456.11-751.12-158.26-170.53-248.19-170.66-411.65-226.96-79.22-27.28-146.69-50.29-211.6-51.02-95.67-1.07-146.68,31.18-291.15,31.35-66.4.08-136.89-13.22-200.36-29.79-155.91-40.71-277.53-121.93-446.05-210.41-131.41-68.99-203.36-133.88-353.01-165.23-109.51-22.94-193.71-24.08-241.5-25.26-160.04-3.95-302.1,95.82-356.87,99.42-21.36,1.41-24.96-5.63,32.98-49.83"/>
      <path class="cls-51" d="m4024.01,1603.36c-184.5-413.16-332.48-629.74-450.26-762.98-157.06-177.67-248.94-186.03-409.43-244.68-79.75-29.15-147.3-52.53-212.37-52.82-95.65-.41-145.04,33.77-292.66,36.45-65.71,1.19-136.82-10.41-202.19-26.46-155.35-38.14-280.64-116.93-451.91-204.39-134.28-68.57-205.83-132.66-356.51-162.81-111.6-22.33-196.59-22.02-243.22-22.64-162.76-2.16-305.8,102.01-357.68,106.54-20.23,1.77-21.89-5.27,40.46-50.98"/>
      <path class="cls-92" d="m4025.21,1619.74c-181.25-414.04-327.33-636.03-444.41-774.84-155.88-184.8-249.65-201.47-407.21-262.41-80.28-31.05-147.92-54.78-213.14-54.61-95.63.25-143.41,36.27-294.18,41.56-65.02,2.28-136.74-7.64-204.02-23.13-154.8-35.63-283.76-111.92-457.77-198.37-137.15-68.14-208.29-131.43-360.01-160.39-113.69-21.7-199.47-19.95-244.94-20.03-165.47-.29-309.5,108.19-358.49,113.66-19.1,2.13-18.83-4.92,47.94-52.13"/>
      <path class="cls-11" d="m4026.41,1636.12c-178-414.93-322.19-642.32-438.55-786.69-154.7-191.93-250.34-216.97-404.99-280.13-80.78-32.99-148.53-57.02-213.91-56.41-95.61.91-141.81,38.67-295.69,46.67-64.34,3.34-136.67-4.92-205.84-19.79-154.26-33.16-286.88-106.89-463.63-192.35-140.02-67.7-210.75-130.19-363.52-157.98-115.78-21.06-202.34-17.85-246.66-17.41-168.19,1.67-313.21,114.38-359.3,120.78-17.97,2.5-15.76-4.57,55.42-53.29"/>
      <path class="cls-93" d="m4027.61,1652.51c-174.76-415.81-317.06-648.61-432.7-798.55-153.53-199.07-250.99-232.53-402.76-297.86-81.26-34.98-149.14-59.27-214.67-58.2-95.6,1.56-140.22,40.97-297.21,51.77-63.67,4.38-136.59-2.25-207.67-16.46-153.75-30.75-289.99-101.86-469.49-186.33-142.89-67.24-213.21-128.93-367.02-155.56-117.87-20.41-205.21-15.74-248.38-14.8-170.9,3.72-316.92,120.57-360.11,127.91-16.85,2.86-12.7-4.22,62.9-54.44"/>
      <path class="cls-32" d="m4028.81,1668.89c-171.51-416.7-311.93-654.9-426.85-810.41-152.37-206.2-251.6-248.14-400.54-315.58-81.72-37-149.75-61.52-215.44-59.99-95.58,2.22-138.67,43.17-298.73,56.88-63.02,5.4-136.52.38-209.5-13.13-153.25-28.38-293.11-96.81-475.34-180.3-145.76-66.78-215.67-127.66-370.53-153.15-119.96-19.74-208.09-13.6-250.1-12.18-173.6,5.87-320.63,126.75-360.92,135.03-15.72,3.23-9.63-3.86,70.38-55.59"/>
      <path class="cls-57" d="m4030.01,1685.27c-168.26-417.58-306.81-661.19-420.99-822.27-151.22-213.33-252.18-263.81-398.32-333.31-82.15-39.07-150.37-63.77-216.21-61.79-95.56,2.87-137.14,45.27-300.24,61.98-62.38,6.39-136.45,2.97-211.33-9.8-152.78-26.05-296.23-91.76-481.2-174.28-148.64-66.31-218.13-126.38-374.03-150.73-122.05-19.06-210.95-11.45-251.82-9.57-176.3,8.13-324.35,132.94-361.73,142.15-14.59,3.59-6.57-3.51,77.86-56.74"/>
      <path class="cls-75" d="m4031.21,1701.65c-165.02-418.47-301.7-667.48-415.14-834.12-150.08-220.46-252.71-279.52-396.09-351.03-82.56-41.18-150.98-66.02-216.98-63.58-95.54,3.52-135.64,47.26-301.76,67.09-61.75,7.37-136.38,5.51-213.16-6.47-152.34-23.76-299.35-86.7-487.06-168.26-151.51-65.84-220.58-125.09-377.53-148.31-124.13-18.37-213.82-9.29-253.54-6.95-178.97,10.51-328.07,139.14-362.54,149.27-13.47,3.96-3.5-3.16,85.34-57.89"/>
      <path class="cls-65" d="m4032.41,1718.04c-161.77-419.35-296.59-673.77-409.29-845.98-148.94-227.6-253.2-295.27-393.87-368.76-82.93-43.32-151.59-68.27-217.75-65.38-95.52,4.17-134.18,49.15-303.27,72.2-61.13,8.33-136.31,8-214.99-3.13-151.92-21.5-302.47-81.63-492.92-162.24-154.39-65.35-223.03-123.79-381.04-145.9-126.22-17.66-216.68-7.1-255.26-4.34-181.63,13.01-331.79,145.33-363.35,156.39-12.35,4.33-.44-2.81,92.82-59.04"/>
      <path class="cls-70" d="m4033.61,1734.42c-158.52-420.24-291.49-680.06-403.44-857.84-147.81-234.74-253.64-311.05-391.65-386.48-83.27-45.51-152.21-70.52-218.52-67.17-95.51,4.82-132.75,50.94-304.79,77.3-60.54,9.28-136.25,10.45-216.82.2-151.53-19.28-305.59-76.55-498.78-156.22-157.26-64.86-225.49-122.47-384.54-143.48-128.31-16.95-219.54-4.9-256.97-1.72-184.27,15.65-335.53,151.53-364.16,163.51-11.23,4.7,2.63-2.45,100.29-60.19"/>
      <path class="cls-89" d="m4034.81,1750.8c-155.28-421.12-286.39-686.35-397.58-869.7-146.69-241.88-254.03-326.87-389.43-404.21-83.58-47.74-152.82-72.78-219.29-68.97-95.49,5.47-131.37,52.61-306.3,82.41-59.96,10.21-136.19,12.85-218.65,3.53-151.17-17.09-308.7-71.46-504.64-150.2-160.14-64.35-227.93-121.15-388.05-141.07-130.39-16.22-222.39-2.69-258.69.89-186.87,18.44-339.27,157.75-364.97,170.63-10.12,5.07,5.69-2.1,107.77-61.34"/>
      <path class="cls-42" d="m4036.01,1767.19c-152.03-422-281.3-692.64-391.73-881.55-145.57-249.02-254.37-342.71-387.2-421.93-83.85-50.01-153.43-75.03-220.06-70.76-95.47,6.11-130.04,54.19-307.82,87.52-59.39,11.13-136.14,15.21-220.47,6.86-150.85-14.93-311.82-66.36-510.5-144.18-163.01-63.85-230.38-119.82-391.55-138.65-132.48-15.48-225.23-.47-260.41,3.51-189.45,21.39-343.01,163.97-365.78,177.75-9,5.45,8.76-1.75,115.25-62.49"/>
      <path class="cls-40" d="m4037.21,1783.57c-148.78-422.89-276.21-698.94-385.88-893.41-144.46-256.16-254.66-358.58-384.98-439.65-84.09-52.31-154.05-77.29-220.83-72.56-95.46,6.76-128.75,55.66-309.33,92.62-58.85,12.05-136.1,17.52-222.3,10.2-150.56-12.79-314.94-61.26-516.36-138.16-165.89-63.33-232.82-118.48-395.05-136.24-134.56-14.73-228.06,1.77-262.13,6.12-191.98,24.51-346.76,170.21-366.59,184.87-7.89,5.83,11.82-1.4,122.73-63.64"/>
      <path class="cls-90" d="m4038.41,1799.95c-145.54-423.77-271.12-705.24-380.03-905.27-143.36-263.31-254.91-374.46-382.76-457.38-84.28-54.66-154.66-79.54-221.6-74.35-95.44,7.4-127.52,57.03-310.85,97.73-58.32,12.95-136.07,19.79-224.13,13.53-150.3-10.68-318.05-56.15-522.22-132.13-168.76-62.81-235.26-117.13-398.56-133.82-136.64-13.97-230.89,4.02-263.85,8.74-194.47,27.82-350.5,176.47-367.4,191.99-6.78,6.23,14.89-1.04,130.21-64.79"/>
      <path class="cls-26" d="m4039.6,1816.33c-142.29-424.66-266.04-711.54-374.17-917.13-142.25-270.46-255.09-390.36-380.54-475.1-84.43-57.04-155.28-81.8-222.37-76.15-95.42,8.04-126.33,58.3-312.37,102.84-57.82,13.84-136.04,22.01-225.96,16.86-150.08-8.59-321.16-51.03-528.08-126.11-171.64-62.28-237.7-115.77-402.06-131.4-138.72-13.2-233.71,6.28-265.57,11.35-196.9,31.34-354.24,182.76-368.21,199.11-5.66,6.63,17.95-.69,137.69-65.94"/>
      <path class="cls-9" d="m4040.8,1832.72c-139.04-425.54-260.96-717.84-368.32-928.98-141.16-277.61-255.23-406.27-378.31-492.83-84.54-59.45-155.89-84.06-223.14-77.94-95.41,8.68-125.21,59.47-313.88,107.94-57.33,14.73-136.03,24.18-227.79,20.19-149.9-6.52-324.27-45.91-533.94-120.09-174.51-61.74-240.13-114.4-405.56-128.99-140.8-12.41-236.51,8.55-267.29,13.97-199.26,35.07-357.96,189.08-369.02,206.23-4.54,7.04,21.02-.34,145.17-67.09"/>
      <path class="cls-86" d="m4042,1849.1c-135.8-426.43-255.88-724.14-362.47-940.84-140.06-284.77-255.3-422.18-376.09-510.55-84.6-61.9-156.52-86.47-223.9-79.74-95.41,9.11-124.14,60.54-315.4,113.05-56.87,15.61-136.03,26.32-229.62,23.52-149.76-4.47-327.38-40.78-539.8-114.07-177.38-61.2-242.56-113.03-409.07-126.57-142.88-11.62-239.3,10.82-269.01,16.58-201.55,39.05-361.65,195.41-369.83,213.35-3.41,7.47,24.08.01,152.65-68.24"/>
      <path class="cls-29" d="m4043.2,1865.48c-132.55-427.31-250.81-730.45-356.61-952.7-138.97-291.93-255.33-438.09-373.87-528.28-84.62-64.38-157.13-88.71-224.67-81.53-95.4,9.78-123.14,61.52-316.91,118.16-56.43,16.49-136.04,28.41-231.45,26.86-149.66-2.43-330.49-35.65-545.66-108.05-180.26-60.65-244.98-111.65-412.57-124.16-144.95-10.82-242.08,13.11-270.73,19.2-203.74,43.28-365.29,201.74-370.64,220.47-2.25,7.89,27.15.37,160.13-69.39"/>
      <path class="cls-83" d="m4044.4,1881.86c-129.3-428.19-246.12-736.55-350.76-964.56-138.38-298.83-255.29-453.99-371.64-546-84.59-66.89-157.75-90.95-225.44-83.33-95.38,10.45-122.19,62.4-318.43,123.26-56,17.37-136.06,30.46-233.27,30.19-149.6-.41-333.6-30.51-551.51-102.03-183.13-60.1-247.4-110.27-416.08-121.74-147.02-10-244.84,15.4-272.45,21.81-205.83,47.79-368.9,208.05-371.45,227.59-1.08,8.3,30.21.72,167.61-70.54"/>
      <path class="cls-94" d="m4045.6,1898.25c-126.06-429.08-240.96-742.92-344.91-976.42-137.18-306.06-255.2-469.89-369.42-563.73-84.51-69.43-158.36-93.19-226.21-85.12-95.36,11.12-121.32,63.2-319.94,128.37-55.6,18.24-136.09,32.47-235.1,33.52-149.57,1.59-336.7-25.36-557.37-96.01-186-59.54-249.82-108.87-419.58-119.33-149.09-9.18-247.59,17.7-274.17,24.42-207.8,52.61-372.49,214.33-372.26,234.71.1,8.7,33.28,1.07,175.08-71.69"/>
      <path class="cls-1" d="m4046.8,1914.63c-122.81-429.96-235.8-749.28-339.06-988.27-135.97-313.3-255.06-485.78-367.2-581.45-84.38-71.99-158.98-95.43-226.98-86.92-95.35,11.78-120.51,63.91-321.46,133.48-55.23,19.12-136.14,34.43-236.93,36.85-149.59,3.59-339.92-19.77-563.23-89.99-188.97-58.6-252.24-107.48-423.08-116.91-151.16-8.35-250.31,19.99-275.89,27.04-209.62,57.74-376.07,220.57-373.07,241.84,1.28,9.09,36.34,1.42,182.56-72.84"/>
      <path class="cls-95" d="m4048,1931.01c-119.56-430.85-230.64-755.64-333.2-1000.13-134.77-320.53-254.85-501.65-364.98-599.18-84.21-74.58-159.59-97.67-227.75-88.71-95.33,12.45-119.77,64.54-322.97,138.58-54.87,19.99-136.21,36.37-238.76,40.19-149.65,5.58-342.96-14.84-569.09-83.97-191.79-58.22-254.66-105.75-426.59-114.49-153.24-7.22-253.02,22.3-277.61,29.65-211.28,63.22-379.65,226.77-373.88,248.96,2.46,9.46,39.41,1.78,190.04-73.99"/>
      <path class="cls-7" d="m2958.99,303.11c-37.29,19.68-85.25,42.68-152.91,68.57-132.84,50.84-427.13,81.01-815.54-34.43-194.61-57.84-257.06-104.66-430.09-112.08-155.29-6.66-255.69,24.6-279.33,32.27-212.75,69.06-383.25,232.96-374.69,256.08,3.63,9.82,42.47,2.13,197.52-75.14"/>
    </g>
  </g>
</svg>